<?xml version="1.0" encoding="UTF-8"?><svg id="Capa_2" xmlns="http://www.w3.org/2000/svg" viewBox="0 0 271.98 588.51"><defs><style>.cls-1{fill:#fac30f;}.cls-2{fill:#fff;}.cls-3{fill:#f9ba97;}.cls-4{fill:#381a08;}.cls-5{fill:#879eff;}.cls-6{fill:#8d4136;}.cls-7{fill:#403ebd;}.cls-8{fill:#c06b5b;}</style></defs><g id="OBJECTS"><path class="cls-3" d="M37.38,206.48c-4.24-3.82-2.97-10.31-7.63-9.26-4.83,1.1-.05,12.34-.05,12.64,0,.3-25.12-3.74-26.2.19-.75,2.73,12.09,6.6,12.09,6.6,0,0-16.88,8.33-15.51,11.11,1.37,2.78,15.05-3.92,15.05-3.92,0,0-8.38,12.26-6.5,13.55,1.88,1.29,10.53-9.57,10.53-9.57,0,0-2.57,13.18.02,12.69s6.04-11.82,6.04-11.82c0,0,4.79,3.65,12.21,1.57,7.55-2.12,9.63-10.77,9.63-10.77.66-5.83-7.7-11.23-9.67-13Z"/><path class="cls-2" d="M135.49,104.93c-17.47,7.59-26.62,89.21-26.62,89.21l-70.4,12s-1.66,16.47,2.51,24.75c0,0,59.32-9.77,69.92-11.26,10.6-1.49,31.12-6.79,32.12-22.51.99-15.73-7.52-92.19-7.52-92.19Z"/><path class="cls-1" d="M142.94,582.75l-.07.51c-.07.76-.16,1.5-.29,2.29-.15.66-.27,1.37-.4,2.11l-78.53.85s-.13-.81-.15-2.08c.02-.65.06-1.42.19-2.31.03-.16.04-.34.1-.51.81-4.43,3.96-10.57,14.67-12.64.51-.13,1.06-.2,1.65-.28h.05c.84-.13,1.68-.22,2.58-.31.3-.02.59-.05.89-.07,21.46-1.91,30.89-9.22,30.89-9.22,0,0,12.48,2.36,24.13-.26,0,0,1.39,2.26,2.65,6.2.19.67.4,1.38.6,2.14.05.14.08.3.13.47.08.29.15.64.21.98.02.09.05.22.05.31,0,.08.05.11.05.17.33,1.62.58,3.39.7,5.3.11,1.99.12,4.12-.1,6.37Z"/><path class="cls-2" d="M106.75,561.8c.26-.25.61-.43.99-.42.4.01.69.16,1,.4.22.17.44.34.66.5,1.04.79,2.11,1.55,3.18,2.29.31.21.55.46.65.83.1.33.06.78-.13,1.08-.38.6-1.27.97-1.91.52-1.5-1.03-2.97-2.11-4.41-3.22-.27-.21-.42-.67-.42-.99,0-.34.14-.76.4-1Z"/><path class="cls-2" d="M101.22,564.36c.52-.49,1.47-.61,1.98-.02,1.04,1.18,2.2,2.26,3.45,3.21.2.15.4.3.61.44.31.21.55.46.65.83.1.33.06.78-.13,1.08-.38.6-1.27.97-1.91.52-1.7-1.18-3.27-2.53-4.63-4.08-.25-.28-.42-.6-.42-.99,0-.34.14-.76.4-1Z"/><path class="cls-2" d="M96.12,566.22c.26-.25.61-.43.99-.42.34.01.77.12,1,.4l3.23,4.06c.24.3.42.58.42.99,0,.34-.14.76-.4,1-.26.25-.61.43-.99.42-.34-.01-.77-.12-1-.4l-3.23-4.06c-.24-.3-.42-.58-.42-.99,0-.34.14-.76.4-1Z"/><path class="cls-2" d="M90.47,567.61c.67-.36,1.53-.19,1.93.49.71,1.18,1.41,2.36,2.12,3.54.44.63.25,1.62-.44,2-.67.36-1.53.19-1.93-.49-.71-1.18-1.41-2.36-2.12-3.54-.44-.63-.25-1.62.44-2Z"/><path class="cls-2" d="M142.88,583.27c-.08.74-.17,1.5-.31,2.27-.13.68-.24,1.39-.4,2.12l-78.51.85s-.14-.8-.16-2.08c.02-.67.06-1.44.2-2.3l79.17-.85Z"/><path class="cls-3" d="M171.51,273.27c-6.22,56.77-32.85,287.55-32.85,287.55-13.83,4.96-24.12.26-24.12.26,0,0-8.76-215.26-4.13-287.81h61.1Z"/><path class="cls-7" d="M171.51,273.27c-6.22,56.77-15.89,180.54-24.77,265.62-9.23.91-29.53,1.36-38.78.69-3.02-86.79-1.78-220.17,2.45-266.31h61.1Z"/><path class="cls-1" d="M180.77,582.75l.07.51c.07.76.15,1.5.29,2.29.15.66.27,1.37.4,2.11l78.53.85s.13-.81.15-2.08c-.02-.65-.06-1.42-.19-2.31-.03-.16-.04-.34-.1-.51-.81-4.43-3.96-10.57-14.67-12.64-.51-.13-1.06-.2-1.65-.28h-.05c-.84-.13-1.68-.22-2.58-.31-.3-.02-.59-.05-.89-.07-21.46-1.91-30.89-9.22-30.89-9.22,0,0-12.48,2.36-24.13-.26,0,0-1.39,2.26-2.65,6.2-.19.67-.4,1.38-.6,2.14-.05.14-.08.3-.13.47-.08.29-.15.64-.21.98-.02.09-.05.22-.05.31,0,.08-.05.11-.05.17-.33,1.62-.58,3.39-.7,5.3-.11,1.99-.12,4.12.1,6.37Z"/><path class="cls-2" d="M216.97,561.8c-.26-.25-.61-.43-.99-.42-.4.01-.69.16-1,.4-.22.17-.44.34-.66.5-1.04.79-2.11,1.55-3.18,2.29-.31.21-.55.46-.65.83-.1.33-.06.78.13,1.08.38.6,1.27.97,1.91.52,1.5-1.03,2.97-2.11,4.41-3.22.26-.21.42-.67.42-.99,0-.34-.14-.76-.4-1Z"/><path class="cls-2" d="M222.5,564.36c-.52-.49-1.47-.61-1.98-.02-1.04,1.18-2.2,2.26-3.45,3.21-.2.15-.4.3-.61.44-.31.21-.55.46-.65.83-.1.33-.06.78.13,1.08.38.6,1.27.97,1.91.52,1.7-1.18,3.27-2.53,4.63-4.08.25-.28.42-.6.42-.99,0-.34-.14-.76-.4-1Z"/><path class="cls-2" d="M227.59,566.22c-.26-.25-.61-.43-.99-.42-.34.01-.77.12-1,.4l-3.23,4.06c-.24.3-.42.58-.42.99,0,.34.14.76.4,1,.26.25.61.43.99.42.34-.01.77-.12,1-.4l3.23-4.06c.24-.3.42-.58.42-.99,0-.34-.14-.76-.4-1Z"/><path class="cls-2" d="M233.25,567.61c-.67-.36-1.53-.19-1.93.49-.71,1.18-1.41,2.36-2.12,3.54-.44.63-.25,1.62.44,2,.67.36,1.53.19,1.93-.49.71-1.18,1.41-2.36,2.12-3.54.44-.63.25-1.62-.44-2Z"/><path class="cls-2" d="M180.83,583.27c.08.74.17,1.5.31,2.27.13.68.24,1.39.4,2.12l78.51.85s.14-.8.16-2.08c-.02-.67-.06-1.44-.2-2.3l-79.17-.85Z"/><path class="cls-3" d="M211.44,538.19c-1.37,14.35-2.25,22.89-2.25,22.89,0,0-10.3,4.7-24.12-.26,0,0-.56-8.26-1.52-22.07-3.9-57.01-10.95-208.71-17.19-265.48h61.1c4.64,72.11-10.88,210.42-16.01,264.92Z"/><path class="cls-7" d="M215.76,537.78c-1.79.2-4,.39-6.49.57-.3.03-.6.05-.91.06-1.55.11-3.19.22-4.89.31-.3.02-.6.04-.91.05-9.38.51-20.18.76-26.17.34-1.11-60.84-4.9-209.29-11.14-266.06l62.21.2c4.64,72.12-6.57,210.02-11.7,264.52Z"/><path class="cls-1" d="M203.84,103.13l-23.51-5.88-22.33.2-22.52,7.48-26.62,169.27c23.44,13.09,118.69,5.23,120.86.81l-25.89-171.87Z"/><path class="cls-2" d="M155.09,98.42l-11.8,87.65c-2.06,15.31-3.5,30.69-4.31,46.11l-10.91,206.42s-31.8,1.1-47.47,0l54.89-333.67,19.6-6.51Z"/><path class="cls-5" d="M132.01,131.32c-1.92,11.1-3.85,22.21-5.77,33.31-1.92,11.1-3.85,22.21-5.77,33.31-1.08,6.23-2.16,12.45-3.23,18.68-.09.49.67.7.75.21,1.92-11.1,3.85-22.21,5.77-33.31,1.92-11.1,3.85-22.21,5.77-33.31,1.08-6.23,2.16-12.45,3.23-18.68.09-.49-.67-.7-.75-.21Z"/><path class="cls-2" d="M183.61,98.07l-7.21,88.24c-1.48,18.05-1.93,36.17-1.36,54.27l6.31,200.22s43.99,1.99,76.88,0l-54.38-337.67-20.23-5.06Z"/><path class="cls-4" d="M187.06,68.46c8.55-6.47,14.31-16.5,15.59-27.14.32-2.66.36-5.42-.56-7.93-.92-2.51-2.96-4.74-5.58-5.28.39-7.37-3.61-14.52-9.33-19.17-5.73-4.65-12.99-7.06-20.28-8.21-5.84-.93-11.88-1.1-17.61.36-5.73,1.47-11.14,4.69-14.49,9.56-3.35,4.87-4.39,11.47-1.95,16.86-2.38,5.19-3.47,10.93-2.35,16.53,1.12,5.6,4.05,10.82,8.24,14.69,5.98,5.52,15.39,5.81,23.29,7.74,7.9,1.93,16.95,2.92,25.03,2Z"/><path class="cls-3" d="M188.69,62.91s-8.32,16.94-8.72,39.61c-4.8,10.23-18.66,8.58-22-.66.25-8.62-1.23-12.67-3.94-15.66-.23-.25-.45-.47-.68-.71-.16-.17-.32-.32-.5-.48-.32-.3-.69-.58-1.04-.88-.5-.4-1.02-.79-1.56-1.2h-.01c-2.13-1.59-4.62-3.28-7.39-5.78-4.04-3.62-7.03-8.57-8.18-16.29-.02-.09-.04-.18-.05-.29-.02-.11-.04-.23-.05-.34-.03-.21-.04-.39-.06-.59-.02-.09-.03-.18-.04-.26-.85-7.56-.09-17.63,2.95-31.53,3.16-14.41,38.3-19.57,47.71-1.03,3.87,7.65,3.58,36.09,3.58,36.09Z"/><path class="cls-4" d="M135.65,26.71c13.41,6.03,29.35,6.18,42.87.4-1.1,1.71-1.27,3.98-.43,5.84.84,1.85,2.65,3.23,4.66,3.54-1.75,4.06-2.17,8.68-1.17,12.98,1,4.3,3.41,8.27,6.77,11.14,1.91-7.44,3.87-15.16,3.67-22.83-.2-7.68-2.79-15.63-8.59-20.66-3.64-3.16-8.31-4.97-13.06-5.77-4.75-.8-9.62-.64-14.42-.22-4.02.35-8.13.92-11.67,2.87-4.57,2.52-8.09,7.51-8.63,12.71Z"/><path class="cls-8" d="M151.13,57.02c-.51-.26-1.04-.41-1.61-.45-.51-.03-1.06.04-1.48.34-.45.33-.68.84-.72,1.38-.04.52.13,1.04.32,1.51.1.26.35.47.65.38.25-.08.49-.37.38-.65-.14-.35-.3-.73-.29-1.11,0-.2.05-.4.17-.55,0,0-.01.02-.02.03.11-.17.31-.23.5-.26.01,0,.03,0,.05,0,.04,0,.08,0,.12,0,.11,0,.21,0,.32,0,.05,0,.11,0,.16.01.03,0,.03,0,.04,0,0,0,0,0,.03,0,.33.06.61.19.92.31.23.08.52.01.65-.21.13-.24.08-.59-.18-.73Z"/><path d="M139.41,43.7c2.78-1.51,6.16-1.65,9-.18.7.36,1.08,1.28.69,2-.51.94-1.42.94-2.28.55-.77-.35-1.59-.56-2.43-.63,0-.05.07.03.03.03-1.07-.06-2.14.16-3.11.6-.06.03-.12.05-.21.1-.69.36-1.61.34-2.07-.39-.39-.63-.35-1.69.38-2.08Z"/><path d="M157.47,43.82c2.95-1.15,6.32-.87,8.96.94.65.44.91,1.41.43,2.07-.46.65-1.38.91-2.07.43-.27-.18-.54-.34-.82-.5-.03-.01-.02-.01-.04-.02-.05-.02-.1-.05-.15-.07-.11-.05-.22-.09-.33-.13-.3-.11-.61-.21-.92-.28-.08-.02-.58-.17-.19-.05-.13-.04-.28-.04-.42-.06-.3-.03-.6-.05-.9-.05-.16,0-.32,0-.48.01-.02,0-.02,0-.04,0-.02,0-.05,0-.1.01-.3.04-.59.09-.88.16-.16.04-.31.08-.46.13-.06.02-.12.04-.18.06-.01,0,0,0-.02,0,0,0,0,0-.01,0,0,0,0,0-.01,0,0,0,0,0,0,0-.73.28-1.64.14-2-.64-.31-.67-.14-1.72.64-2.02Z"/><path class="cls-6" d="M156.51,64.28c-1.91,1.45-4.33,2.12-6.71,1.9-.66-.06-.71.96-.06,1.03,2.66.25,5.33-.55,7.45-2.16.53-.4-.16-1.16-.69-.77Z"/><path d="M163.31,53.98c.04,1.34-1,2.46-2.34,2.5-1.34.04-2.46-1-2.5-2.34-.04-1.34,1-2.46,2.34-2.5,1.34-.04,2.46,1,2.5,2.34Z"/><path class="cls-2" d="M160.72,53.29c.01.39-.29.72-.68.73-.39.01-.72-.29-.73-.68-.01-.39.29-.72.68-.73.39-.01.72.29.73.68Z"/><path d="M145.64,53.49c.04,1.34-1,2.46-2.34,2.5-1.34.04-2.46-1-2.5-2.34-.04-1.34,1-2.46,2.34-2.5,1.34-.04,2.46,1,2.5,2.34Z"/><path class="cls-2" d="M143.05,52.8c.01.39-.29.72-.68.73-.39.01-.72-.29-.73-.68-.01-.39.29-.72.68-.73.39-.01.72.29.73.68Z"/><path class="cls-3" d="M196.34,63.79c-3.11,3.48-7.87,4.31-10.63,1.84-2.76-2.47-2.49-7.29.62-10.77,3.11-3.48,7.87-4.31,10.63-1.84,2.76,2.47,2.49,7.29-.62,10.77Z"/><path class="cls-8" d="M194.94,54.71c-1.25-.71-2.95-.73-4.55-.05-.79.34-1.37.76-1.78,1.3-.53.71-.7,1.61-.44,2.36.23.67.75,1.12,1.2,1.51.33.28.64.55.81.87.26.48.17,1.15-.21,1.55-.38.4-1.04.51-1.54.26-.29-.15-.64-.03-.79.26-.14.29-.03.64.26.79.32.16.66.24,1.01.25.7.02,1.4-.24,1.89-.75.74-.76.9-1.99.4-2.92-.27-.5-.7-.87-1.07-1.2-.38-.33-.73-.64-.86-1.01-.13-.38-.02-.87.27-1.27.12-.16.28-.3.46-.44.58.01,1.3.21,1.66.63.4.47.58,1.13.46,1.73-.06.32.14.62.46.69.03,0,.06.01.1.01.28,0,.54-.19.59-.47.19-.96-.08-1.98-.72-2.72-.24-.28-.54-.47-.86-.63.98-.23,1.93-.15,2.66.26.9.51,1.56,1.78,1.05,2.79-.14.29-.03.64.26.79.29.14.64.03.79-.26.73-1.46.03-3.45-1.52-4.33Z"/><path class="cls-3" d="M193.54,255.31c-1.98-.29-3.33,1.92-6.61,1.72-3.28-.19-8.05-3.27-10.56-2.74-2.51.54-19.46,8.84-17.34,12.46,1.26,2.16,10.4-2.89,10.65-2.76.25.12-10.5,7.67-8.44,10.44,2.06,2.78,13.25-7.48,13.54-7.25.29.23-7.76,8.9-5.27,11,2.49,2.11,9.45-7.09,9.78-7,.34.09-3.37,9.03-1.36,10.14,2.01,1.11,7.02-9.62,7.52-9.48.5.14,4.41,3.48,8.41,3.64,4,.16,10.37-5.72,9.95-8.8-.42-3.09-7.7-11-10.28-11.38Z"/><path class="cls-2" d="M266.71,214.2c-3.86,4.33-57.42,58.07-57.42,58.07-13.46-2.54-21.86-18.04-21.86-18.04l51.44-53.81-27.05-44.34-7.98-52.95c29.81,7.78,58.01,71.1,61.55,77.67,6.42,11.9,10.28,23.34,1.31,33.39Z"/><path class="cls-5" d="M242.63,196.84c-.99.95-1.97,1.91-2.95,2.86-4.1-5.89-8.08-11.86-11.94-17.9-3.87-6.06-7.62-12.2-11.25-18.41-2.04-3.5-4.04-7.01-6.01-10.55-.24-.44-.92-.05-.68.39,3.49,6.29,7.1,12.51,10.84,18.66,3.73,6.15,7.59,12.22,11.57,18.21,2.24,3.37,4.51,6.72,6.83,10.04.03.04.06.06.09.09-6.28,6.1-12.48,12.29-18.6,18.56-7.2,7.39-14.28,14.91-21.24,22.53-3.92,4.3-7.8,8.63-11.64,13-.33.38.22.93.55.55,6.86-7.8,13.84-15.48,20.95-23.05,7.07-7.52,14.25-14.93,21.56-22.22,4.12-4.11,8.27-8.18,12.47-12.21.36-.35-.19-.9-.55-.55Z"/></g></svg>