<?xml version="1.0" encoding="UTF-8"?><svg xmlns="http://www.w3.org/2000/svg" viewBox="0 0 413.92 356.02"><defs><style>.cls-1,.cls-2,.cls-3,.cls-4,.cls-5,.cls-6,.cls-7{mix-blend-mode:multiply;}.cls-1,.cls-2,.cls-3,.cls-4,.cls-5,.cls-7{opacity:.3;}.cls-1,.cls-8{fill:#f6dd35;}.cls-2,.cls-9{fill:#c3bef1;}.cls-10,.cls-4{fill:#426ffb;}.cls-3,.cls-11{fill:#7caffb;}.cls-5,.cls-12{fill:#db1698;}.cls-13,.cls-6{fill:#c0dffe;}.cls-14{isolation:isolate;}.cls-6{opacity:.7;}.cls-15,.cls-7{fill:#4723b4;}.cls-16{fill:#271857;}</style></defs><g class="cls-14"><g id="Capa_2"><g id="OBJECTS"><path class="cls-12" d="M139.45,327.79c-8.92.22-17.91-4.66-23.17-12.02-6.32-8.85-7.73-20.56-5.58-31.22,1.04-5.15,2.98-10.32,6.77-13.96,3.79-3.64,9.75-5.37,14.47-3.07,5.97,2.9,8.21,10.89,14.31,13.51,7.78,3.35,17.04-3.95,24.95-.89,6,2.32,8.44,9.67,8.2,16.1-.33,9.75-5.19,19.25-12.91,25.23-7.55,5.84-17.68,8.21-27.04,6.32Z"/><path class="cls-9" d="M161.35,225.85c1.39,1.68.48,4.41-1.29,5.67-1.06.75-2.31,1.12-3.6,1.32-.87.14-1.76.19-2.63.24-8.32.43-16.67.52-25,.53-1.26,0-2.51,0-3.77,0v-.58c-.56-1.79-.82-3.67-.76-5.55,0-.46.05-.95.35-1.3.34-.4.92-.48,1.43-.54,10.19-1.15,20.45-1.57,30.7-1.26,1.66.05,3.52.22,4.58,1.48Z"/><path class="cls-9" d="M156.47,232.99c-.87,7.26-.6,14.65.82,21.82,13,3.98,23.18,15.46,26.45,28.65,3.27,13.19-.11,27.67-8.15,38.62-3.42,4.64-7.79,8.79-13.2,10.8-3.58,1.33-7.46,1.64-11.27,1.87-12.98.77-27.07.26-37.35-7.7-7.76-6.02-12.19-15.64-13.49-25.39-1.3-9.82.38-20.11,5.2-28.77,4.83-8.66,12.84-15.61,22.28-18.67.35-6.59.71-13.18,1.06-19.77v-.85c8.32,0,16.68-.1,25-.53.87-.05,1.76-.1,2.63-.24l.02.16ZM179.39,296.24c.23-6.43-2.2-13.78-8.2-16.1-7.91-3.05-17.17,4.24-24.95.89-6.09-2.62-8.33-10.61-14.31-13.51-4.73-2.3-10.68-.58-14.47,3.07-3.79,3.63-5.73,8.81-6.77,13.96-2.16,10.66-.75,22.37,5.58,31.22,5.26,7.37,14.25,12.25,23.17,12.02,9.36,1.89,19.49-.48,27.04-6.32,7.71-5.98,12.58-15.48,12.91-25.23Z"/><path class="cls-5" d="M172.18,280.6c3.85,11.36-1.29,23.32-10.02,31.11-12.28,10.96-29.4,11.48-44.42,5.93,5.37,6.31,13.56,10.36,21.7,10.16,9.36,1.89,19.49-.48,27.04-6.32,7.71-5.98,12.58-15.48,12.91-25.23.22-6.06-1.94-12.94-7.21-15.65Z"/><path class="cls-2" d="M149.74,231.92c-.41.38-.78.85-1.11,1.37,1.73-.06,3.46-.13,5.18-.22.87-.05,1.76-.1,2.63-.24,1.29-.2,2.54-.57,3.6-1.32,1.77-1.26,2.68-3.99,1.29-5.67-1.07-1.26-2.92-1.43-4.58-1.48-2.25-.07-4.51-.1-6.76-.09,2.6,2,1.85,5.69-.26,7.65Z"/><path class="cls-2" d="M183.74,283.46c-3.27-13.19-13.45-24.66-26.45-28.65-1.41-7.17-1.69-14.56-.82-21.82l-.02-.16c-.88.14-1.76.19-2.63.24-1.73.09-3.45.16-5.18.22-2.27,3.63-2.67,10.21-3.05,13.77-.51,4.86-1.12,10.02,2.99,13.4,7.9,6.48,18.17,7.64,22.76,17.98.32.71.6,1.43.84,2.15,5.27,2.71,7.43,9.58,7.21,15.65-.33,9.75-5.19,19.25-12.91,25.23-7.55,5.84-17.68,8.21-27.04,6.32-8.14.2-16.33-3.85-21.7-10.16-5.75-2.13-11.19-5.15-15.93-8.82,2.15,7.13,6.11,13.7,11.95,18.24,10.28,7.95,24.37,8.46,37.35,7.7,3.81-.22,7.69-.54,11.27-1.87,5.41-2,9.78-6.15,13.2-10.8,8.05-10.96,11.42-25.44,8.15-38.62Z"/><path class="cls-16" d="M124.72,234.13c3.22.58,6.7.3,9.96.3,3.44,0,6.87-.03,10.31-.1s6.58-.09,9.85-.33c2.47-.18,5.21-.67,6.87-2.69,1.35-1.65,1.87-4.17.5-5.96-1.6-2.09-4.58-1.94-6.93-1.99-6.78-.13-13.55,0-20.32.47-1.98.14-3.96.3-5.93.5-1.35.13-3.15.03-4.4.64-1.36.66-1.39,2.12-1.34,3.45.06,1.72.3,3.47,1.03,5.04.44.94,1.65.2,1.53-.65-.18-1.31-.5-2.59-.57-3.92-.03-.59-.21-1.59.22-2.01s1.47-.35,2.04-.41c2.79-.3,5.59-.55,8.4-.74,5.61-.38,11.23-.54,16.85-.49,1.32.01,2.65.04,3.97.09,1.09.04,2.35.07,3.3.7,2.08,1.37.46,4.16-1.19,5.04-2.14,1.14-4.9,1.01-7.26,1.14-2.78.15-5.56.26-8.34.34-3.11.09-6.22.14-9.33.18s-6.24-.2-9.23.33c-.53.09-.53.97,0,1.06h0Z"/><path class="cls-16" d="M128.21,234.28c-.89,6.59-1.07,13.3-1.48,19.94l.75-.98c-15.61,5.11-26.14,19.49-28.26,35.52-2.09,15.77,3.52,33.86,18.12,41.91,6.97,3.85,15.03,5.13,22.9,5.37,4.16.13,8.33-.02,12.48-.31s8.67-.95,12.59-2.96c7.14-3.66,12.4-10.73,15.81-17.82,3.55-7.38,5.35-15.66,4.86-23.85-.89-14.86-9.87-28.92-23.46-35.3-1.61-.76-3.27-1.4-4.97-1.92l.69.69c-1.4-7.06-1.8-14.41-1-21.56.11-1-1.44-.98-1.56,0-.91,7.41-.75,14.75.64,22.09.06.34.38.6.69.69,13.36,4.23,23.32,16.14,26.07,29.76,2.99,14.81-2.44,32.08-13.97,42.04-3.11,2.69-6.73,4.5-10.76,5.3-4,.8-8.18.91-12.25,1.01-7.54.2-15.25-.23-22.42-2.73s-13.04-7.23-16.93-13.71-5.81-14.36-5.84-22.02c-.07-15.64,7.89-30.83,22.03-38.09,1.64-.84,3.34-1.54,5.08-2.13.45-.15.73-.51.75-.98.31-6.57.85-13.2.67-19.78-.02-.67-1.13-.89-1.23-.17h0Z"/><path class="cls-16" d="M144.64,326.52c-6.66,1.27-13.82-.56-19.47-4.17-6.13-3.91-10.37-10-12.45-16.92-2.14-7.14-2.14-14.89-.4-22.12s5.63-14.23,13.31-15.4c3.34-.51,6.38.66,8.77,2.98,2.14,2.08,3.75,4.62,5.69,6.88s4.33,4.26,7.3,5.04c3.17.83,6.49.32,9.64-.38,6.02-1.34,13.24-3.74,17.78,2.03,4.07,5.17,3.84,12.73,2.23,18.76-1.86,6.94-6.05,13.34-11.85,17.61s-13.27,6.66-20.59,6.5c-1.85-.04-3.7-.14-5.54-.43-1-.15-1.46,1.27-.43,1.56,15.59,4.32,32.29-4.46,38.89-18.92,2.99-6.56,4.38-14.49,2.05-21.47-1.05-3.16-2.88-6.09-5.67-7.97-2.96-1.99-6.56-2.26-10-1.78-6.61.91-14.28,4.86-20.06-.38-4.91-4.45-7.54-11.65-14.9-12.62-8.02-1.06-14.49,5-17.41,11.91-3.13,7.42-3.8,16.08-2.51,23.98s4.78,15.14,10.67,20.34c5.41,4.78,12.72,7.88,20.02,7.13,1.78-.18,3.52-.56,5.21-1.13.63-.21.38-1.12-.27-.99h0Z"/><path class="cls-12" d="M133.5,123.26c3.79,1.44,8.1,3.77,8.47,7.79.34,3.58-2.92,6.71-6.42,7.5-3.5.8-7.14-.13-10.6-1.12-10.14-2.88-20.13-6.23-29.95-10.04l-.41-.15c.44-1.17.89-2.34,1.33-3.51,1.01-2.63,2.01-5.27,3.01-7.91l1.52-1.51c11.28,1.85,22.37,4.86,33.05,8.94Z"/><path class="cls-11" d="M82.8,115.47l-.18-.06c3.22-10.31-1.69-22.57-11.14-27.82-9.45-5.25-22.43-2.93-29.49,5.26-7.06,8.18-7.43,21.38-.85,29.95,5.5,7.14,15.26,10.68,24.05,8.73,8.12-1.8,15.02-8.19,17.6-16.07ZM68.38,81.57c13.29,4.06,22.53,18.35,21.17,32.13-.05.48-.11.97-.19,1.45-.66,2-1.43,3.97-2.32,5.87-1.54,3.3-3.48,6.41-5.94,9.1-8.91,9.76-24.75,12.32-36.28,5.85-12.69-7.12-18.45-24.41-12.66-37.74,5.79-13.34,22.32-20.91,36.22-16.67Z"/><path class="cls-13" d="M71.48,87.59c9.45,5.25,14.36,17.5,11.14,27.82l.18.06c-2.58,7.88-9.49,14.27-17.6,16.07-8.79,1.95-18.56-1.59-24.05-8.73-6.58-8.57-6.21-21.76.85-29.95,7.05-8.19,20.04-10.51,29.49-5.26Z"/><path class="cls-11" d="M98.68,116.09l.26-.26c-1,2.64-2,5.28-3.01,7.91l-.24-.09c-2.47-.68-4.95-1.37-7.43-2.06l-1.22-.56c.9-1.91,1.66-3.87,2.32-5.87.08-.49.14-.97.19-1.45l.58.07c2.96.24,5.87,1.04,8.54,2.32Z"/><path class="cls-5" d="M133.5,123.26c3.79,1.44,8.1,3.77,8.47,7.79.34,3.58-2.92,6.71-6.42,7.5-3.5.8-7.14-.13-10.6-1.12-10.14-2.88-20.13-6.23-29.95-10.04l-.41-.15c.44-1.17.89-2.34,1.33-3.51,1.01-2.63,2.01-5.27,3.01-7.91l1.52-1.51c11.28,1.85,22.37,4.86,33.05,8.94Z"/><path class="cls-3" d="M68.38,81.57c-9.18-2.8-19.5-.45-27.12,5.3,2.57-.21,5.04.08,7.37.78,7.01-3.67,15.88-3.92,22.85-.06,9.45,5.25,14.36,17.5,11.14,27.82l.18.06c-2.21,6.75-7.6,12.39-14.2,15.01-1.24,3.24-3.09,6.2-5.5,8.76,6.82-.91,13.36-4.03,18-9.12,2.46-2.69,4.39-5.8,5.94-9.1.9-1.91,1.66-3.87,2.32-5.87.08-.49.14-.97.19-1.45,1.36-13.78-7.87-28.07-21.17-32.13Z"/><path class="cls-6" d="M71.48,87.59c-6.96-3.86-15.83-3.61-22.85.06,10.14,3.05,17.78,13.74,20.52,23.51,1.94,6.9,1.65,13.56-.56,19.32,6.6-2.61,11.99-8.26,14.2-15.01l-.18-.06c3.22-10.31-1.69-22.57-11.14-27.82Z"/><path class="cls-3" d="M98.68,116.09l.26-.26c-1,2.64-2,5.28-3.01,7.91l-.24-.09c-2.47-.68-4.95-1.37-7.43-2.06l-1.22-.56c.9-1.91,1.66-3.87,2.32-5.87.08-.49.14-.97.19-1.45l.58.07c2.96.24,5.87,1.04,8.54,2.32Z"/><path class="cls-16" d="M82.65,113.08c-1,2.15-1.8,4.39-3.03,6.43s-2.65,3.75-4.34,5.3c-3.51,3.23-8.05,5.44-12.82,5.89-9.69.91-19.69-4.61-23.2-13.85-3.33-8.76-1.18-19.4,6.11-25.52,6.89-5.79,17.56-6.98,25.46-2.6,9.17,5.09,13.27,16.43,10.68,26.37-.38,1.47,1.76,2.03,2.25.62,3.34-9.67-.77-21.17-8.72-27.34s-19.79-6.35-28.4-1.09c-9.16,5.59-13.16,16.85-10.76,27.15s12.1,18.15,22.92,18.84c5.95.38,11.82-1.55,16.51-5.2,4.33-3.37,8.7-8.89,8.91-14.59.03-.79-1.19-1.17-1.54-.42h0Z"/><path class="cls-16" d="M88.72,114.01c-1.64,3.13-2.84,6.48-4.62,9.54-1.69,2.89-3.74,5.56-6.28,7.76-4.41,3.82-10.18,6.12-15.97,6.67s-11.83-.54-16.91-3.55-8.54-7.33-10.89-12.4c-4.83-10.43-3.34-23.04,4.86-31.32s20.61-11.4,31.27-7.14,18.21,15.83,18.3,27.36c.01,1.46-.09,2.91-.32,4.35s2.02,2.14,2.28.63c2.17-12.62-4.14-25.78-14.94-32.52s-24.93-5.2-34.91,2.31c-4.94,3.72-8.79,8.77-10.68,14.69-1.88,5.89-1.76,12.37-.02,18.28s5.05,11.31,9.7,15.29,10.95,6.48,17.32,6.91,13.09-1.13,18.65-4.43c6.25-3.71,10.56-9.6,13.38-16.21.77-1.8,1.3-3.53,1.59-5.46.16-1.02-1.24-1.84-1.81-.76h0Z"/><path class="cls-16" d="M95.01,128.15c1.11-2.17,1.98-4.45,2.87-6.71s1.92-4.53,2.64-6.86c.34-1.11-1.42-1.91-1.92-.81-1.01,2.21-1.76,4.59-2.59,6.87s-1.71,4.58-2.32,6.94c-.2.77.94,1.3,1.32.56h0Z"/><path class="cls-16" d="M94.61,128.07c3.39,1.77,6.97,3.05,10.57,4.34s7.05,2.43,10.6,3.55,7.31,2.31,11.02,3.25c3.22.81,6.68,1.32,9.92.32,2.76-.86,5.18-2.75,6.15-5.55.86-2.47.24-5.14-1.37-7.14-1.71-2.12-4.23-3.42-6.71-4.43-3.25-1.33-6.6-2.44-9.94-3.48-3.94-1.24-7.92-2.33-11.94-3.27s-8.26-1.97-12.44-2.42c-1.21-.13-1.46,1.85-.29,2.12,3.25.74,6.55,1.25,9.8,1.99s6.48,1.6,9.67,2.54,6.37,1.98,9.51,3.1c2.64.94,5.35,1.84,7.76,3.3,1.93,1.17,3.8,2.88,3.83,5.31.03,2.74-2.22,4.76-4.67,5.54-3.12.98-6.41.31-9.48-.51-3.25-.87-6.48-1.85-9.69-2.85-3.56-1.11-7.1-2.27-10.62-3.48s-7.29-2.66-11.05-3.65c-.84-.22-1.41,1.01-.61,1.44h0Z"/><path class="cls-16" d="M98.91,115.69c-2.7-1.59-5.68-2.36-8.78-2.65-.91-.08-.91,1.35,0,1.43,2.88.25,5.72,1.06,8.42,2.07.5.19.8-.59.36-.85h0Z"/><path class="cls-16" d="M95.85,123.38c-.57-.26-1.12-.58-1.71-.82-.62-.25-1.25-.47-1.89-.68s-1.23-.37-1.85-.55-1.28-.41-1.93-.54c-1.05-.21-1.44,1.23-.44,1.59.6.22,1.24.35,1.86.51s1.29.35,1.94.5,1.26.28,1.9.38,1.31.11,1.96.19c.31.03.44-.46.16-.59h0Z"/><path class="cls-16" d="M309.61,299.04c.89-1.17,1-2.83.8-4.25s-.85-2.72-1.86-3.73c-.4-.4-1.08-.4-1.48,0s-.4,1.08,0,1.48c.1.11.2.21.29.32.01.01.13.17.07.08-.07-.1.07.11.09.13.15.23.29.47.41.72.04.07.07.15.1.22-.04-.1-.03-.07,0,.02.05.14.1.27.14.41.09.28.14.57.19.85.03.16,0-.16,0,0,0,.06.01.13.02.19.01.15.02.29.02.44s0,.29-.02.44c0,.06-.01.13-.02.19-.01.12.03-.14,0,.06-.11.57-.29,1.13-.47,1.67-.15.44.14.95.55,1.11.47.19.89,0,1.18-.39h0Z"/><path class="cls-8" d="M307.78,298.34c-27.02.53-54.06.74-81.1.65-.41,0-.82,0-1.23,0v-.42c-1.82-.81-1.59-3.73-.04-4.99.51-.42,1.09-.7,1.72-.9,1.26-.39,2.66-.42,3.99-.43,1.78,0,3.56-.01,5.33-.02,20.94-.08,41.9-.16,62.84-.24,2.59,0,5.18-.02,7.77-.03l.39-.28c.06.09.11.16.17.25l.46.19c1.48,1.74,1.79,4.42.69,6.45l-.87.15-.15-.37Z"/><path class="cls-8" d="M307.46,291.67l-.39.28c-2.59,0-5.18.02-7.77.03v-1.14c-3.52-7.05-7.04-14.1-10.56-21.15-.55-1.11-1.29-2.36-2.53-2.49-1.37-.16-2.4,1.14-3.48,1.98-1.08.86-3.18.95-3.37-.41-.08-.59.28-1.14.63-1.62,1.82-2.57,4.46-5.46,7.52-4.68,1.52.39,2.66,1.64,3.65,2.87,6.42,8.09,10.23,17.97,16.32,26.31Z"/><path class="cls-13" d="M307.78,298.34l.15.37c.25,9.71.08,20.57-6.72,27.51-3.88,3.95-9.63,5.98-15.14,5.32-5.5-.67-10.62-3.99-13.45-8.75-.98-1.64-1.71-3.46-3-4.86s-3.38-2.33-5.13-1.56c-1.59.7-2.34,2.5-3.1,4.07-2.39,4.91-6.51,9.05-11.62,10.98-5.1,1.93-11.16,1.46-15.64-1.65-4.48-3.11-6.98-8.47-7.83-13.85-.85-5.39-.24-10.88.37-16.3v-.61c27.03.09,54.08-.12,81.1-.65Z"/><path class="cls-8" d="M226.88,291.93c6.23-5.77,11.8-12.27,16.55-19.3,1.51-2.23,2.95-4.54,4.92-6.38,1.97-1.83,4.57-3.17,7.25-2.99,1.99.15,3.83,1.1,5.5,2.18.45.3.92.63,1.12,1.13.53,1.28-1.03,2.54-2.42,2.54-1.38,0-2.69-.69-4.08-.73-2.48-.07-4.52,1.88-6.13,3.78-5.08,5.98-9.12,12.76-13.14,19.5v.56c-1.78,0-3.55.01-5.33.02-1.33,0-2.73.03-3.99.43l-.25-.74Z"/><path class="cls-1" d="M308.1,292.11l-.46-.19c-.06-.08-.12-.16-.17-.25l-.39.28c-2.59,0-5.18.02-7.77.03-20.94.08-41.9.16-62.84.24-1.78,0-3.56.01-5.33.02-1.33,0-2.73.03-3.99.43-.62.2-1.2.48-1.72.9-1.55,1.26-1.78,4.18.03,4.99v.08c4.02-.72,8-.26,11.97.36,7.96,0,15.92-.02,23.88-.07,2.06-.09,4.11-.18,6.16-.29,4.1-.22,8.51-.42,12.74.12,9.19-.11,18.38-.24,27.57-.42l.15.37.87-.15c1.1-2.03.79-4.71-.69-6.45Z"/><path class="cls-1" d="M307.46,291.67l-.39.28c-2.59,0-5.18.02-7.77.03v-1.14c-3.52-7.05-7.04-14.1-10.56-21.15-.55-1.11-1.29-2.36-2.53-2.49-1.37-.16-2.4,1.14-3.48,1.98-1.08.86-3.18.95-3.37-.41-.08-.59.28-1.14.63-1.62,1.82-2.57,4.46-5.46,7.52-4.68,1.52.39,2.66,1.64,3.65,2.87,6.42,8.09,10.23,17.97,16.32,26.31Z"/><path class="cls-6" d="M237.42,298.99c1.98.31,3.96.64,5.95.89.11,0,.23-.02.34-.03,5.84-.47,11.72-.67,17.59-.93-7.96.05-15.92.07-23.88.07Z"/><path class="cls-6" d="M307.78,298.34c-9.19.18-18.38.31-27.57.42,2.94.38,5.8,1.12,8.4,2.47,3.79,1.97,7.55,5.96,6.02,10.59-4.18,12.64-25.27.48-33.21.28-8.56-.21-12.19,7.27-17.99,12.02-3.62,2.97-7.45,4.27-11.34,3.9.64.63,1.32,1.21,2.06,1.73,4.48,3.11,10.55,3.58,15.64,1.65,5.11-1.92,9.23-6.07,11.62-10.98.76-1.57,1.51-3.37,3.1-4.07,1.75-.77,3.84.15,5.13,1.56,1.29,1.41,2.01,3.22,3,4.86,2.83,4.76,7.94,8.08,13.45,8.75,5.5.67,11.26-1.36,15.14-5.32,6.8-6.94,6.97-17.8,6.72-27.51l-.15-.37Z"/><path class="cls-1" d="M226.88,291.93c6.23-5.77,11.8-12.27,16.55-19.3,1.51-2.23,2.95-4.54,4.92-6.38,1.97-1.83,4.57-3.17,7.25-2.99,1.99.15,3.83,1.1,5.5,2.18.45.3.92.63,1.12,1.13.53,1.28-1.03,2.54-2.42,2.54-1.38,0-2.69-.69-4.08-.73-2.48-.07-4.52,1.88-6.13,3.78-5.08,5.98-9.12,12.76-13.14,19.5v.56c-1.78,0-3.55.01-5.33.02-1.33,0-2.73.03-3.99.43l-.25-.74Z"/><path class="cls-16" d="M225.12,299.66c5.35.48,10.82.23,16.18.23s10.79.04,16.18.08c10.7.07,21.41-.09,32.12-.24,6.06-.08,12.12-.17,18.17-.32,1.38-.03,1.39-2.18,0-2.16-21.49.33-42.99.82-64.48.86-6.03.01-12.17-.31-18.18.17-.88.07-.88,1.29,0,1.37h0Z"/><path class="cls-16" d="M225.85,297.89c-.86-.47-1.01-1.41-.77-2.29.31-1.15,1.25-1.8,2.34-2.13,2.39-.73,5.23-.36,7.7-.35,5.83.01,11.66.06,17.49.09,11.58.06,23.15.08,34.73.03,3.25-.01,6.5-.03,9.74-.04s6.68.1,9.99-.09c1.48-.08,1.49-2.23,0-2.31-3.32-.16-6.67-.02-9.99-.01s-6.33.02-9.49.03c-6.5.02-12.99.07-19.49.12s-12.83.14-19.24.23-12.6-.02-18.87.24c-2.3.1-5.03.61-6.15,2.89-.84,1.71-.59,4.01,1.22,4.95.89.46,1.67-.86.79-1.35h0Z"/><path class="cls-16" d="M227.24,292.53c4.56-3.52,8.5-7.64,12.09-12.14,1.74-2.18,3.4-4.43,4.98-6.73s2.96-4.61,4.98-6.48,4.76-3.23,7.48-2.57c1.34.33,2.66.97,3.81,1.73.56.37,1.1.73.53,1.37s-1.52.59-2.31.43c-1.16-.24-2.27-.66-3.46-.61s-2.3.51-3.27,1.15c-2.19,1.44-3.81,3.7-5.39,5.74-4.08,5.28-7.66,11.01-10.96,16.8-.55.97.9,1.81,1.49.87,3.55-5.69,6.84-11.52,10.96-16.83,1.68-2.16,3.77-5.36,6.64-5.96,2.61-.55,5.19,1.82,7.53-.39.71-.68,1.11-1.63.82-2.61-.35-1.16-1.63-1.88-2.6-2.48-2.43-1.48-5.24-2.22-8.05-1.48-5.95,1.57-8.92,7.97-12.23,12.56-4.21,5.84-9.09,11.16-13.88,16.53-.49.55.18,1.61.84,1.1h0Z"/><path class="cls-16" d="M308.09,291.79c-1.06-2.69-2.87-5.16-4.31-7.68-1.51-2.65-2.95-5.34-4.43-8s-3.01-5.28-4.72-7.8c-1.48-2.19-3.15-5-5.52-6.32-2.22-1.25-4.66-.68-6.6.81-1.01.77-1.86,1.7-2.63,2.7-.72.93-1.67,2-1.58,3.27.16,2.12,2.67,2.4,4.24,1.69,1.02-.46,1.65-1.42,2.6-1.98,1.57-.91,2.36,1,2.94,2.15,3.46,6.9,6.89,13.81,10.33,20.72.58,1.17,2.35.14,1.76-1.03-2.75-5.5-5.51-11.01-8.26-16.52-.62-1.25-1.25-2.5-1.87-3.74-.54-1.07-1.05-2.24-1.96-3.05-1.71-1.52-3.61-.64-5.12.65-.43.37-1.64,1.57-2.36,1.09-.58-.39,1.15-2.2,1.52-2.62,1.55-1.77,3.88-3.67,6.23-2.08,2.06,1.4,3.55,4.03,4.9,6.07,1.52,2.29,2.91,4.67,4.27,7.06,1.5,2.65,2.96,5.33,4.52,7.95,1.46,2.44,3.01,5.31,5.25,7.13.33.27,1,.03.8-.47h0Z"/><path class="cls-16" d="M225.78,299.36c-1.83,9.81-2.09,22.35,5.8,29.78,7.32,6.89,18.76,5.43,25.72-1.15,1.73-1.63,3.22-3.56,4.4-5.62.93-1.63,1.74-4.9,3.98-5.1,2.63-.23,4.12,2.76,5.14,4.68,1.14,2.14,2.49,4.11,4.29,5.77,7.22,6.64,18.39,6.89,25.88.52,8.18-6.97,8.91-19.57,8.09-29.52-.12-1.46-2.25-1.5-2.3,0-.27,8.61.42,18.4-5.48,25.47-6.07,7.28-17.21,8.24-24.34,1.95-1.74-1.53-3.02-3.34-4.11-5.37-1.02-1.9-2.11-3.86-4.03-4.98-1.74-1.02-3.93-1.22-5.62.02s-2.34,3.29-3.31,5.06c-4.41,8.06-14.42,13.42-23.28,9.02-4.65-2.3-7.44-6.95-8.7-11.85-1.56-6.1-.53-12.25-.29-18.43.04-1.03-1.63-1.29-1.83-.25h0Z"/><path class="cls-10" d="M66.64,320.38c.32,1.08.63,2.25.22,3.3-.72,1.83-3.12,2.18-5.09,2.24-8.6.27-17.2.55-25.81.83-4.88.16-9.8.31-14.62-.5-.77-.12-1.59-.3-2.15-.85-1.13-1.11-.65-2.99-.09-4.47,4.08-10.78,8.16-21.57,12.23-32.35l.43.12c2.76-.37,5.34,1.59,8.13,1.67,4.38.11,8.33-4.41,12.51-3.09,2.71.86,4.08,3.8,5.11,6.45,3.4,8.76,6.45,17.66,9.14,26.66Z"/><path class="cls-9" d="M32.72,250.95c-1.02-.01-2.03-.03-3.06-.04h-.11c-1.97-1.84-2.2-5.23-.5-7.33l.61-.16c8.36.02,16.73.04,25.09.06l.39.34c1.64,2.11,1.68,5.33.08,7.48l-.47-.02c-.65,0-1.29-.02-1.94-.03-6.7-.09-13.4-.19-20.1-.29Z"/><path class="cls-9" d="M39.88,290.35c-2.79-.07-5.36-2.04-8.13-1.67l-.43-.12c-4.08,10.78-8.15,21.57-12.23,32.35-.55,1.48-1.04,3.36.09,4.47.56.55,1.38.73,2.15.85,4.82.82,9.74.66,14.62.5,8.61-.28,17.21-.55,25.81-.83,1.97-.06,4.37-.41,5.09-2.24.42-1.05.1-2.22-.22-3.3-2.69-9-5.74-17.9-9.14-26.66-1.03-2.65-2.4-5.59-5.11-6.45-4.18-1.32-8.13,3.2-12.51,3.09ZM52.82,273.27c7.47,18.87,14.95,37.74,22.42,56.61l-.65.39c-21.58.73-43.18.83-64.77.32v-.52c8.11-18.69,15.59-37.66,22.45-56.86l-.26-.09c.52-7.38.75-14.77.7-22.16,6.7.1,13.4.2,20.1.29v22.03Z"/><path class="cls-4" d="M66.64,320.38c-2.69-9-5.74-17.9-9.14-26.66-1.03-2.65-2.4-5.59-5.11-6.45-.7-.22-1.39-.27-2.07-.21.46,1.49.93,2.99,1.38,4.48,2.22,7.32,6.4,14.7,6.76,22.45.29,6.28-4.72,8.02-10.05,8.78-7.24,1.05-14.68.8-21.95.27-2.52-.18-5.18-.33-7.82-.61-.24,1.1-.22,2.22.55,2.97.56.55,1.38.73,2.15.85,4.82.82,9.74.66,14.62.5,8.61-.28,17.21-.55,25.81-.83,1.97-.06,4.37-.41,5.09-2.24.42-1.05.1-2.22-.22-3.3Z"/><path class="cls-2" d="M49.6,245.61c.94,2.86-1.07,4.61-3.42,5.49,0,.02,0,.03,0,.05,2.21.03,4.42.07,6.64.1.65.01,1.29.02,1.94.03l.47.02c1.6-2.15,1.56-5.37-.08-7.48l-.39-.34c-2.18,0-4.35-.01-6.53-.02.62.62,1.11,1.34,1.38,2.15Z"/><path class="cls-2" d="M52.82,273.27v-22.03c-2.21-.03-4.42-.06-6.64-.1-.79,6.45-.84,13.11.07,19.53.78,5.58,2.41,10.99,4.07,16.37.69-.06,1.38,0,2.07.21,2.71.86,4.08,3.8,5.11,6.45,3.4,8.76,6.45,17.66,9.14,26.66.32,1.08.63,2.25.22,3.3-.72,1.83-3.12,2.18-5.09,2.24-8.6.27-17.2.55-25.81.83-4.88.16-9.8.31-14.62-.5-.77-.12-1.59-.3-2.15-.85-.77-.76-.79-1.87-.55-2.97-1.76-.19-3.51-.44-5.21-.8-1.19,2.83-2.4,5.65-3.62,8.46v.52c21.6.52,43.2.41,64.78-.32l.65-.39c-7.47-18.87-14.95-37.74-22.42-56.61Z"/><path class="cls-16" d="M29.52,251.43c1,.33,2.06.25,3.09.29s1.97.12,2.95.17c2.21.11,4.43.16,6.64.21s4.26.08,6.39.13l3.2.08c1.04.03,2.21.22,3.19-.16.88-.34.84-1.4,0-1.75-.97-.41-2.16-.24-3.19-.25h-2.95c-2.21-.02-4.43-.04-6.64-.06s-4.26-.03-6.39,0c-1.07.02-2.13.09-3.2.09s-2.09-.1-3.09.2c-.52.15-.5.88,0,1.04h0Z"/><path class="cls-16" d="M30.17,251.09c.21-.54-.09-.91-.38-1.32-.19-.27-.35-.56-.5-.85l-.04-.09c.03.06.03.06,0,0-.03-.08-.06-.15-.08-.23-.05-.16-.1-.32-.14-.48s-.07-.32-.1-.49c.02.14,0-.03,0-.08,0-.08-.01-.17-.02-.25-.02-.33,0-.67.04-.99-.01.11,0,.04,0-.03.02-.1.04-.19.06-.29.03-.14.07-.29.12-.43.02-.08.05-.16.08-.23,0,0,.1-.24.06-.16-.04.1.06-.13.07-.15.04-.07.07-.15.12-.22.22-.39.53-.73.5-1.21-.04-.63-.54-.97-1.14-.87-.84.14-1.32,1.41-1.57,2.11s-.35,1.51-.33,2.27c.05,1.53.6,3.22,1.77,4.26.23.2.58.36.89.24.28-.11.47-.2.58-.5h0Z"/><path class="cls-16" d="M29.46,244.17c1.92.48,4.13.24,6.11.25,2.13.02,4.26.02,6.39.03s4.26,0,6.39.03,4.31.27,6.39.03c1.32-.15,1.32-1.89,0-2.05-2.08-.25-4.3-.02-6.39,0s-4.26,0-6.39,0-4.26,0-6.39,0c-1.97,0-4.19-.24-6.11.22-.74.18-.73,1.31,0,1.49h0Z"/><path class="cls-16" d="M55.64,252c.77-.38,1.2-1.3,1.47-2.07s.38-1.55.38-2.34c.01-1.64-.51-3.3-1.58-4.56-.8-.95-2.44.3-1.73,1.33.18.26.35.51.5.79.08.14.15.29.22.44-.05-.11,0-.02.01.04.03.09.06.17.09.26.1.3.18.6.23.9.01.07.03.14.04.22-.03-.19,0,.05,0,.09.01.16.02.33.03.49,0,.15,0,.29,0,.44,0,.09-.01.18-.02.27,0,.02-.03.23-.01.13s-.02.11-.02.13c-.02.09-.03.18-.05.27-.03.14-.07.28-.11.42-.05.16-.1.31-.16.47-.02.07-.05.14-.07.21-.01.04-.09.23-.04.11-.08.18-.16.36-.23.54-.03.08-.07.16-.1.25-.01.04-.06.35-.05.26-.11.71.52,1.26,1.21.93h0Z"/><path class="cls-16" d="M32.36,250.43c-.59.6-.55,1.32-.58,2.12-.05,1.02-.06,2.04-.09,3.07-.05,2.04-.08,4.09-.15,6.13s-.15,4.09-.26,6.13c-.05,1.02-.11,2.04-.18,3.06-.06.9-.28,1.79.24,2.58.26.4.88.56,1.23.16.61-.69.57-1.41.63-2.3.07-1.02.12-2.04.18-3.06.11-2.11.2-4.23.26-6.34s.12-4.09.11-6.13c0-1.02,0-2.04-.05-3.07-.04-.86.04-1.7-.61-2.34-.2-.19-.53-.2-.73,0h0Z"/><path class="cls-16" d="M52.2,251.18c-.41,1.73-.39,3.59-.43,5.36-.04,1.87-.07,3.75-.09,5.62-.04,3.75-.06,7.5-.07,11.24,0,1.54,2.39,1.54,2.39,0,0-3.75-.03-7.5-.07-11.24-.02-1.87-.05-3.75-.09-5.62-.04-1.76-.02-3.63-.43-5.36-.14-.61-1.09-.61-1.23,0h0Z"/><path class="cls-16" d="M9.68,331.1c4.01.72,8.28.5,12.35.7,4.31.21,8.64.25,12.96.29,8.47.08,16.94.04,25.41-.13,2.41-.05,4.82-.11,7.22-.17s4.91.05,7.3-.34c1.44-.23.94-2.27-.32-2.38-2.04-.19-4.18.05-6.23.11-2.16.06-4.32.12-6.48.17-4.15.09-8.3.18-12.46.25-8.39.13-16.78.19-25.17.23-2.41,0-4.82.08-7.23.09s-4.84-.15-7.22.16c-.53.07-.79.92-.14,1.04h0Z"/><path class="cls-16" d="M10.63,330.55c2.33-4.51,4.14-9.37,6.09-14.05s3.89-9.43,5.77-14.17c3.8-9.55,7.35-19.19,10.81-28.87.46-1.29-1.59-1.84-2.05-.56-3.43,9.6-7.07,19.14-10.8,28.62-1.83,4.67-3.71,9.32-5.61,13.96s-4.22,9.48-5.95,14.34c-.36,1.01,1.24,1.68,1.73.73h0Z"/><path class="cls-16" d="M52.01,273.36c1.22,4.94,3.43,9.67,5.29,14.4s3.76,9.54,5.64,14.31c3.73,9.47,7.31,19.03,11.29,28.41.51,1.2,2.59.34,2.13-.9-3.54-9.61-7.51-19.09-11.3-28.6-1.9-4.76-3.79-9.53-5.69-14.29s-3.47-9.55-5.93-13.92c-.44-.79-1.65-.25-1.44.61h0Z"/><path class="cls-16" d="M30.82,288.28c-2.4,5.21-4.4,10.62-6.47,15.97s-4.18,10.75-6.21,16.15c-.64,1.71-1.26,3.93.06,5.5,1.53,1.81,4.85,1.72,7.01,1.89,5.71.44,11.49.03,17.2-.15s11.58-.37,17.37-.56c2.06-.07,4.38.05,6.25-.98s2.35-2.84,1.96-4.77c-.56-2.8-1.98-5.39-2.84-8.11s-1.73-5.4-2.59-8.1-1.87-5.35-2.78-8.03c-.78-2.29-1.44-4.69-2.56-6.84-1-1.91-2.56-3.61-4.68-4.23s-4.35.07-6.34.93c-2.11.91-4.35,2.3-6.73,2.19-2.65-.12-5.02-1.68-7.73-1.4-1.19.12-1.22,2,0,1.89,2.27-.2,4.14,1.01,6.25,1.6,1.82.51,3.66.39,5.43-.25,3.02-1.09,7.01-4.3,10.08-1.7,1.35,1.15,2.18,2.94,2.86,4.54.98,2.31,1.95,4.61,2.83,6.96,1.79,4.79,3.57,9.57,5.11,14.45.37,1.18.52,2.36.79,3.56s.98,2.66.84,3.93c-.22,1.91-2.67,2.03-4.17,2.09-5.21.22-10.42.33-15.63.5s-10.37.43-15.55.46c-2.55.02-5.12-.06-7.65-.38-.91-.12-2.7-.14-3.2-1.07-.44-.81.01-2,.29-2.79,3.8-10.98,8.53-21.66,11.87-32.8.18-.61-.78-1.05-1.06-.45h0Z"/><path class="cls-15" d="M410.3,141.11c.08,6.2.16,12.38.24,18.58l-2.34.12c-73.95,3.1-147.98,2.71-221.99,2.31-17.4-.09-34.81-.18-52.23-.29-43.93-.22-87.86-.46-131.78-.7v-.84c-1.04-6.99-1.39-14.07-1-21.11h.5c136.21.64,272.4,1.26,408.6,1.93Z"/><path class="cls-7" d="M353.45,150.44c-28.59,2.07-57.09.87-85.72.32-31.73-.61-63.47-1.08-95.21-1.15-31.03-.07-61.91.33-92.88,2.37-26.14,1.72-52.24,3.16-78.29.43.19,2.64.45,5.27.85,7.89v.84c43.92.24,87.85.48,131.78.7,17.42.11,34.83.2,52.23.29,74.01.4,148.04.79,221.99-2.31l2.34-.12-.15-11.75c-18.96-.99-38.34,1.15-56.94,2.5Z"/><path class="cls-16" d="M2,161.57c13.23.26,26.44.84,39.68.96s26.45.21,39.68.28c26.38.13,52.76.27,79.15.42,52.87.29,105.74.72,158.61.12,29.71-.34,59.41-1.04,89.09-2.31,1.56-.07,1.57-2.5,0-2.44-52.9,2.14-105.85,2.6-158.78,2.52-52.78-.08-105.57-.47-158.35-.76-14.84-.08-29.69-.18-44.53-.19s-29.69.4-44.53.53c-.57,0-.57.87,0,.88h0Z"/><path class="cls-16" d="M1.69,139.86c13.43.64,26.94.49,40.38.58,13.42.1,26.85.19,40.27.26,26.5.14,53,.27,79.51.4,52.96.26,105.91.53,158.87.78,29.86.15,59.72.29,89.58.43,1.57,0,1.57-2.43,0-2.44-53.38-.24-106.77-.48-160.15-.72-52.96-.24-105.91-.49-158.87-.7-14.91-.06-29.82-.11-44.73-.15-14.93-.03-29.94-.38-44.86.2-.87.03-.87,1.31,0,1.35h0Z"/><path class="cls-16" d="M.95,138.98c-.08.32-.28.45-.43.73s-.25.86-.31,1.18c-.16.89-.17,1.85-.2,2.75-.05,1.88,0,3.76.07,5.64.15,3.74.36,7.62,1.12,11.29.23,1.14,2.16.9,2.05-.28-.34-3.68-.88-7.31-1.06-11.01-.09-1.81-.12-3.62-.12-5.43,0-.9.02-1.82-.05-2.71-.03-.36-.11-.68-.19-1.03-.07-.32-.35-.76-.39-1.06-.03-.26-.42-.37-.49-.07h0Z"/><path class="cls-16" d="M411.5,159.68c.1-3.15.03-6.3,0-9.45s.03-6.3-.11-9.45c-.06-1.4-2.15-1.41-2.18,0-.06,3.14.09,6.3.14,9.45s.06,6.3.24,9.45c.07,1.23,1.88,1.24,1.92,0h0Z"/><path class="cls-15" d="M412.68,333.47c.08,6.2.16,12.38.24,18.58l-2.34.12c-73.95,3.1-147.98,2.71-221.99,2.31-17.4-.09-34.81-.18-52.23-.29-43.93-.22-87.86-.46-131.78-.7v-.84c-1.04-6.99-1.39-14.07-1-21.11h.5c136.21.64,272.4,1.26,408.6,1.93Z"/><path class="cls-7" d="M355.82,342.81c-28.59,2.07-57.09.87-85.72.32-31.73-.61-63.47-1.08-95.21-1.15-31.03-.07-61.91.33-92.88,2.37-26.14,1.72-52.24,3.16-78.29.43.19,2.64.45,5.27.85,7.89v.84c43.92.24,87.85.48,131.78.7,17.42.11,34.83.2,52.23.29,74.01.4,148.04.79,221.99-2.31l2.34-.12-.15-11.75c-18.96-.99-38.34,1.15-56.94,2.5Z"/><path class="cls-16" d="M4.38,353.94c13.23.26,26.44.84,39.68.96,13.23.13,26.45.21,39.68.28,26.38.13,52.76.27,79.15.42,52.87.29,105.74.72,158.61.12,29.71-.34,59.41-1.04,89.09-2.31,1.56-.07,1.57-2.5,0-2.44-52.9,2.14-105.85,2.6-158.78,2.52-52.78-.08-105.57-.47-158.35-.76-14.84-.08-29.69-.18-44.53-.19-14.85-.02-29.69.4-44.53.53-.57,0-.57.87,0,.88h0Z"/><path class="cls-16" d="M4.07,332.23c13.43.64,26.94.49,40.38.58,13.42.1,26.85.19,40.27.26,26.5.14,53,.27,79.51.4,52.96.26,105.91.53,158.87.78,29.86.15,59.72.29,89.58.43,1.57,0,1.57-2.43,0-2.44-53.38-.24-106.77-.48-160.15-.72-52.96-.24-105.91-.49-158.87-.7-14.91-.06-29.82-.11-44.73-.15-14.93-.03-29.94-.38-44.86.2-.87.03-.87,1.31,0,1.35h0Z"/><path class="cls-16" d="M3.33,331.35c-.08.32-.28.45-.43.73s-.25.86-.31,1.18c-.16.89-.17,1.85-.2,2.75-.05,1.88,0,3.76.07,5.64.15,3.74.36,7.62,1.12,11.29.23,1.14,2.16.9,2.05-.28-.34-3.68-.88-7.31-1.06-11.01-.09-1.81-.12-3.62-.12-5.43,0-.9.02-1.82-.05-2.71-.03-.36-.11-.68-.19-1.03-.07-.32-.35-.76-.39-1.06-.03-.26-.42-.37-.49-.07h0Z"/><path class="cls-16" d="M413.87,352.05c.1-3.15.03-6.3,0-9.45s.03-6.3-.11-9.45c-.06-1.4-2.15-1.41-2.18,0-.06,3.14.09,6.3.14,9.45s.06,6.3.24,9.45c.07,1.23,1.88,1.24,1.92,0h0Z"/><path class="cls-15" d="M195.86,47.9c.21,28.31.42,56.62.63,84.93-1.95.13-3.89.26-5.83.39,0-28.44-.03-56.89-.04-85.33l.57-.41h4.64l.04.42Z"/><path class="cls-7" d="M194.51,132.97c.66-.04,1.32-.09,1.98-.13-.21-28.31-.42-56.62-.63-84.93l-.04-.42h-1.91c.05,28.49.58,56.99.6,85.48Z"/><path class="cls-16" d="M190.27,47.8c-.77,5.37-.58,10.9-.62,16.31s-.06,11.14-.06,16.72c0,11.14,0,22.29.01,33.43.01,6.32.02,12.64.03,18.96,0,.52.46,1.05,1.01,1.01,1.95-.13,3.89-.29,5.84-.45.51-.04.97-.41.96-.96-.4-22.06-.36-44.13-.51-66.19-.04-6.24-.08-12.49-.11-18.73,0-1.24-1.93-1.24-1.92,0,.22,22.06.37,44.13.52,66.19.04,6.24.13,12.49.11,18.73l.96-.96c-1.95.11-3.89.21-5.84.34l1.01,1.01c.02-22.29.12-44.58-.06-66.87-.05-6.15.22-12.46-.65-18.56-.05-.34-.63-.34-.68,0h0Z"/><path class="cls-16" d="M191.19,48.23c.77.07,1.54.05,2.31.06s1.55.02,2.31-.06c.39-.04.77-.32.75-.75s-.33-.71-.75-.75c-.77-.08-1.54-.07-2.31-.06s-1.55-.02-2.31.06c-.39.04-.77.32-.75.75s.33.71.75.75h0Z"/><path class="cls-15" d="M398.61,47.9c.21,28.31.42,56.62.63,84.93-1.95.13-3.89.26-5.83.39,0-28.44-.03-56.89-.04-85.33l.57-.41h4.64l.04.42Z"/><path class="cls-7" d="M397.26,132.97c.66-.04,1.32-.09,1.98-.13-.21-28.31-.42-56.62-.63-84.93l-.04-.42h-1.91c.05,28.49.58,56.99.6,85.48Z"/><path class="cls-16" d="M393.03,47.8c-.77,5.37-.58,10.9-.62,16.31s-.06,11.14-.06,16.72c0,11.14,0,22.29.01,33.43.01,6.32.02,12.64.03,18.96,0,.52.46,1.05,1.01,1.01,1.95-.13,3.89-.29,5.84-.45.51-.04.97-.41.96-.96-.4-22.06-.36-44.13-.51-66.19-.04-6.24-.08-12.49-.11-18.73,0-1.24-1.93-1.24-1.92,0,.22,22.06.37,44.13.52,66.19.04,6.24.13,12.49.11,18.73l.96-.96c-1.95.11-3.89.21-5.84.34l1.01,1.01c.02-22.29.12-44.58-.06-66.87-.05-6.15.22-12.46-.65-18.56-.05-.34-.63-.34-.68,0h0Z"/><path class="cls-16" d="M393.95,48.23c.77.07,1.54.05,2.31.06s1.55.02,2.31-.06c.39-.04.77-.32.75-.75s-.33-.71-.75-.75c-.77-.08-1.54-.07-2.31-.06s-1.55-.02-2.31.06c-.39.04-.77.32-.75.75s.33.71.75.75h0Z"/><path class="cls-9" d="M248.5,1.34c1.44,2.11,2.03,4.79,1.62,7.31l-.63.64c-1.21.22-2.42.41-3.64.56-7.94,1.02-16.02.75-24.05.48-1.72-.06-3.45-.11-5.17-.17-1.38-.05-2.75-.09-4.12-.14l-.25-.07c-1.45-2.62-1.3-6.04.36-8.52l.48-.46c11.59.13,23.19.26,34.79.38h.59Z"/><path class="cls-9" d="M241.99,27.98c-3.38,1.5-7.33,1.63-10.8.37-1.74-.64-3.37-1.61-5.2-1.86-1.83-.27-4.01.48-4.58,2.23l-.05.3c.76,21.62.65,43.27-.34,64.89-.19,4.29-.4,8.73,1.12,12.75,1.52,4.02,5.27,7.53,9.57,7.33,3.89-.17,7.13-3.34,8.59-6.95s1.5-7.61,1.52-11.5c.1-22.41.21-44.82.31-67.23l-.14-.32ZM245.85,9.84l.14,1.05c-.13,30.41-.26,60.81-.39,91.21-.02,5.19-.21,10.83-3.53,14.8-1.94,2.31-4.78,3.76-7.75,4.26-6.2,1.03-12.89-2.41-15.67-8.06-1.98-4.03-2.01-8.7-2.01-13.19,0-29.66-.02-59.31-.03-88.96l.03-.81c1.72.06,3.45.11,5.17.17,8.03.28,16.1.54,24.05-.48Z"/><path class="cls-11" d="M241.99,27.98l.14.32c-.1,22.41-.21,44.82-.31,67.23-.02,3.9-.06,7.89-1.52,11.5s-4.7,6.78-8.59,6.95c-4.29.2-8.05-3.32-9.57-7.33-1.52-4.02-1.31-8.46-1.12-12.75.99-21.61,1.1-43.26.34-64.89l.05-.3c.57-1.75,2.75-2.5,4.58-2.23,1.82.26,3.46,1.23,5.2,1.86,3.47,1.26,7.42,1.13,10.8-.37Z"/><path class="cls-2" d="M248.49,1.34h-.59c-2.99-.03-5.98-.07-8.97-.1.2.1.4.2.59.31,2.05,1.16,2.72,3.93,1.56,5.94-.66,1.14-1.31,2.11-2.01,2.93,2.27-.11,4.53-.29,6.77-.58,1.22-.15,2.43-.34,3.64-.56l.63-.64c.41-2.52-.18-5.2-1.62-7.31Z"/><path class="cls-2" d="M245.85,9.84c-2.25.29-4.51.46-6.77.58-1.01,1.2-2.12,2.08-3.51,2.66.01,5.38.06,10.75.12,16.12,2.15.06,4.32-.33,6.29-1.21l.14.32c-.1,22.41-.21,44.82-.31,67.23-.02,3.9-.06,7.89-1.52,11.5-1.46,3.61-4.7,6.78-8.59,6.95-2.88.13-5.51-1.4-7.39-3.64-2.38.09-4.79-.52-7.07-1.57.3,1.49.73,2.94,1.41,4.31,2.77,5.64,9.46,9.08,15.67,8.06,2.97-.49,5.81-1.95,7.75-4.26,3.33-3.97,3.52-9.61,3.53-14.8.13-30.4.26-60.8.39-91.21l-.14-1.05Z"/><path class="cls-3" d="M241.99,27.98c-1.97.88-4.14,1.27-6.29,1.21.21,18.95.69,37.89,1.21,56.84.2,7.39.4,17.27-6.28,22.13-1.98,1.44-4.13,2.11-6.31,2.19,1.88,2.24,4.51,3.77,7.39,3.64,3.89-.17,7.13-3.34,8.59-6.95,1.46-3.61,1.5-7.61,1.52-11.5.1-22.41.21-44.82.31-67.23l-.14-.32Z"/><path class="cls-16" d="M215.51,10.95c-.37,8.4-.19,16.83-.19,25.24,0,8.5,0,16.99,0,25.49s0,16.83,0,25.24c0,4.25,0,8.5,0,12.74,0,3.66,0,7.42,1.01,10.97,1.69,6.01,6.72,10.65,12.9,11.76s13.2-1.77,15.89-7.9c1.33-3.03,1.69-6.36,1.8-9.64.13-3.9.06-7.82.08-11.72.04-8.47.07-16.95.11-25.42.07-16.86.17-33.73.26-50.59.01-2.08.02-4.15.03-6.23,0-1.76-2.74-1.77-2.74,0-.05,16.12-.11,32.23-.16,48.35-.03,8.06-.07,16.12-.1,24.17-.02,4.07-.04,8.14-.05,12.21-.02,3.6.09,7.22-.15,10.82-.2,3.08-.75,6.29-2.54,8.87s-4.88,4.23-8,4.61c-5.89.72-12-2.85-14.2-8.37-1.3-3.28-1.42-6.86-1.45-10.34-.02-3.93,0-7.87,0-11.8,0-8-.01-15.99-.02-23.99,0-9-.02-17.99-.03-26.99,0-9.15.2-18.34-.21-27.49-.06-1.42-2.14-1.42-2.2,0h0Z"/><path class="cls-16" d="M212.3,10.76c1.5.3,3.09.24,4.61.3s3.1.12,4.65.18c3.17.12,6.34.24,9.51.28,6.26.08,12.52-.19,18.7-1.23,1.34-.23.78-2.3-.56-2.05-6.06,1.15-12.23,1.38-18.38,1.33-3.01-.02-6.01-.12-9.02-.21-1.47-.04-2.94-.09-4.4-.13-1.61-.05-3.3-.25-4.89-.04-.8.1-1.18,1.37-.21,1.57h0Z"/><path class="cls-16" d="M212.87,9.36c-.42-1.31-.7-2.69-.58-4.07.06-.66.23-1.32.46-1.95s.97-1.46.7-2.15c-.13-.35-.42-.63-.82-.62-1.01.03-1.46,1.32-1.76,2.12s-.46,1.63-.54,2.47c-.15,1.67.13,3.41,1.05,4.83.48.74,1.78.29,1.49-.63h0Z"/><path class="cls-16" d="M212.95,1.55c2.65.68,5.65.37,8.37.41,2.98.04,5.97.08,8.95.13,5.88.09,11.76.24,17.65.35,1.42.03,1.42-2.2,0-2.2-5.88-.02-11.77,0-17.65-.04-2.9-.02-5.8-.04-8.7-.07s-5.88-.41-8.61.23c-.59.14-.58,1.04,0,1.19h0Z"/><path class="cls-16" d="M250.97,8.88c.37-1.39.29-2.85,0-4.25s-.82-2.68-1.61-3.81c-.31-.45-.88-.65-1.38-.36-.45.27-.66.92-.36,1.38.67,1.04,1.14,2.05,1.42,3.26.26,1.13.26,2.33.19,3.55-.05,1,1.49,1.19,1.74.24h0Z"/><path class="cls-16" d="M220.83,29.03c-.34,6.41.11,12.9.14,19.32s-.07,13.05-.18,19.57c-.11,6.44-.32,12.88-.56,19.32-.22,5.89-1.18,12.24.34,18.03,1.15,4.39,4.41,8.75,9.1,9.65s9.03-2.25,11.11-6.32c2.64-5.18,2.08-11.41,2.08-17.04,0-6.47,0-12.95.03-19.42.07-14.61.13-29.21.23-43.82,0-1.27-1.98-1.28-1.98,0-.02,12.28-.08,24.57-.14,36.85-.03,6.06-.05,12.12-.1,18.18s.22,11.79-.32,17.61c-.44,4.76-2.47,10.58-7.73,11.81-4.89,1.15-8.86-3.4-10.09-7.64-1.55-5.38-.63-11.39-.42-16.89.23-6.02.36-12.05.43-18.08.08-6.77.01-13.54-.09-20.31s.06-13.96-.78-20.8c-.08-.66-1.02-.69-1.05,0h0Z"/><path class="cls-16" d="M221.49,29.03c.65-.12.94-.74,1.48-1.07.66-.4,1.45-.59,2.21-.59,2.09,0,3.99,1.33,5.9,2.02,3.84,1.4,8.14,1.05,11.81-.66,1.24-.58.16-2.4-1.07-1.83-2.07.95-4.34,1.37-6.61,1.24s-4.35-1.04-6.5-1.88c-1.69-.66-3.59-1.09-5.35-.43-.95.35-3.17,1.8-2.22,3.04.09.12.2.17.35.14h0Z"/><path class="cls-9" d="M371.23,1.34c1.44,2.11,2.03,4.79,1.62,7.31l-.63.64c-1.21.22-2.42.41-3.64.56-7.94,1.02-16.02.75-24.05.48-1.72-.06-3.45-.11-5.17-.17-1.38-.05-2.75-.09-4.12-.14l-.25-.07c-1.45-2.62-1.3-6.04.36-8.52l.48-.46c11.59.13,23.19.26,34.79.38h.59Z"/><path class="cls-9" d="M364.72,27.98c-3.38,1.5-7.33,1.63-10.8.37-1.74-.64-3.37-1.61-5.2-1.86-1.83-.27-4.01.48-4.58,2.23l-.05.3c.76,21.62.65,43.27-.34,64.89-.19,4.29-.4,8.73,1.12,12.75,1.52,4.02,5.27,7.53,9.57,7.33,3.89-.17,7.13-3.34,8.59-6.95,1.46-3.61,1.5-7.61,1.52-11.5.1-22.41.21-44.82.31-67.23l-.14-.32ZM368.59,9.84l.14,1.05c-.13,30.41-.26,60.81-.39,91.21-.02,5.19-.21,10.83-3.53,14.8-1.94,2.31-4.78,3.76-7.75,4.26-6.2,1.03-12.89-2.41-15.67-8.06-1.98-4.03-2.01-8.7-2.01-13.19,0-29.66-.02-59.31-.03-88.96l.03-.81c1.72.06,3.45.11,5.17.17,8.03.28,16.1.54,24.05-.48Z"/><path class="cls-12" d="M364.72,27.98l.14.32c-.1,22.41-.21,44.82-.31,67.23-.02,3.9-.06,7.89-1.52,11.5-1.46,3.61-4.7,6.78-8.59,6.95-4.29.2-8.05-3.32-9.57-7.33-1.52-4.02-1.31-8.46-1.12-12.75.99-21.61,1.1-43.26.34-64.89l.05-.3c.57-1.75,2.75-2.5,4.58-2.23,1.82.26,3.46,1.23,5.2,1.86,3.47,1.26,7.42,1.13,10.8-.37Z"/><path class="cls-2" d="M371.23,1.34h-.59c-2.99-.03-5.98-.07-8.97-.1.2.1.4.2.59.31,2.05,1.16,2.72,3.93,1.56,5.94-.66,1.14-1.31,2.11-2.01,2.93,2.27-.11,4.53-.29,6.77-.58,1.22-.15,2.43-.34,3.64-.56l.63-.64c.41-2.52-.18-5.2-1.62-7.31Z"/><path class="cls-2" d="M368.59,9.84c-2.25.29-4.51.46-6.77.58-1.01,1.2-2.12,2.08-3.51,2.66.01,5.38.06,10.75.12,16.12,2.15.06,4.32-.33,6.29-1.21l.14.32c-.1,22.41-.21,44.82-.31,67.23-.02,3.9-.06,7.89-1.52,11.5-1.46,3.61-4.7,6.78-8.59,6.95-2.88.13-5.51-1.4-7.39-3.64-2.38.09-4.79-.52-7.07-1.57.3,1.49.73,2.94,1.41,4.31,2.77,5.64,9.46,9.08,15.67,8.06,2.97-.49,5.81-1.95,7.75-4.26,3.33-3.97,3.52-9.61,3.53-14.8.13-30.4.26-60.8.39-91.21l-.14-1.05Z"/><path class="cls-5" d="M364.72,27.98c-1.97.88-4.14,1.27-6.29,1.21.21,18.95.69,37.89,1.21,56.84.2,7.39.4,17.27-6.28,22.13-1.98,1.44-4.13,2.11-6.31,2.19,1.88,2.24,4.51,3.77,7.39,3.64,3.89-.17,7.13-3.34,8.59-6.95,1.46-3.61,1.5-7.61,1.52-11.5.1-22.41.21-44.82.31-67.23l-.14-.32Z"/><path class="cls-16" d="M338.24,10.95c-.37,8.4-.19,16.83-.19,25.24s0,16.99,0,25.49,0,16.83,0,25.24c0,4.25,0,8.5,0,12.74,0,3.66,0,7.42,1.01,10.97,1.69,6.01,6.72,10.65,12.9,11.76s13.2-1.77,15.89-7.9c1.33-3.03,1.69-6.36,1.8-9.64.13-3.9.06-7.82.08-11.72.04-8.47.07-16.95.11-25.42.07-16.86.17-33.73.26-50.59.01-2.08.02-4.15.03-6.23,0-1.76-2.74-1.77-2.74,0-.05,16.12-.11,32.23-.16,48.35-.03,8.06-.07,16.12-.1,24.17-.02,4.07-.04,8.14-.05,12.21-.02,3.6.09,7.22-.15,10.82-.2,3.08-.75,6.29-2.54,8.87s-4.88,4.23-8,4.61c-5.89.72-12-2.85-14.2-8.37-1.3-3.28-1.42-6.86-1.45-10.34-.02-3.93,0-7.87,0-11.8,0-8-.01-15.99-.02-23.99,0-9-.02-17.99-.03-26.99,0-9.15.2-18.34-.21-27.49-.06-1.42-2.14-1.42-2.2,0h0Z"/><path class="cls-16" d="M335.04,10.76c1.5.3,3.09.24,4.61.3s3.1.12,4.65.18c3.17.12,6.34.24,9.51.28,6.26.08,12.52-.19,18.7-1.23,1.34-.23.78-2.3-.56-2.05-6.06,1.15-12.23,1.38-18.38,1.33-3.01-.02-6.01-.12-9.02-.21-1.47-.04-2.94-.09-4.4-.13-1.61-.05-3.3-.25-4.89-.04-.8.1-1.18,1.37-.21,1.57h0Z"/><path class="cls-16" d="M335.6,9.36c-.42-1.31-.7-2.69-.58-4.07.06-.66.23-1.32.46-1.95s.97-1.46.7-2.15c-.13-.35-.42-.63-.82-.62-1.01.03-1.46,1.32-1.76,2.12s-.46,1.63-.54,2.47c-.15,1.67.13,3.41,1.05,4.83.48.74,1.78.29,1.49-.63h0Z"/><path class="cls-16" d="M335.68,1.55c2.65.68,5.65.37,8.37.41,2.98.04,5.97.08,8.95.13,5.88.09,11.76.24,17.65.35,1.42.03,1.42-2.2,0-2.2-5.88-.02-11.77,0-17.65-.04-2.9-.02-5.8-.04-8.7-.07s-5.88-.41-8.61.23c-.59.14-.58,1.04,0,1.19h0Z"/><path class="cls-16" d="M373.71,8.88c.37-1.39.29-2.85,0-4.25s-.82-2.68-1.61-3.81c-.31-.45-.88-.65-1.38-.36-.45.27-.66.92-.36,1.38.67,1.04,1.14,2.05,1.42,3.26.26,1.13.26,2.33.19,3.55-.05,1,1.49,1.19,1.74.24h0Z"/><path class="cls-16" d="M343.57,29.03c-.34,6.41.11,12.9.14,19.32s-.07,13.05-.18,19.57-.32,12.88-.56,19.32c-.22,5.89-1.18,12.24.34,18.03,1.15,4.39,4.41,8.75,9.1,9.65s9.03-2.25,11.11-6.32c2.64-5.18,2.08-11.41,2.08-17.04,0-6.47,0-12.95.03-19.42.07-14.61.13-29.21.23-43.82,0-1.27-1.98-1.28-1.98,0-.02,12.28-.08,24.57-.14,36.85-.03,6.06-.05,12.12-.1,18.18s.22,11.79-.32,17.61c-.44,4.76-2.47,10.58-7.73,11.81-4.89,1.15-8.86-3.4-10.09-7.64-1.55-5.38-.63-11.39-.42-16.89.23-6.02.36-12.05.43-18.08.08-6.77.01-13.54-.09-20.31s.06-13.96-.78-20.8c-.08-.66-1.02-.69-1.05,0h0Z"/><path class="cls-16" d="M344.23,29.03c.65-.12.94-.74,1.48-1.07.66-.4,1.45-.59,2.21-.59,2.09,0,3.99,1.33,5.9,2.02,3.84,1.4,8.14,1.05,11.81-.66,1.24-.58.16-2.4-1.07-1.83-2.07.95-4.34,1.37-6.61,1.24s-4.35-1.04-6.5-1.88c-1.69-.66-3.59-1.09-5.35-.43-.95.35-3.17,1.8-2.22,3.04.09.12.2.17.35.14h0Z"/><path class="cls-9" d="M309.86,1.34c1.44,2.11,2.03,4.79,1.62,7.31l-.63.64c-1.21.22-2.42.41-3.64.56-7.94,1.02-16.02.75-24.05.48-1.72-.06-3.45-.11-5.17-.17-1.38-.05-2.75-.09-4.12-.14l-.25-.07c-1.45-2.62-1.3-6.04.36-8.52l.48-.46c11.59.13,23.19.26,34.79.38h.59Z"/><path class="cls-9" d="M303.35,27.98c-3.38,1.5-7.33,1.63-10.8.37-1.74-.64-3.37-1.61-5.2-1.86-1.83-.27-4.01.48-4.58,2.23l-.05.3c.76,21.62.65,43.27-.34,64.89-.19,4.29-.4,8.73,1.12,12.75,1.52,4.02,5.27,7.53,9.57,7.33,3.89-.17,7.13-3.34,8.59-6.95s1.5-7.61,1.52-11.5c.1-22.41.21-44.82.31-67.23l-.14-.32ZM307.22,9.84l.14,1.05c-.13,30.41-.26,60.81-.39,91.21-.02,5.19-.21,10.83-3.53,14.8-1.94,2.31-4.78,3.76-7.75,4.26-6.2,1.03-12.89-2.41-15.67-8.06-1.98-4.03-2.01-8.7-2.01-13.19,0-29.66-.02-59.31-.03-88.96l.03-.81c1.72.06,3.45.11,5.17.17,8.03.28,16.1.54,24.05-.48Z"/><path class="cls-8" d="M303.35,27.98l.14.32c-.1,22.41-.21,44.82-.31,67.23-.02,3.9-.06,7.89-1.52,11.5s-4.7,6.78-8.59,6.95c-4.29.2-8.05-3.32-9.57-7.33-1.52-4.02-1.31-8.46-1.12-12.75.99-21.61,1.1-43.26.34-64.89l.05-.3c.57-1.75,2.75-2.5,4.58-2.23,1.82.26,3.46,1.23,5.2,1.86,3.47,1.26,7.42,1.13,10.8-.37Z"/><path class="cls-2" d="M309.86,1.34h-.59c-2.99-.03-5.98-.07-8.97-.1.2.1.4.2.59.31,2.05,1.16,2.72,3.93,1.56,5.94-.66,1.14-1.31,2.11-2.01,2.93,2.27-.11,4.53-.29,6.77-.58,1.22-.15,2.43-.34,3.64-.56l.63-.64c.41-2.52-.18-5.2-1.62-7.31Z"/><path class="cls-2" d="M307.22,9.84c-2.25.29-4.51.46-6.77.58-1.01,1.2-2.12,2.08-3.51,2.66.01,5.38.06,10.75.12,16.12,2.15.06,4.32-.33,6.29-1.21l.14.32c-.1,22.41-.21,44.82-.31,67.23-.02,3.9-.06,7.89-1.52,11.5-1.46,3.61-4.7,6.78-8.59,6.95-2.88.13-5.51-1.4-7.39-3.64-2.38.09-4.79-.52-7.07-1.57.3,1.49.73,2.94,1.41,4.31,2.77,5.64,9.46,9.08,15.67,8.06,2.97-.49,5.81-1.95,7.75-4.26,3.33-3.97,3.52-9.61,3.53-14.8.13-30.4.26-60.8.39-91.21l-.14-1.05Z"/><path class="cls-1" d="M303.35,27.98c-1.97.88-4.14,1.27-6.29,1.21.21,18.95.69,37.89,1.21,56.84.2,7.39.4,17.27-6.28,22.13-1.98,1.44-4.13,2.11-6.31,2.19,1.88,2.24,4.51,3.77,7.39,3.64,3.89-.17,7.13-3.34,8.59-6.95,1.46-3.61,1.5-7.61,1.52-11.5.1-22.41.21-44.82.31-67.23l-.14-.32Z"/><path class="cls-16" d="M276.87,10.95c-.37,8.4-.19,16.83-.19,25.24s0,16.99,0,25.49,0,16.83,0,25.24c0,4.25,0,8.5,0,12.74,0,3.66,0,7.42,1.01,10.97,1.69,6.01,6.72,10.65,12.9,11.76s13.2-1.77,15.89-7.9c1.33-3.03,1.69-6.36,1.8-9.64.13-3.9.06-7.82.08-11.72.04-8.47.07-16.95.11-25.42.07-16.86.17-33.73.26-50.59.01-2.08.02-4.15.03-6.23,0-1.76-2.74-1.77-2.74,0-.05,16.12-.11,32.23-.16,48.35-.03,8.06-.07,16.12-.1,24.17-.02,4.07-.04,8.14-.05,12.21-.02,3.6.09,7.22-.15,10.82-.2,3.08-.75,6.29-2.54,8.87s-4.88,4.23-8,4.61c-5.89.72-12-2.85-14.2-8.37-1.3-3.28-1.42-6.86-1.45-10.34-.02-3.93,0-7.87,0-11.8,0-8-.01-15.99-.02-23.99,0-9-.02-17.99-.03-26.99,0-9.15.2-18.34-.21-27.49-.06-1.42-2.14-1.42-2.2,0h0Z"/><path class="cls-16" d="M273.67,10.76c1.5.3,3.09.24,4.61.3s3.1.12,4.65.18c3.17.12,6.34.24,9.51.28,6.26.08,12.52-.19,18.7-1.23,1.34-.23.78-2.3-.56-2.05-6.06,1.15-12.23,1.38-18.38,1.33-3.01-.02-6.01-.12-9.02-.21-1.47-.04-2.94-.09-4.4-.13-1.61-.05-3.3-.25-4.89-.04-.8.1-1.18,1.37-.21,1.57h0Z"/><path class="cls-16" d="M274.24,9.36c-.42-1.31-.7-2.69-.58-4.07.06-.66.23-1.32.46-1.95s.97-1.46.7-2.15c-.13-.35-.42-.63-.82-.62-1.01.03-1.46,1.32-1.76,2.12s-.46,1.63-.54,2.47c-.15,1.67.13,3.41,1.05,4.83.48.74,1.78.29,1.49-.63h0Z"/><path class="cls-16" d="M274.31,1.55c2.65.68,5.65.37,8.37.41,2.98.04,5.97.08,8.95.13,5.88.09,11.76.24,17.65.35,1.42.03,1.42-2.2,0-2.2-5.88-.02-11.77,0-17.65-.04-2.9-.02-5.8-.04-8.7-.07s-5.88-.41-8.61.23c-.59.14-.58,1.04,0,1.19h0Z"/><path class="cls-16" d="M312.34,8.88c.37-1.39.29-2.85,0-4.25s-.82-2.68-1.61-3.81c-.31-.45-.88-.65-1.38-.36-.45.27-.66.92-.36,1.38.67,1.04,1.14,2.05,1.42,3.26.26,1.13.26,2.33.19,3.55-.05,1,1.49,1.19,1.74.24h0Z"/><path class="cls-16" d="M282.2,29.03c-.34,6.41.11,12.9.14,19.32.03,6.52-.07,13.05-.18,19.57s-.32,12.88-.56,19.32c-.22,5.89-1.18,12.24.34,18.03,1.15,4.39,4.41,8.75,9.1,9.65s9.03-2.25,11.11-6.32c2.64-5.18,2.08-11.41,2.08-17.04,0-6.47,0-12.95.03-19.42.07-14.61.13-29.21.23-43.82,0-1.27-1.98-1.28-1.98,0-.02,12.28-.08,24.57-.14,36.85-.03,6.06-.05,12.12-.1,18.18s.22,11.79-.32,17.61c-.44,4.76-2.47,10.58-7.73,11.81-4.89,1.15-8.86-3.4-10.09-7.64-1.55-5.38-.63-11.39-.42-16.89.23-6.02.36-12.05.43-18.08.08-6.77.01-13.54-.09-20.31s.06-13.96-.78-20.8c-.08-.66-1.02-.69-1.05,0h0Z"/><path class="cls-16" d="M282.86,29.03c.65-.12.94-.74,1.48-1.07.66-.4,1.45-.59,2.21-.59,2.09,0,3.99,1.33,5.89,2.02,3.84,1.4,8.14,1.05,11.81-.66,1.24-.58.16-2.4-1.07-1.83-2.07.95-4.34,1.37-6.61,1.24s-4.35-1.04-6.5-1.88c-1.69-.66-3.59-1.09-5.35-.43-.95.35-3.17,1.8-2.22,3.04.09.12.2.17.35.14h0Z"/><path class="cls-15" d="M404.19,132.49v9.94l-1.25.05c-39.56,1.14-79.14.41-118.71-.32-9.3-.17-18.61-.34-27.92-.52-23.48-.43-46.97-.86-70.45-1.3v-.45c-.5-3.74-.64-7.53-.38-11.3h.27c72.82,1.3,145.63,2.59,218.45,3.9Z"/><path class="cls-7" d="M373.73,137.08c-15.3.91-30.53.07-45.83-.43-16.96-.55-33.93-1.02-50.9-1.29-16.59-.26-33.1-.26-49.67.61-13.99.74-27.95,1.32-41.86-.32.08,1.41.21,2.82.4,4.22v.45c23.48.44,46.96.87,70.44,1.3,9.31.18,18.62.35,27.92.52,39.57.73,79.15,1.46,118.71.32l1.25-.05v-6.28c-10.13-.66-20.51.35-30.46.94Z"/><path class="cls-16" d="M185.75,140.76c7.13.32,14.23.96,21.37,1.15s13.91.33,20.87.45c14.09.25,28.19.51,42.28.77,28.26.53,56.52,1.13,84.79,1.19,15.96.03,31.92-.14,47.88-.63,1.56-.05,1.57-2.48,0-2.44-28.26.74-56.53.62-84.79.21s-56.46-.98-84.7-1.52c-7.95-.15-15.9-.31-23.85-.4-7.96-.08-15.9.26-23.85.33-.57,0-.56.85,0,.88h0Z"/><path class="cls-16" d="M185.74,129.26c3.65.36,7.32.37,10.99.47s6.99.23,10.49.3c7.16.16,14.31.32,21.47.45,14.31.27,28.63.53,42.94.79,28.55.52,57.09,1.05,85.64,1.56,16.06.29,32.12.58,48.19.87,1.57.03,1.57-2.41,0-2.44-28.63-.5-57.26-1-85.89-1.5s-57.09-1-85.64-1.48c-7.99-.13-15.98-.26-23.97-.36-3.99-.05-7.99-.07-11.98-.1s-8.17-.18-12.23.07c-.88.05-.86,1.26,0,1.35h0Z"/><path class="cls-16" d="M185.35,128.29c-.94.42-.96,1.78-1.01,2.67-.06,1-.04,2.01-.02,3.01s.07,2.01.16,3.01.14,2.15.39,3.16c.28,1.14,2.09.9,2.05-.28-.04-1.11-.25-2.22-.33-3.33-.08-1.04-.14-2.08-.17-3.12s.01-2.09-.04-3.13c-.03-.53-.04-1.03-.29-1.51-.12-.24-.4-.63-.73-.49h0Z"/><path class="cls-16" d="M405.15,142.42c.14-1.68.11-3.37.12-5.05s.11-3.38.01-5.05c-.08-1.4-2.1-1.4-2.18,0-.1,1.67,0,3.38.01,5.05s-.02,3.37.12,5.05c.1,1.23,1.82,1.24,1.92,0h0Z"/><path class="cls-15" d="M404.19,45.52v9.94l-1.25.05c-39.56,1.14-79.14.41-118.71-.32-9.3-.17-18.61-.34-27.92-.52-23.48-.43-46.97-.86-70.45-1.3v-.45c-.5-3.74-.64-7.53-.38-11.3h.27c72.82,1.3,145.63,2.59,218.45,3.9Z"/><path class="cls-7" d="M373.73,50.11c-15.3.91-30.53.07-45.83-.43-16.96-.55-33.93-1.02-50.9-1.29-16.59-.26-33.1-.26-49.67.61-13.99.74-27.95,1.32-41.86-.32.08,1.41.21,2.82.4,4.22v.45c23.48.44,46.96.87,70.44,1.3,9.31.18,18.62.35,27.92.52,39.57.73,79.15,1.46,118.71.32l1.25-.05v-6.28c-10.13-.66-20.51.35-30.46.94Z"/><path class="cls-16" d="M185.75,53.8c7.13.32,14.23.96,21.37,1.15s13.91.33,20.87.45c14.09.25,28.19.51,42.28.77,28.26.53,56.52,1.13,84.79,1.19,15.96.03,31.92-.14,47.88-.63,1.56-.05,1.57-2.48,0-2.44-28.26.74-56.53.62-84.79.21-28.23-.41-56.46-.98-84.7-1.52-7.95-.15-15.9-.31-23.85-.4s-15.9.26-23.85.33c-.57,0-.56.85,0,.88h0Z"/><path class="cls-16" d="M185.74,42.3c3.65.36,7.32.37,10.99.47s6.99.23,10.49.3c7.16.16,14.31.32,21.47.45,14.31.27,28.63.53,42.94.79,28.55.52,57.09,1.05,85.64,1.56,16.06.29,32.12.58,48.19.87,1.57.03,1.57-2.41,0-2.44-28.63-.5-57.26-1-85.89-1.5-28.55-.5-57.09-1-85.64-1.48-7.99-.13-15.98-.26-23.97-.36-3.99-.05-7.99-.07-11.98-.1s-8.17-.18-12.23.07c-.88.05-.86,1.26,0,1.35h0Z"/><path class="cls-16" d="M185.35,41.33c-.94.42-.96,1.78-1.01,2.67-.06,1-.04,2.01-.02,3.01s.07,2.01.16,3.01.14,2.15.39,3.16c.28,1.14,2.09.9,2.05-.28-.04-1.11-.25-2.22-.33-3.33-.08-1.04-.14-2.08-.17-3.12s.01-2.09-.04-3.13c-.03-.53-.04-1.03-.29-1.51-.12-.24-.4-.63-.73-.49h0Z"/><path class="cls-16" d="M405.15,55.45c.14-1.68.11-3.37.12-5.05s.11-3.38.01-5.05c-.08-1.4-2.1-1.4-2.18,0-.1,1.67,0,3.38.01,5.05s-.02,3.37.12,5.05c.1,1.23,1.82,1.24,1.92,0h0Z"/></g></g></g></svg>