<?xml version="1.0" encoding="UTF-8"?>
<svg xmlns="http://www.w3.org/2000/svg" viewBox="0 0 437.42 685.42">
  <defs>
    <style>
      .cls-1, .cls-2, .cls-3, .cls-4, .cls-5 {
        mix-blend-mode: multiply;
      }

      .cls-1, .cls-2, .cls-3, .cls-5 {
        opacity: .3;
      }

      .cls-1, .cls-6 {
        fill: #eebdb3;
      }

      .cls-7, .cls-2 {
        fill: #00000c;
      }

      .cls-8 {
        fill: #fff;
      }

      .cls-9, .cls-4 {
        fill: #c0dffe;
      }

      .cls-10 {
        isolation: isolate;
      }

      .cls-3 {
        fill: #e6f2ff;
      }

      .cls-4 {
        opacity: .7;
      }

      .cls-5, .cls-11 {
        fill: #e38021;
      }

      .cls-12 {
        fill: #271857;
      }

      .cls-13 {
        fill: #c3bef1;
      }
    </style>
  </defs>
  <g class="cls-10">
    <g id="Capa_2">
      <g id="OBJECTS">
        <g>
          <g>
            <path class="cls-9" d="M188.1,308.82c11.6,28.68,18.27,59.34,19.59,90.25-.62.95-1.03,2-1.26,3.1l-.25.35c-2.64-1.76-5.53-2.7-8.28-1.36-3.28,1.59-4.42,5.95-3.45,9.48.97,3.51,3.49,6.36,5.97,9.04,2.54,2.73,5.14,5.41,7.8,8.05l-.04.04c1.53,18.85,1.47,37.85-.17,56.7l.08.5c-4.13.74-8.24,1.57-12.33,2.46l-.7-3.28c-23.04-34.32-43.38-70.43-60.72-107.94-6.03-12.99-11.77-26.47-12.72-40.76-.95-14.27,3.7-29.69,15.11-38.32l.33-.02c.17,2.5.52,4.98,1.09,7.41,1.86,7.64,6.57,15.01,13.83,18.02,5.68,2.35,12.18,1.82,18.11.21,6.59-1.78,13.36-5.35,15.84-11.69.33-.83.56-1.67.72-2.54l1.42.31Z"/>
            <path class="cls-7" d="M137.62,256.79l-.85.81c.56,2.23.89,4.48,1.07,6.77-9.54,4.32-22.34-.54-26.39-10.26-.23,4.27-1.36,9.64-5.55,10.53-3.26.68-6.26-2-8.22-4.73-3.39-4.71-5.64-10.22-6.59-15.96,3.53.52,7.14.27,10.55-.89,9.31-3.14,15.82-14.18,12.2-23.31,5.43,13.79,13.61,26.3,23.76,37.04Z"/>
            <path class="cls-7" d="M82.22,160.61c-5.64-.02-10.86,2.42-15.01,6.24l-2.19-2.44c-.17-12.59,3.1-25.19,9.27-36.17-3.57,3.94-11.89,2.64-14.89-2.39-3.47-5.78-1.71-13.26,1.14-19.37,6.42-13.73,18.23-25,32.54-30-.04-19.12,7.64-38.14,20.94-51.87,2.73-2.81,7.06-5.53,10.2-3.22,1.53,1.11,2.15,3.04,2.68,4.83,1.67,5.62,3.37,11.25,5.04,16.87C151.6,18.72,183,6.56,213.99,2.25c11.19-1.57,23.46-2,32.87,4.25,9.42,6.24,13.23,21.58,4.58,28.86,14.04-1.59,28.49.45,41.54,5.88,9.83,4.09,19.35,10.7,23.27,20.59,3.9,9.91-.14,23.31-10.28,26.57,12.2,6.61,22.71,17.59,25.62,31.16,2.91,13.57-3.55,29.44-16.44,34.56,2.7,8.01,5.45,16.39,4.25,24.78-1.2,8.38-7.66,16.66-16.13,16.91l-2.7-.08c.39-14.27,4.69-28.16,6.05-42.39,1.4-14.62-1.01-30.93-11.95-40.76l-.93-.5c-14.21,8.38-30.19,13.75-46.58,15.63-3.61.43-7.52.62-10.63-1.28-8.84-5.37-3.08-20.36-9.46-28.47-12.99,19.18-30.72,34.81-50.3,47.18-6.19,3.92-13.09,7.64-20.38,6.98-6.57-.58-12.99-6.36-12.68-12.66.12-.68.23-1.34.33-2.02-.19.68-.31,1.36-.33,2.02-1.76,10.59-4.44,21.06-8.03,31.2-.45,1.3-.97,2.66-2.04,3.53-3.8,3.04-8.44-2.6-10.01-7.19.89,10.8-2.66,21.89-9.64,30.14-.68-4.73-1.9-9.39-3.57-13.87l-.08.04c-5.99-11.17-15.44-22.69-28.12-22.71ZM74.31,128.19c.52-.58.93-1.28,1.22-2.09-.41.68-.83,1.38-1.22,2.09Z"/>
            <path class="cls-13" d="M233.63,450.62c-5.62-4.56-11.09-9.29-16.39-14.25l1.03-1.11c4.15-1.18,7.39-5.06,7.78-9.35l1.57-1.49c3.04,3.22,6.05,6.42,9.06,9.62,1.78,1.88,3.55,3.78,5.33,5.66l2.79.93c-1.61,4.83-3.22,9.64-4.83,14.45l-1.2-.39c-1.73-1.34-3.43-2.7-5.14-4.07Z"/>
            <path class="cls-13" d="M210.85,406.6c5.6,5.95,11.19,11.89,16.77,17.82l-1.57,1.49c-.39,4.29-3.63,8.18-7.78,9.35l-1.03,1.11c-3.06-2.81-6.07-5.7-9-8.65-2.66-2.64-5.27-5.33-7.8-8.05-2.48-2.68-5-5.53-5.97-9.04-.97-3.53.17-7.89,3.45-9.48,2.75-1.34,5.64-.39,8.28,1.36,1.71,1.16,3.3,2.64,4.67,4.09Z"/>
            <path class="cls-9" d="M385.45,387.56l-.23,1.26c-14.12-2.42-28.27-4.85-42.39-7.29l.06-.39c.85-10.72,12.74-18.56,23.27-16.56,10.55,2.02,18.44,12.28,19.28,22.98Z"/>
            <path class="cls-9" d="M323.36,387.44c2.29-2,.45-6.88,3.22-8.16.85-.37,1.82-.23,2.73-.06,4.5.78,9.02,1.55,13.52,2.31,14.12,2.44,28.27,4.87,42.39,7.29,2.95.52,5.93,1.01,8.88,1.53-1.07,2.6-1.82,5.31-2.25,8.07l-.43,2.35c-22.71-4.25-45.49-8.24-68.28-11.98v-.02l.23-1.34Z"/>
            <path class="cls-11" d="M435.93,409.43l.62,1.76c-9.93,22.94-18.38,46.54-25.23,70.57l-1.96.66c-3.34-3.37-7.47-5.82-12.14-6.71-2.44-.45-5.45-.25-6.67,1.9-.66,1.14-.62,2.54-.45,3.86.83,7.12,4.42,13.87,9.85,18.54-4.48-1.84-9.27-2.93-14.1-3.2-3.1-.19-6.36,0-9,1.63-2.62,1.63-4.36,5.06-3.16,7.93.66,1.61,2.09,2.75,3.47,3.8,5.22,3.94,10.78,7.41,16.62,10.39-6.5-1.88-13.3-2.68-20.05-2.35-1.86.1-3.86.35-5.2,1.65-1.78,1.73-1.57,4.83-.17,6.88,1.42,2.04,3.74,3.28,6.03,4.27,5.14,2.23,10.65,3.68,16.23,4.23-3.28,1.01-6.9.68-10.14,1.82-3.26,1.14-6.11,4.91-4.44,7.91.68,1.18,1.9,1.94,3.12,2.54,2.75,1.32,5.78,2,8.86,2.04v.08c-2.64,7.25-5.24,14.49-7.78,21.78-8.53,24.2-16.6,48.54-24.22,73.05l-2.44,3.53c-32.29-1.42-64.52-4.6-96.48-9.54-18.25-2.81-36.42-6.19-54.45-10.16-6.15-1.34-12.28-2.75-18.4-4.23l.43-3.18c3.39-10.16,6.77-20.3,10.16-30.45,12.1-36.28,24.2-72.55,36.3-108.83,2.95-8.84,5.91-17.67,8.84-26.51,1.61-4.81,3.22-9.62,4.83-14.45,6.71-20.13,13.44-40.26,20.15-60.41l.06-.43c2.46.35,4.91.7,7.37,1.09,16.95,2.48,33.86,5.12,50.75,7.91v.02c22.79,3.74,45.57,7.72,68.28,11.98,14.85,2.77,29.69,5.66,44.52,8.65Z"/>
            <path class="cls-8" d="M257.08,638.45l-.39,2.48c.02,10.43-.72,22.46-9.13,28.66-4.67,3.45-10.7,4.23-16.46,4.89-9.21,1.07-18.44,2.15-27.67,3.16l-.02-.17c1.61-15.84,1.22-31.88-1.14-47.63l.35-1.55c18.02,3.96,36.19,7.35,54.45,10.16Z"/>
            <path class="cls-8" d="M202.29,629.84c2.35,15.75,2.75,31.8,1.14,47.63l.02.17c-41.65,4.56-83.46,8.07-125.22,5.68-18.25-1.05-39.66-5.45-47.08-22.17-2.52-5.7-2.97-12.04-3.39-18.25-1.8-27.03-3.59-54.05-5.39-81.08.56,1.11,1.11,2.23,1.69,3.34,10.55,20.21,27.65,37.89,49.39,44.89,20.63,6.63,43.03,3.16,64.32-.93,18.89-3.61,38.42-7.97,53.54-19.86l3.53,1.18c-3.39,10.16-6.77,20.3-10.16,30.45l-.43,3.18c6.11,1.49,12.24,2.89,18.4,4.23l-.35,1.55Z"/>
            <path class="cls-8" d="M239.97,455.08c-2.93,8.84-5.88,17.67-8.84,26.51h-.02c-2.42.27-4.83.58-7.23.89l-.08-.68c5.08-9.72,8.42-20.32,9.83-31.18,1.71,1.36,3.41,2.73,5.14,4.07l1.2.39Z"/>
            <path class="cls-8" d="M233.63,450.62c-1.4,10.86-4.75,21.45-9.83,31.18l.08.68c-5.29.72-10.53,1.55-15.77,2.48l-.08-.5c1.63-18.85,1.69-37.85.17-56.7l.04-.04c2.93,2.95,5.95,5.84,9,8.65,5.31,4.96,10.78,9.68,16.39,14.25Z"/>
            <path class="cls-8" d="M265.01,379.78l-.06.43c-6.71,20.15-13.44,40.28-20.15,60.41l-2.79-.93c-1.78-1.88-3.55-3.78-5.33-5.66l2.52-2.37c5.31-7.23,6.94-17.01,4.29-25.6-1.8-5.82-5.37-10.9-8.9-15.88-5.74-8.11-11.48-16.21-17.22-24.32,4.93,3.59,12.35-1.49,13.28-7.52.93-6.03-2.29-11.85-5.43-17.08-8.69-14.39-18.21-29.05-32.17-38.28,17.3,6.13,34.03,14.31,48.09,26.04,15.53,12.97,27.71,30.62,31.45,50.48l-.21,1.36c-2.46-.39-4.91-.74-7.37-1.09Z"/>
            <path class="cls-8" d="M207.7,399.06c-1.32-30.91-7.99-61.57-19.59-90.25l-1.42-.31c.52-2.4.5-4.87.45-7.37h.54c1.8.6,3.59,1.22,5.39,1.86,13.96,9.23,23.48,23.89,32.17,38.28,3.14,5.22,6.36,11.05,5.43,17.08-.93,6.03-8.34,11.11-13.28,7.52,5.74,8.11,11.48,16.21,17.22,24.32,3.53,4.98,7.1,10.06,8.9,15.88,2.64,8.59,1.01,18.38-4.29,25.6l-2.52,2.37c-3.01-3.2-6.03-6.4-9.06-9.62-5.57-5.93-11.17-11.87-16.77-17.82-1.36-1.45-2.95-2.93-4.67-4.09l.25-.35c.23-1.09.64-2.15,1.26-3.1Z"/>
            <path class="cls-8" d="M136.75,297.11c-11.42,8.63-16.06,24.05-15.11,38.32.95,14.29,6.69,27.77,12.72,40.76,17.34,37.52,37.68,73.63,60.72,107.94l.7,3.28c-5.64,1.22-11.25,2.56-16.83,4.05v-1.47c-17.98-15.8-35.97-31.59-53.93-47.39-4.81-4.23-9.85-8.82-11.56-14.99-4.15-14.91,13.03-29.44,9.35-44.49-9.39-2.97-18.81-5.93-28.2-8.9-2.58-.83-5.35-1.75-6.94-3.94-2.46-3.34-1.22-8.03.27-11.89,9.04-23.7,23.23-45.4,41.25-63.22,2.21-.23,4.44-.37,6.67-.5l1.12-.02c.02.83.04,1.63.1,2.44l-.33.02Z"/>
            <path class="cls-8" d="M178.95,489.99v1.47c-25,6.65-49.31,15.98-72.33,27.79l-2.89.1c-2.15-53.95-23.85-106.27-45.2-156.48-4.15-9.75-8.78-20.09-17.69-25.79l-1.22-1.2c23.17-23.99,56.12-37.6,89.57-40.72-18.02,17.82-32.21,39.52-41.25,63.22-1.49,3.86-2.73,8.55-.27,11.89,1.59,2.19,4.36,3.12,6.94,3.94,9.39,2.97,18.81,5.93,28.2,8.9,3.68,15.05-13.5,29.59-9.35,44.49,1.71,6.17,6.75,10.76,11.56,14.99,17.96,15.8,35.95,31.59,53.93,47.39Z"/>
            <path class="cls-8" d="M22.37,561.81c-9.39-19.37-13.77-40.86-16.91-62.21-3.98-27.21-6.11-54.94-2.46-82.2,3.65-27.25,13.38-54.18,31.01-75.28,1.8-2.15,3.68-4.23,5.62-6.24l1.22,1.2c8.92,5.7,13.54,16.04,17.69,25.79,21.35,50.21,43.05,102.53,45.2,156.48l2.89-.1c23.02-11.81,47.32-21.14,72.33-27.79,5.57-1.49,11.19-2.83,16.83-4.05,4.09-.89,8.2-1.71,12.33-2.46,5.24-.93,10.49-1.76,15.77-2.48,2.39-.31,4.81-.62,7.23-.89h.02c-12.1,36.28-24.2,72.55-36.3,108.83l-3.53-1.18c-15.11,11.89-34.65,16.25-53.54,19.86-21.29,4.09-43.69,7.56-64.32.93-21.74-7-38.84-24.67-49.39-44.89-.58-1.11-1.14-2.23-1.69-3.34Z"/>
            <path class="cls-6" d="M388.01,549.54c-3.08-.04-6.11-.72-8.86-2.04-1.22-.6-2.44-1.36-3.12-2.54-1.67-2.99,1.18-6.77,4.44-7.91,3.24-1.14,6.85-.81,10.14-1.82-5.57-.56-11.09-2-16.23-4.23-2.29-.99-4.6-2.23-6.03-4.27-1.4-2.04-1.61-5.14.17-6.88,1.34-1.3,3.34-1.55,5.2-1.65,6.75-.33,13.54.47,20.05,2.35-5.84-2.97-11.4-6.44-16.62-10.39-1.38-1.05-2.81-2.19-3.47-3.8-1.2-2.87.54-6.3,3.16-7.93,2.64-1.63,5.91-1.82,9-1.63,4.83.27,9.62,1.36,14.1,3.2-5.43-4.67-9.02-11.42-9.85-18.54-.17-1.32-.21-2.73.45-3.86,1.22-2.15,4.23-2.35,6.67-1.9,4.67.89,8.8,3.34,12.14,6.71,3.78,3.8,6.57,8.77,7.97,13.98,2.64,9.81,1.22,20.23-1.24,30.08-2.42,9.7-5.88,19.26-11.58,27.48-5.7,8.22-13.83,15.01-23.46,17.74l-.83-.29c2.54-7.29,5.14-14.54,7.78-21.78v-.08Z"/>
            <path class="cls-6" d="M91.1,243.94c-6.07-.83-11.98-3.82-16.52-8.07-7.19-6.69-11.38-15.98-14.16-25.38-2.99-10.14-4.54-21.16-1.24-31.22,1.55-4.69,4.38-9.08,8.03-12.43,4.15-3.82,9.37-6.26,15.01-6.24,12.68.02,22.13,11.54,28.12,22.71l.08-.04c1.67,4.48,2.89,9.15,3.57,13.87,6.98-8.26,10.53-19.35,9.64-30.14,1.57,4.58,6.21,10.22,10.01,7.19,1.07-.87,1.59-2.23,2.04-3.53,3.59-10.14,6.28-20.61,8.03-31.2-.31,6.3,6.11,12.08,12.68,12.66,7.29.66,14.18-3.06,20.38-6.98,19.57-12.37,37.31-28,50.3-47.18,6.38,8.11.62,23.1,9.46,28.47,3.12,1.9,7.02,1.71,10.63,1.28,16.39-1.88,32.37-7.25,46.58-15.63l.93.5c10.94,9.83,13.36,26.14,11.95,40.76-1.36,14.23-5.66,28.12-6.05,42.39-.02.41-.04.85-.04,1.26-.19,15.92,4.71,31.86,2.15,47.55-2.91,17.69-15.36,32.97-31.03,41.67-15.65,8.71-34.15,11.36-52.03,10.06-10.65-.78-21.16-3.04-31.22-6.59-19.24-6.71-36.88-18.11-50.79-32.89-10.16-10.74-18.33-23.25-23.76-37.04,3.61,9.13-2.89,20.17-12.2,23.31-3.41,1.16-7.02,1.4-10.55.89Z"/>
            <path class="cls-6" d="M137.85,264.36c-.19-2.29-.52-4.54-1.07-6.77l.85-.81c13.92,14.78,31.55,26.18,50.79,32.89l-.91,2.6c-.58,2.89-.43,5.88-.37,8.86.04,2.5.06,4.98-.45,7.37-.17.87-.39,1.71-.72,2.54-2.48,6.34-9.25,9.91-15.84,11.69-5.93,1.61-12.43,2.15-18.11-.21-7.27-3.01-11.98-10.39-13.83-18.02-.58-2.44-.93-4.91-1.09-7.41-.06-.81-.08-1.61-.1-2.44-.14-4.52.19-9.08.52-13.61.41-5.55.81-11.17.35-16.68Z"/>
            <path class="cls-4" d="M208.19,427.76l.04-.04c-2.66-2.64-5.27-5.33-7.8-8.05-2.48-2.68-5-5.53-5.97-9.04-.97-3.53.17-7.89,3.45-9.48,2.75-1.34,5.64-.39,8.28,1.36l.25-.35c.23-1.09.64-2.15,1.26-3.1-1.32-30.91-7.99-61.57-19.59-90.25l-1.42-.31c-.16.87-.39,1.71-.72,2.54-2.48,6.34-9.25,9.91-15.84,11.69-5.93,1.61-12.43,2.15-18.11-.21-7.27-3.01-11.98-10.39-13.83-18.02-.52-2.2-.84-4.44-1.02-6.7-.18-.19-.37-.38-.55-.57-11.31,8.65-15.91,24-14.97,38.2.95,14.29,6.69,27.77,12.72,40.76,17.34,37.52,37.68,73.63,60.72,107.94l.7,3.28c4.09-.89,8.2-1.71,12.33-2.46l-.08-.5c1.63-18.85,1.69-37.85.17-56.7Z"/>
            <path class="cls-2" d="M136.87,259.7c-1.63-1.05-1.36-3.03-.3-4.07-9.67-10.48-17.48-22.58-22.72-35.89,3.61,9.13-2.89,20.17-12.2,23.31-3.41,1.16-7.02,1.4-10.55.89.95,5.74,3.2,11.25,6.59,15.96,1.96,2.73,4.96,5.41,8.22,4.73,4.19-.89,5.33-6.26,5.55-10.53,4.05,9.72,16.85,14.58,26.39,10.26-.12-1.49-.34-2.96-.6-4.43-.12-.08-.25-.16-.37-.24Z"/>
            <path class="cls-4" d="M385.45,387.56l-.23,1.26c-14.12-2.42-28.27-4.85-42.39-7.29l.06-.39c.85-10.72,12.74-18.56,23.27-16.56,10.55,2.02,18.44,12.28,19.28,22.98Z"/>
            <path class="cls-4" d="M323.36,387.44c2.29-2,.45-6.88,3.22-8.16.85-.37,1.82-.23,2.73-.06,4.5.78,9.02,1.55,13.52,2.31,14.12,2.44,28.27,4.87,42.39,7.29,2.95.52,5.93,1.01,8.88,1.53-1.07,2.6-1.82,5.31-2.25,8.07l-.43,2.35c-22.71-4.25-45.49-8.24-68.28-11.98v-.02l.23-1.34Z"/>
            <path class="cls-5" d="M435.93,409.43c-4.15-.84-8.3-1.65-12.45-2.47-8.76,15.83-17.51,31.97-22.24,49.41-.32,1.2-1.83,2.25-3.08,1.75-5.85-2.32-12.02-1.29-15.6,4.23-3.41,5.26-3.28,12-.18,17.35,1.21,2.1-1.28,4.82-3.43,3.43-2.45-1.58-5.62-3.27-8.62-2.27-2.14.71-3.58,2.6-4.44,4.62-2.27,5.39-1.25,12,1.86,16.83,1.1,1.7-.38,3.65-2.16,3.77-2.94.21-7.21.74-8.64,3.81-1.12,2.41-.21,5.44.63,7.78,2.31,6.41,6.73,12.24,11.11,17.38.96,1.12,1.06,3.19-.51,3.94-1.14.54-2.58.92-3.76,1.55,1.64,6.59,5.58,11.46,10.92,15.79.91.74.81,2.1.39,3.04-4.41,9.77-7.72,20-11.89,29.88-3.55,8.41-7.55,17.93-14.2,24.42-8.32,8.11-20.87,10.45-32.01,11.32-15.09,1.18-30.36-.43-45.26-2.77-15.71-2.46-31.25-6.02-46.57-10.28-11.6-3.23-23.17-6.81-34.38-11.24-2.24,6.72-4.49,13.44-6.73,20.17l-.43,3.18c6.11,1.49,12.24,2.89,18.4,4.23,18.02,3.96,36.19,7.35,54.45,10.16,31.96,4.93,64.19,8.11,96.48,9.54l2.44-3.53c7.62-24.51,15.69-48.85,24.22-73.05,2.54-7.29,5.14-14.54,7.78-21.78v-.08c-3.08-.04-6.11-.72-8.86-2.04-1.22-.6-2.44-1.36-3.12-2.54-1.67-2.99,1.18-6.77,4.44-7.91,3.24-1.14,6.85-.81,10.14-1.82-5.57-.56-11.09-2-16.23-4.23-2.29-.99-4.6-2.23-6.03-4.27-1.4-2.04-1.61-5.14.16-6.88,1.34-1.3,3.35-1.55,5.2-1.65,6.75-.33,13.54.47,20.05,2.35-5.84-2.97-11.4-6.44-16.62-10.39-1.38-1.05-2.81-2.19-3.47-3.8-1.2-2.87.54-6.3,3.16-7.93,2.64-1.63,5.91-1.82,9-1.63,4.83.27,9.62,1.36,14.1,3.2-5.43-4.67-9.02-11.42-9.85-18.54-.17-1.32-.21-2.73.45-3.86,1.22-2.15,4.23-2.35,6.67-1.9,4.67.89,8.8,3.34,12.14,6.71l1.96-.66c6.85-24.03,15.3-47.63,25.23-70.57l-.62-1.76Z"/>
            <path class="cls-3" d="M257.08,638.45l-.39,2.48c.02,10.43-.72,22.46-9.13,28.66-4.67,3.45-10.7,4.23-16.46,4.89-9.21,1.07-18.44,2.15-27.67,3.16l-.02-.17c1.61-15.84,1.22-31.88-1.14-47.63l.35-1.55c18.02,3.96,36.19,7.35,54.45,10.16Z"/>
            <path class="cls-3" d="M202.29,629.84l.35-1.55c-6.15-1.34-12.29-2.75-18.4-4.23l.43-3.18c2.24-6.73,4.49-13.45,6.73-20.17-.24-.1-.49-.18-.73-.28-2.97-1.18-1.66-6.03,1.33-4.84.32.13.65.24.98.37.62-1.85,1.23-3.69,1.85-5.54l-3.53-1.18c-15.11,11.89-34.65,16.25-53.54,19.86-21.29,4.09-43.69,7.56-64.32.93-21.74-7-38.84-24.67-49.39-44.89-.45-.87-.89-1.74-1.32-2.61-.12-.13-.23-.26-.35-.4.79,11.82,1.57,23.64,2.36,35.46,14.38,11.54,32.4,19.13,50.32,22.14,14.3,2.41,29.32,1.32,43.68.15,16.67-1.36,33.27-3.6,49.99-4.43,1.22-.06,2.67,1.2,2.51,2.51-1.76,13.83,17.64,16.59,21.79,28.02,1.81,4.99.48,11.58-3.32,15.33-3.85,3.8-9.6,5.41-14.75,6.42-14.34,2.83-29.37,2.18-43.89,1.53-15.83-.72-31.73-1.07-47.46-3.1-18.99-2.45-37.7-7.04-55.07-14.98.47,3.43,1.22,6.79,2.62,9.96,7.41,16.72,28.82,21.12,47.08,22.17,41.77,2.4,83.58-1.11,125.22-5.68l-.02-.17c1.61-15.84,1.22-31.88-1.14-47.63Z"/>
            <path class="cls-3" d="M239.97,455.08c-2.93,8.84-5.88,17.67-8.84,26.51h-.02c-2.42.27-4.83.58-7.23.89l-.08-.68c5.08-9.72,8.42-20.32,9.83-31.18,1.71,1.36,3.41,2.73,5.14,4.07l1.2.39Z"/>
            <path class="cls-3" d="M233.63,450.62c-1.4,10.86-4.75,21.45-9.83,31.18l.08.68c-5.29.72-10.53,1.55-15.77,2.48l-.08-.5c1.63-18.85,1.69-37.85.17-56.7l.04-.04c2.93,2.95,5.95,5.84,9,8.65,5.31,4.96,10.78,9.68,16.39,14.25Z"/>
            <path class="cls-3" d="M265.01,379.78l-.06.43c-6.71,20.15-13.44,40.28-20.15,60.41l-2.79-.93c-1.78-1.88-3.55-3.78-5.33-5.66l2.52-2.37c5.31-7.23,6.94-17.01,4.29-25.6-1.8-5.82-5.37-10.9-8.9-15.88-5.74-8.11-11.48-16.21-17.22-24.32,4.93,3.59,12.35-1.49,13.28-7.52.93-6.03-2.29-11.85-5.43-17.08-8.69-14.39-18.21-29.05-32.17-38.28,17.3,6.13,34.03,14.31,48.09,26.04,15.53,12.97,27.71,30.62,31.45,50.48l-.21,1.36c-2.46-.39-4.91-.74-7.37-1.09Z"/>
            <path class="cls-3" d="M207.7,399.06c-1.32-30.91-7.99-61.57-19.59-90.25l-1.42-.31c.52-2.4.5-4.87.45-7.37h.54c1.8.6,3.59,1.22,5.39,1.86,13.96,9.23,23.48,23.89,32.17,38.28,3.14,5.22,6.36,11.05,5.43,17.08-.93,6.03-8.34,11.11-13.28,7.52,5.74,8.11,11.48,16.21,17.22,24.32,3.53,4.98,7.1,10.06,8.9,15.88,2.64,8.59,1.01,18.38-4.29,25.6l-2.52,2.37c-3.01-3.2-6.03-6.4-9.06-9.62-5.57-5.93-11.17-11.87-16.77-17.82-1.36-1.45-2.95-2.93-4.67-4.09l.25-.35c.23-1.09.64-2.15,1.26-3.1Z"/>
            <path class="cls-3" d="M195.78,487.41l-.7-3.28c-23.04-34.32-43.38-70.43-60.72-107.94-6.03-12.99-11.77-26.47-12.72-40.76-.95-14.2,3.66-29.55,14.97-38.2-.75-.8-1.48-1.62-2.17-2.47-1.75.11-3.5.23-5.24.41-18.02,17.82-32.21,39.52-41.25,63.22-1.49,3.86-2.73,8.55-.27,11.89,1.59,2.19,4.36,3.12,6.94,3.94,9.39,2.97,18.81,5.93,28.2,8.9,3.68,15.05-13.5,29.59-9.35,44.49,1.71,6.17,6.75,10.76,11.56,14.99,17.96,15.8,35.95,31.59,53.93,47.39v1.47c5.57-1.49,11.19-2.83,16.83-4.05Z"/>
            <path class="cls-3" d="M77.8,409.91c-1.16-3.59-2.37-7.16-3.67-10.7-3.1-8.48-6.68-16.76-10.71-24.81,4.94,11.73,9.82,23.57,14.38,35.51Z"/>
            <path class="cls-3" d="M125.02,442.61c-4.81-4.23-9.85-8.82-11.56-14.99-4.15-14.91,13.03-29.44,9.35-44.49-9.39-2.97-18.81-5.93-28.2-8.9-2.58-.83-5.35-1.75-6.94-3.94-2.46-3.34-1.22-8.03.27-11.89,9.04-23.7,23.23-45.4,41.25-63.22-8.69.81-17.35,2.35-25.81,4.57-2.97,5.74-6.07,11.42-9.34,17-3.3,5.62-6.78,11.13-10.43,16.53-3.12,4.61-6.45,9.2-8.5,14.41-1.97,5.03-2.35,10.15,1.3,14.46,3.79,4.47,9.22,7.44,13.92,10.82,6.19,4.45,11.95,9.46,16.34,15.76,4.15,5.96,4.3,12.62,2.31,19.39-1.94,6.62-5,13.17-3.72,20.23,1.64,9.07,9,17.08,15.4,23.27,13.71,13.25,31.21,23.12,40.92,40.07.62,1.08.34,2.86-.9,3.43-17.77,8.14-36.77,13.14-54.53,21.28-.83.38-1.84.37-2.61-.05.05,1.01.15,2.01.19,3.02l2.89-.1c23.02-11.81,47.32-21.14,72.33-27.79v-1.47c-17.98-15.8-35.97-31.59-53.93-47.39Z"/>
            <path class="cls-3" d="M231.11,481.59c-2.42.27-4.83.58-7.23.89-5.29.72-10.53,1.55-15.77,2.48-4.13.74-8.24,1.57-12.33,2.46-5.64,1.22-11.25,2.56-16.83,4.05-25,6.65-49.31,15.98-72.33,27.79l-2.89.1c-.04-1.01-.13-2.01-.19-3.02-.51-.29-.92-.76-1.08-1.44-3.18-13.9-5.97-27.89-8.87-41.85-4.41-21.23-9.09-42.49-15.8-63.12-4.57-11.95-9.44-23.78-14.38-35.51-6.74-13.44-14.87-26.13-24.55-37.7-1.67,1.76-3.3,3.56-4.86,5.42-.71.85-1.38,1.72-2.06,2.59.85,1.16,1.73,2.31,2.58,3.48,18.36,25.48,33.43,53.04,41.96,83.38,4.85,17.25,7.14,34.64,8.68,52.46,1.44,16.61,2.72,33.31,6.85,49.5,38.33-14.37,77.67-25.85,115.95-40.34,1.8-.68,3.62,1.37,3.08,3.08-4,12.81-7.75,25.7-11.85,38.49-1.98,6.17-4.04,12.31-6.26,18.39-1.76,4.82-3.45,9.72-6.15,14.11-8.35,13.59-23.03,21.98-37.73,27.09-15.6,5.41-32.61,7.71-49.09,6.8-29.05-1.61-57.93-16.32-77.22-38.61.44.87.87,1.74,1.32,2.61,10.55,20.21,27.65,37.89,49.39,44.89,20.63,6.63,43.03,3.16,64.32-.93,18.89-3.61,38.42-7.97,53.54-19.86l3.53,1.18,36.3-108.83h-.02Z"/>
            <path class="cls-1" d="M388.01,549.54c-3.08-.04-6.11-.72-8.86-2.04-1.22-.6-2.44-1.36-3.12-2.54-1.67-2.99,1.18-6.77,4.44-7.91,3.24-1.14,6.85-.81,10.14-1.82-5.57-.56-11.09-2-16.23-4.23-2.29-.99-4.6-2.23-6.03-4.27-1.4-2.04-1.61-5.14.17-6.88,1.34-1.3,3.34-1.55,5.2-1.65,6.75-.33,13.54.47,20.05,2.35-5.84-2.97-11.4-6.44-16.62-10.39-1.38-1.05-2.81-2.19-3.47-3.8-1.2-2.87.54-6.3,3.16-7.93,2.64-1.63,5.91-1.82,9-1.63,4.83.27,9.62,1.36,14.1,3.2-5.43-4.67-9.02-11.42-9.85-18.54-.17-1.32-.21-2.73.45-3.86,1.22-2.15,4.23-2.35,6.67-1.9,4.67.89,8.8,3.34,12.14,6.71,3.78,3.8,6.57,8.77,7.97,13.98,2.64,9.81,1.22,20.23-1.24,30.08-2.42,9.7-5.88,19.26-11.58,27.48-5.7,8.22-13.83,15.01-23.46,17.74l-.83-.29c2.54-7.29,5.14-14.54,7.78-21.78v-.08Z"/>
            <path class="cls-1" d="M73.1,163.18c7.9-.05,15.02,4.56,21.16,9.05,5.9,4.32,12.01,8.78,17.17,13.96-.32-.98-.64-1.95-1-2.91l-.08.04c-5.99-11.17-15.44-22.69-28.12-22.71-3.55-.01-6.93.95-9.99,2.62.29-.01.57-.05.87-.05Z"/>
            <path class="cls-1" d="M306.64,153.34c1.4-14.62-1.01-30.93-11.95-40.76l-.93-.5c-14.2,8.38-30.19,13.75-46.58,15.63-3.61.43-7.52.62-10.63-1.28-8.84-5.37-3.08-20.36-9.46-28.47-12.99,19.18-30.72,34.81-50.3,47.18-6.19,3.92-13.09,7.64-20.38,6.98-6.57-.58-12.99-6.36-12.68-12.66-1.76,10.59-4.44,21.06-8.03,31.2-.45,1.3-.97,2.66-2.04,3.53-3.8,3.04-8.44-2.6-10.01-7.19.59,7.19-.83,14.5-3.88,21.03,3.37-2.07,6.77-3.98,10.42-5.62,8.37-3.77,16.35-7.87,17.42-17.98.2-1.92,1.97-3.09,3.77-2.16,12.82,6.56,27.07-.09,37.78-7.72,11.33-8.08,21.19-18.67,29.28-29.95.8-1.11,2.17-1.62,3.43-.9,10.97,6.27,22.48,13.85,35.23,15.74,13.84,2.05,26.09-5.36,36.21-14.02,1.89-1.62,4.77-.09,4.19,2.44-5.63,24.52-.4,49.77-3.49,74.55-3.82,30.64-17.12,64.04-45.98,79.04-33.13,17.22-69.82,2.99-99.99-14.85,11.89,10.04,25.66,17.94,40.38,23.07,10.06,3.55,20.56,5.8,31.22,6.59,17.88,1.3,36.38-1.34,52.03-10.06,15.67-8.69,28.12-23.97,31.03-41.67,2.56-15.69-2.33-31.63-2.15-47.55,0-.41.02-.85.04-1.26.39-14.27,4.69-28.16,6.05-42.39Z"/>
            <path class="cls-1" d="M137.24,259.94c.27,1.46.48,2.93.6,4.43.16,1.94.19,3.9.18,5.87,7.16,1.81,14.29,3.78,21.14,6.6,6.88,2.84,15.02,6.64,18.8,13.47,3.96,7.17.25,16-6.65,19.85-8.05,4.49-17.69.49-24.6-4.3-3.29-2.28-6.6-5-9.55-8.05.18,2.26.5,4.5,1.02,6.7,1.86,7.64,6.57,15.01,13.83,18.02,5.68,2.35,12.18,1.82,18.11.21,6.59-1.78,13.36-5.35,15.84-11.69.33-.83.56-1.67.72-2.54.52-2.4.5-4.87.45-7.37-.06-2.97-.21-5.97.37-8.86l.91-2.6c-14.72-5.13-28.49-13.03-40.38-23.07-3.7-2.19-7.3-4.43-10.78-6.67Z"/>
            <path class="cls-12" d="M111.11,182.88c-5.04-10.76-14.06-22.2-26.71-23.61s-23.48,9.02-26.92,20.49c-2.19,7.29-1.94,15.06-.58,22.48s3.53,14.16,6.65,20.66c5.78,12.03,16.66,22.63,30.77,22.75,6.13.05,12.02-2.23,16.23-6.73,3.83-4.1,6.29-9.81,5.67-15.48-.15-1.4-.46-2.76-.97-4.08l-2.8.77c8.51,21.48,23.47,39.9,42.11,53.44,18.65,13.55,40.97,22.13,63.97,24.03,25.9,2.14,53.93-4.29,71.68-24.46,8.09-9.2,13.39-20.53,14.42-32.79,1.26-14.85-3.02-29.47-2.67-44.3.35-14.88,5-29.21,6.18-44,.92-11.55-.47-24.18-7.01-34.05-1.56-2.35-3.39-4.51-5.48-6.4-1.33-1.21-3.3.76-1.97,1.97,8.66,7.88,11.7,19.76,11.9,31.1.25,13.87-3.77,27.36-5.57,41.01-.93,7.08-1.07,14.12-.46,21.24s1.76,14.44,2.23,21.7c.44,6.82.25,13.7-1.53,20.34-1.5,5.58-3.96,10.85-7.14,15.67-6.52,9.89-15.96,17.61-26.64,22.63-12.11,5.69-25.65,7.95-38.97,7.88-22.81-.13-45.28-7.15-64.53-19.31s-34.63-28.83-44.42-48.95c-1.2-2.46-2.3-4.97-3.31-7.51-.68-1.71-3.47-.99-2.8.77,1.85,4.87.76,10.11-2.09,14.37-3.01,4.5-7.82,7.44-13.2,8.08-12.67,1.52-23.49-7.43-29.37-17.85-3.19-5.66-5.35-11.87-6.95-18.14-1.71-6.74-2.68-13.85-1.7-20.79,1.55-10.96,9.39-22.55,21.27-23.65,13.57-1.26,22.86,11.41,29.16,21.61.6.98,1.99.13,1.52-.89h0Z"/>
            <path class="cls-12" d="M106.62,176.24c3.13,6.76,5.24,13.84,6.32,21.21.12.79,1.33,1.07,1.82.48,7.18-8.56,10.86-19.76,10.01-30.91l-2.25.3c1.51,4.22,7.34,12.58,12.34,7.32,1.14-1.19,1.65-2.81,2.19-4.33.71-2.02,1.38-4.06,2.02-6.11,1.25-4.02,2.36-8.08,3.33-12.18,1.11-4.72,2.03-9.47,2.78-14.26.22-1.45-1.86-2.11-2.25-.62-1.77,6.71,3.33,12.84,9.31,15.2,7.44,2.92,15.68-.55,22.12-4.31,13.51-7.89,26.15-17.88,37.07-29.07,6.14-6.29,11.74-13.1,16.69-20.37h-2.06c3.09,4.03,3.21,9.35,3.61,14.2.37,4.48.82,9.51,4.07,12.94,4.57,4.83,11.89,3.53,17.75,2.65,7.05-1.06,14.01-2.76,20.76-5.07,7.7-2.63,15.12-6.04,22.13-10.15,1.35-.79.13-2.89-1.22-2.09-11.97,7.03-25.13,11.93-38.79,14.41-3.3.6-6.67,1.16-10.03,1.32-2.92.14-6.03-.18-8.31-2.19-3.36-2.96-3.65-7.97-3.98-12.12-.42-5.14-.64-10.82-3.92-15.09-.56-.72-1.52-.8-2.06,0-8.18,12.05-18.26,22.72-29.46,32.01-5.6,4.65-11.48,8.95-17.57,12.93s-13.02,8.61-20.65,8.71c-3.75.05-7.32-1.29-10.04-3.9-2.54-2.44-4.08-5.85-3.15-9.37l-2.25-.62c-1.42,9.19-3.52,18.26-6.3,27.13-.68,2.16-1.37,4.33-2.16,6.46-.55,1.47-1.46,3.31-3.32,3.17-1.5-.11-2.78-1.38-3.7-2.46-1.17-1.37-2.08-3.02-2.69-4.71-.41-1.13-2.35-1.07-2.25.3.84,10.55-2.47,21.23-9.26,29.37l1.82.48c-1.12-7.44-3.63-14.72-7.35-21.26-.4-.71-1.42-.09-1.08.63h0Z"/>
            <path class="cls-12" d="M136.23,257.73c.51,2.41.6,5.05.73,7.51s.11,4.87,0,7.3c-.21,4.81-.71,9.59-1,14.4-.52,8.75-.16,17.9,4.1,25.78,3.83,7.09,10.36,11.92,18.5,12.54,4.34.33,8.79-.41,12.95-1.66,3.61-1.08,7.13-2.66,10.1-4.99,3.39-2.66,5.72-6.31,6.41-10.59.82-5.11-.27-10.32.64-15.42.26-1.49-2.01-2.14-2.29-.63-1.48,7.81,1.68,16.76-4.46,23.13-2.49,2.58-5.76,4.33-9.11,5.53-3.77,1.35-7.81,2.22-11.83,2.28s-8.13-.86-11.57-3.14c-2.94-1.95-5.27-4.72-7-7.76-4.21-7.38-4.58-16.06-4.21-24.35.23-5.12.76-10.22.85-15.34.05-2.51.02-5.04-.23-7.54-.11-1.17-.25-2.34-.46-3.49-.23-1.31-.71-2.55-1.06-3.84-.18-.69-1.21-.4-1.06.29h0Z"/>
            <path class="cls-12" d="M136.37,296.47c-9.62,6.34-14.35,18.22-15.61,29.28-1.55,13.65,2.43,27.23,7.59,39.73,5.49,13.3,11.94,26.26,18.5,39.06s13.72,25.91,21.12,38.57c8.26,14.14,16.97,28.01,26.12,41.59.82,1.22,2.81.07,1.98-1.16-15.87-23.72-30.51-48.26-43.75-73.54-6.65-12.69-12.99-25.56-18.89-38.61s-10.81-25.79-10.82-39.67c0-6.36,1.11-12.75,3.5-18.66s6.33-11.15,11.17-15.41c.64-.56-.2-1.65-.91-1.18h0Z"/>
            <path class="cls-12" d="M392.82,548.17c-3.07.49-6.31.47-9.34-.27-2.29-.56-6.65-1.75-6.86-4.66-.2-2.63,2.5-4.76,4.75-5.43,3.1-.92,6.4-.73,9.51-1.64,1.12-.33.81-1.83-.26-1.94-4.74-.48-9.42-1.63-13.87-3.35-3.45-1.34-8.62-3.41-8.47-7.89.08-2.24,1.8-3.3,3.84-3.61,2.21-.34,4.56-.26,6.78-.18,4.94.18,9.83.98,14.58,2.34,1.11.32,1.87-1.35.8-1.9-4.2-2.15-8.27-4.54-12.17-7.19-1.97-1.34-4.05-2.69-5.81-4.31-1.61-1.48-2.42-3.3-1.67-5.44,1.58-4.49,6.9-5.09,10.98-4.87,4.83.25,9.56,1.39,14.04,3.21,1,.41,1.83-1.12,1.05-1.8-3.56-3.12-6.35-7.07-7.98-11.52-.82-2.25-1.46-4.67-1.6-7.06-.06-1.05-.01-2.21.77-3.01.72-.74,1.84-.97,2.83-1.02,4.04-.2,8.33,2,11.42,4.42,3.38,2.65,6.02,6.13,7.91,9.97,4.7,9.56,3.91,20.86,1.74,30.99s-5.42,20.28-10.97,29.09-13.91,16.37-24.13,19.39c-1.55.46-.9,2.88.67,2.43,21.97-6.28,32.4-29.21,36.8-49.76,2.36-11.04,3.07-23.11-2.21-33.45-2.12-4.15-5.13-7.89-8.86-10.7-3.43-2.59-8.14-4.88-12.55-4.59-2.35.15-4.65,1.23-5.41,3.62-.82,2.58.07,5.9.81,8.41,1.64,5.54,4.86,10.56,9.22,14.34l1.05-1.8c-3.96-1.6-8.11-2.62-12.36-3.06-3.83-.4-8.17-.5-11.56,1.62-2.74,1.71-4.72,5.16-3.88,8.43.45,1.72,1.67,3.09,3.01,4.19,1.61,1.32,3.34,2.53,5.05,3.71,4.07,2.8,8.33,5.33,12.73,7.58l.8-1.9c-4.32-1.24-8.76-2.02-13.25-2.32-2.27-.15-4.56-.18-6.83-.07-1.73.08-3.56.24-5.09,1.13-2.95,1.72-3.26,5.57-1.76,8.38,1.79,3.34,5.77,4.9,9.1,6.17,4.64,1.78,9.48,2.85,14.41,3.38l-.26-1.94c-3.71,1.07-7.86.53-11.36,2.32-2.59,1.32-4.97,4.21-4.45,7.27.58,3.41,4.41,4.94,7.34,5.82,3.73,1.11,7.66,1.19,11.38.06,1.02-.31.58-1.73-.43-1.57h0Z"/>
            <path class="cls-12" d="M387.46,549.31c-1.55,2.74-2.53,5.86-3.64,8.8s-2.24,6.15-3.34,9.23c-2.21,6.16-4.39,12.33-6.54,18.51-4.3,12.36-8.42,24.78-12.45,37.23-2.27,7-4.56,14-6.66,21.05-.45,1.52,1.88,2.14,2.36.65,4.03-12.45,7.88-24.95,11.98-37.37,4.05-12.27,8.2-24.5,12.44-36.7,1.18-3.4,2.37-6.79,3.57-10.18s2.73-7.09,3.41-10.73c.12-.66-.77-1.13-1.14-.48h0Z"/>
            <path class="cls-12" d="M264.25,380.03c-5.81,15.61-11.03,31.43-16.34,47.22-5.25,15.62-10.47,31.26-15.69,46.89-10.45,31.26-20.87,62.53-31.3,93.8-5.85,17.53-11.7,35.06-17.54,52.58-.55,1.66,2.06,2.37,2.61.72,10.48-31.43,20.96-62.85,31.44-94.28,10.43-31.27,20.88-62.52,31.24-93.81,5.8-17.54,11.75-35.02,16.99-52.74.27-.9-1.07-1.24-1.39-.38h0Z"/>
            <path class="cls-12" d="M184.04,624.79c5.3,1.73,10.8,2.98,16.24,4.21s10.92,2.42,16.4,3.54c10.96,2.24,21.97,4.29,33.01,6.09,21.97,3.59,44.08,6.35,66.25,8.28,12.52,1.09,25.07,1.9,37.63,2.36,1.67.06,1.66-2.51,0-2.59-22.2-1.13-44.35-2.86-66.43-5.48-22.11-2.63-44.12-6.09-65.97-10.34-6.05-1.18-12.09-2.41-18.12-3.7s-12.37-2.83-18.61-3.82c-.94-.15-1.34,1.14-.4,1.45h0Z"/>
            <path class="cls-12" d="M264.57,380.58c11.07,2.15,22.31,3.57,33.45,5.32,11.16,1.76,22.32,3.56,33.45,5.45,22.28,3.78,44.52,7.79,66.72,12.01,12.48,2.37,24.93,4.91,37.41,7.26,1.56.29,2.25-2.07.66-2.41-22.16-4.78-44.52-8.81-66.84-12.77-22.26-3.95-44.56-7.65-66.89-11.14-12.53-1.96-25.11-4.2-37.74-5.44-.97-.1-1.2,1.53-.23,1.71h0Z"/>
            <path class="cls-12" d="M435.82,410.75c-2.3,4.27-4.03,8.87-5.86,13.36s-3.61,9.02-5.32,13.57c-3.45,9.17-6.67,18.42-9.64,27.76-1.69,5.31-3.3,10.65-4.83,16.01-.42,1.47,1.86,2.09,2.28.63,5.36-18.68,11.6-37.09,18.75-55.16,2.04-5.16,4.42-10.24,6.18-15.51.31-.91-1.1-1.5-1.55-.65h0Z"/>
            <path class="cls-12" d="M323.65,387.94c1.23-.91,1.64-2.3,1.86-3.76.17-1.19.1-3.29,1.31-3.98,1.03-.59,2.62,0,3.7.19,1.47.27,2.94.52,4.41.78,2.62.46,5.23.92,7.85,1.37,10.87,1.9,21.73,3.85,32.61,5.73,6.13,1.06,12.27,2.13,18.4,3.19l-.81-1.42c-1.05,2.6-1.73,5.33-2.15,8.09-.2,1.33,1.81,1.92,2.05.56.47-2.78,1.29-5.43,2.34-8.04.22-.54-.24-1.33-.81-1.42-11.3-1.93-22.59-3.86-33.89-5.74-5.65-.94-11.3-1.9-16.95-2.86-2.87-.48-5.73-.97-8.6-1.45-1.31-.22-2.62-.45-3.93-.66-1.2-.19-2.48-.52-3.7-.38-4.69.55-2.28,6.29-4.39,8.87-.39.47.13,1.35.71.92h0Z"/>
            <path class="cls-12" d="M343.53,381.31c.53-1.89.91-3.75,1.83-5.51s2.06-3.28,3.45-4.64c2.78-2.71,6.37-4.6,10.17-5.39,8.23-1.72,16.26,2.76,20.83,9.48,1.28,1.88,2.33,3.91,3.08,6.05.39,1.12.71,2.26.95,3.42s.21,2.32.89,3.25c.33.45,1.12.6,1.42,0,.93-1.88-.14-4.75-.76-6.63-.69-2.12-1.63-4.18-2.8-6.08-2.39-3.9-5.75-7.29-9.79-9.47-7.97-4.31-17.74-3.02-24.49,2.99-3.3,2.94-6.5,7.73-6.06,12.35.07.7,1.07.92,1.28.17h0Z"/>
            <path class="cls-12" d="M187.5,301.77c7.6,2.97,15.28,5.84,22.67,9.31,7.38,3.46,14.53,7.43,21.25,12.06,12.59,8.67,23.62,19.74,31.21,33.08,4.18,7.36,7.19,15.31,8.83,23.62.29,1.49,2.54.85,2.27-.63-2.79-15.09-10.52-28.92-20.66-40.31-10.8-12.14-24.48-21.37-39.06-28.38-8.43-4.05-17.15-7.53-26.16-9.99-.82-.22-1.1.95-.34,1.24h0Z"/>
            <path class="cls-12" d="M239.12,454.33c-6.34-5.99-13.17-11.44-19.58-17.36-6.41-5.91-12.64-12.05-18.57-18.44-2.53-2.73-5.45-5.98-5.67-9.89-.18-3.21,1.49-6.79,5.08-6.99s7.05,2.99,9.42,5.45c3.26,3.39,6.46,6.86,9.69,10.28,3.6,3.82,7.19,7.64,10.79,11.45,1.83,1.94,3.65,3.88,5.48,5.82s3.57,3.99,5.58,5.72c.77.66,2.23-.24,1.52-1.17-1.52-1.99-3.3-3.75-5.02-5.57s-3.54-3.76-5.31-5.64c-3.48-3.7-6.96-7.4-10.44-11.09s-6.95-7.41-10.44-11.09c-2.64-2.79-5.94-5.79-9.89-6.34-3.54-.5-6.71,1.51-8.03,4.78-1.44,3.55-.59,7.39,1.35,10.57,2.29,3.76,5.67,6.89,8.71,10.03,3.34,3.44,6.74,6.83,10.24,10.11,7.67,7.2,15.61,14.5,24.51,20.15.48.3,1.01-.39.6-.78h0Z"/>
            <path class="cls-12" d="M218.41,435.77c.29-.05.6-.04.87-.12s.55-.18.82-.29c.52-.21,1.02-.46,1.49-.75.99-.62,1.89-1.4,2.66-2.28,1.57-1.81,2.51-4.06,2.75-6.44.05-.51-.47-.95-.95-.95-.55,0-.9.44-.95.95-.18,1.95-1.04,3.81-2.25,5.32-.63.79-1.37,1.48-2.19,2.06-.4.28-.82.54-1.26.78-.47.25-.92.54-1.4.75-.6.26-.13,1.06.41.97h0Z"/>
            <path class="cls-12" d="M206.81,402.39c.84-1.97,1.88-3.94,3.7-5.19l-1.01-.13c3.86,4.9,8.36,9.38,12.73,13.84s8.86,8.86,13.46,13.11c1.01.93,2.51-.57,1.51-1.51-4.57-4.28-9.09-8.62-13.49-13.08s-8.54-9.18-13.02-13.54c-.35-.34-.83-.29-1.18,0-1.92,1.6-3.41,3.69-3.5,6.28-.01.41.64.63.82.22h0Z"/>
            <path class="cls-12" d="M187.55,308.97c1.85,5.79,4.02,11.46,5.9,17.24s3.58,11.63,5.08,17.53c3.03,11.85,5.26,23.92,6.66,36.07.78,6.83.99,13.71,1.77,20.53.11,1,1.57,1.06,1.61,0,.22-6.2-.51-12.51-1.18-18.67s-1.49-11.94-2.53-17.87c-2.12-12.14-5.05-24.15-8.82-35.88-2.12-6.57-4.37-13.2-7.43-19.4-.29-.59-1.26-.18-1.06.45h0Z"/>
            <path class="cls-12" d="M106.89,519.71c7.7-3.65,15.56-7.04,23.43-10.31,7.81-3.24,15.72-6.23,23.72-8.96,16.08-5.49,32.53-9.91,49.21-13.15,4.64-.9,9.29-1.71,13.96-2.44s9.51-1.27,14.24-2.02c1.42-.23,1.1-2.62-.34-2.52-8.45.59-16.92,2.1-25.24,3.65s-16.87,3.46-25.2,5.63c-16.48,4.3-32.64,9.77-48.3,16.45-4.41,1.88-8.77,3.87-13.09,5.95s-8.64,4.46-12.91,6.82c-.6.33-.07,1.18.53.9h0Z"/>
            <path class="cls-12" d="M207.72,427.63c-.43,2.22-.08,4.77.02,7.02s.2,4.6.26,6.9c.13,4.77.21,9.54.18,14.31-.07,9.55-.5,19.08-1.32,28.6-.13,1.5,2.2,1.49,2.33,0,.82-9.51,1.24-19.05,1.21-28.6-.02-4.77-.12-9.55-.36-14.31-.12-2.3-.25-4.6-.43-6.9s-.18-4.89-.96-7.02c-.15-.4-.83-.51-.93,0h0Z"/>
            <path class="cls-12" d="M135.86,293.83c-16.55.29-33.16,3.87-48.61,9.73-15.21,5.76-29.52,14.05-41.71,24.86-26.43,23.43-39.95,57.54-44.04,92.04-2.42,20.4-1.68,41.04.54,61.42,2.08,19.02,4.89,38.23,10.27,56.63,4.85,16.61,12.12,32.61,23.18,46.04,10.13,12.3,23.38,22.29,38.74,26.95,18.32,5.56,37.84,3.39,56.37.12,17.36-3.07,35.5-6.27,51.15-14.79,3.64-1.98,6.99-4.3,10.26-6.84,1.03-.8-.42-2.23-1.43-1.43-13.68,10.66-31.24,15.1-47.92,18.46-18.04,3.63-36.72,7.19-55.18,4.93-16.65-2.04-31.59-9.83-43.51-21.52s-20.22-26.21-25.91-41.7c-6.42-17.46-9.68-35.91-12.21-54.28-2.71-19.61-4.3-39.46-3.34-59.26,1.69-34.85,12.1-70.61,36.32-96.63,22.03-23.67,53.32-37.49,85.09-41.66,3.97-.52,7.95-1,11.93-1.35,1.06-.09,1.1-1.71,0-1.69h0Z"/>
            <path class="cls-12" d="M40.56,337.58c10.31,7.62,14.78,20.5,19.57,31.86,5.74,13.6,11.4,27.23,16.63,41.03,10.3,27.18,19.2,55.12,23.43,83.94,1.18,8.01,1.97,16.08,2.32,24.17s.08,16.32-.16,24.5c-.04,1.36,1.92,1.29,2.06,0,.84-7.34.84-14.82.6-22.19s-.85-14.71-1.77-22.01c-1.83-14.49-4.88-28.8-8.76-42.88-7.91-28.74-19.21-56.4-30.81-83.81-2.91-6.89-5.64-13.93-9.16-20.53-3.21-6.03-7.36-11.65-13.4-15.06-.65-.37-1.15.56-.57.98h0Z"/>
            <path class="cls-12" d="M21.59,560.41c.45,13.35,1.34,26.67,2.2,40s1.71,26.66,2.58,40c.39,5.94.6,12.02,2.35,17.75,1.36,4.46,3.73,8.54,6.95,11.91,6.2,6.47,14.92,9.97,23.49,11.97,10.29,2.41,20.94,2.8,31.46,3.14,13.21.42,26.43.3,39.64-.22,26.63-1.04,53.17-3.68,79.64-6.64,6.58-.74,13.16-1.5,19.73-2.25,5.5-.64,11.22-1.14,16.22-3.73,8.97-4.65,11.51-14.87,11.89-24.21.1-2.4.06-4.79.06-7.19,0-1.41-2.19-1.41-2.19,0,0,4.67-.3,9.43-1.26,14.01-.91,4.31-2.54,8.66-5.68,11.86-3.76,3.82-9.05,5.13-14.2,5.86-6.19.89-12.43,1.48-18.64,2.19-25.65,2.93-51.35,5.64-77.15,7.01-12.87.68-25.76,1.03-38.64.89-11.13-.12-22.46-.21-33.49-1.9-8.65-1.33-17.51-3.69-24.74-8.81-3.41-2.41-6.33-5.51-8.38-9.15-2.76-4.88-3.66-10.47-4.13-15.99-1.08-12.74-1.76-25.53-2.63-38.28-.88-12.91-1.53-25.87-2.77-38.75-.3-3.15-.6-6.29-.91-9.44-.09-.87-1.41-.91-1.38,0h0Z"/>
            <path class="cls-12" d="M201.93,629.84c-.1,3.94.56,7.93.86,11.86s.48,7.94.55,11.92c.14,7.96-.21,15.93-1.01,23.85-.14,1.39,2.04,1.39,2.18,0,.8-8.01,1.08-16.05.83-24.09-.12-3.98-.38-7.96-.77-11.92s-.69-7.99-1.92-11.71c-.13-.39-.71-.33-.73.1h0Z"/>
            <path class="cls-12" d="M129.87,293.57c-6.46,5.36-12.08,11.89-17.22,18.51-5.11,6.58-9.79,13.5-13.93,20.74s-7.78,14.76-10.88,22.5c-1.45,3.6-3.17,7.54-2.72,11.51s3.07,6.26,6.52,7.65c2.31.93,4.74,1.58,7.11,2.33,2.58.82,5.17,1.63,7.75,2.45,5.33,1.68,10.65,3.37,15.98,5.05l-.85-.85c1.71,7.31-1.66,14.51-4.58,21.03s-6.25,13.52-5.29,20.86c1.18,8.96,8.67,14.85,15.02,20.43,7.99,7.02,15.98,14.04,23.97,21.06,9.11,8.01,18.18,16.08,27.36,24.01,1.16,1,2.84-.66,1.69-1.69-14.99-13.4-30.2-26.56-45.31-39.84-3.63-3.19-7.3-6.33-10.87-9.58-3.02-2.75-5.97-5.72-7.82-9.41-3.3-6.54-1.31-13.68,1.35-20.05s6.22-12.65,7.17-19.61c.22-1.63.3-3.27.15-4.9-.08-.83-.2-1.65-.37-2.46-.27-1.24-1-1.36-2.14-1.72-4.7-1.49-9.4-2.97-14.1-4.46s-9.35-2.87-13.98-4.43c-1.75-.59-3.62-1.31-4.88-2.72-1.34-1.5-1.63-3.51-1.45-5.45.39-4.12,2.45-8.22,4.06-11.99s3.52-7.83,5.49-11.64c7.84-15.17,17.84-29.19,29.48-41.67,1.44-1.55,2.84-3.13,4.23-4.72.57-.65-.29-1.49-.94-.94h0Z"/>
            <path class="cls-12" d="M224.38,482.12c1.65-2.32,2.81-5.1,3.91-7.71s2.06-5.25,2.9-7.95c1.7-5.46,2.9-11.07,3.58-16.75.15-1.29-1.85-1.27-2.02,0-.71,5.57-1.88,11.08-3.55,16.44-.81,2.61-1.75,5.19-2.76,7.73s-2.34,5.1-3.27,7.73c-.26.75.8,1.07,1.2.51h0Z"/>
            <path class="cls-12" d="M239.53,432c5.71-6.59,7.32-16.51,5.27-24.83-1.17-4.74-3.57-9.05-6.25-13.09-3-4.52-6.22-8.91-9.34-13.35-3.62-5.14-7.25-10.28-10.88-15.42l-1.5,1.5c4.22,2.93,9.64.6,12.54-3.06,3.94-4.96,2.66-11.48.21-16.82-1.44-3.13-3.29-6.07-5.08-9.01-1.64-2.69-3.3-5.36-5.03-7.99-3.49-5.32-7.24-10.5-11.46-15.27-4.71-5.32-10.05-10.11-16.12-13.84-1.29-.79-2.46,1.23-1.18,2.02,9.9,6.17,17.65,14.98,24.26,24.49,3.28,4.72,6.31,9.6,9.27,14.51s6.74,11.14,5.15,17.13c-1.2,4.53-6.95,9.06-11.46,5.94-.88-.61-2.12.61-1.5,1.5,6.09,8.59,12.23,17.15,18.3,25.76,2.76,3.92,5.52,7.97,7.24,12.47,1.58,4.12,2.15,8.54,1.72,12.94-.49,5-2.37,9.57-4.91,13.85-.26.45.38.98.74.57h0Z"/>
            <path class="cls-12" d="M238.94,196.31c-.03,2.56.03,5.11.12,7.66s.35,5.13.23,7.66c-.05,1.11,1.68,1.65,2.17.59.89-1.92,1.76-4.57,3.92-5.42,2.02-.8,3.62.83,4.21,2.63,1.72,5.19-3.76,9.06-6.59,12.61-.96,1.2.74,2.92,1.71,1.71,2.18-2.73,5.03-5.05,6.61-8.22,1.3-2.61,1.38-5.64-.05-8.23-1.3-2.36-3.89-3.71-6.53-2.8-2.84.97-4.52,4.16-5.42,6.83h2.25c-.38-2.49-.38-5.09-.56-7.6s-.39-4.95-.68-7.41c-.1-.87-1.38-.92-1.39,0h0Z"/>
            <path class="cls-12" d="M138.89,265.33c-2.53.64-4.92,1.48-7.57,1.57s-5.2-.31-7.67-1.17c-4.95-1.73-9.15-5.34-11.21-10.19-.47-1.11-2.03-.42-2.09.57-.15,2.55-.49,5.45-2,7.59-1.95,2.76-5.21,2.11-7.48.1-2.48-2.2-4.24-5.34-5.64-8.31-.75-1.58-1.37-3.22-1.88-4.89s-.61-3.63-1.54-5.08c-.36-.56-1.3-.51-1.47.19-.46,1.88.41,4.1.98,5.89.63,1.98,1.42,3.92,2.35,5.78,1.75,3.49,4.08,7.44,7.58,9.44,2.97,1.7,6.55,1.23,8.69-1.52,1.99-2.56,2.47-6.06,2.66-9.2l-2.09.57c2.29,5.39,7.08,9.32,12.57,11.18,4.95,1.67,12.14,2.06,16.3-1.7.37-.34-.02-.93-.47-.81h0Z"/>
            <path class="cls-12" d="M65.74,164.4c.17-13.26,3.8-26.41,10.71-37.75l-1.93-.81c-1.5,4-6.66,4.26-10.07,2.84-5.11-2.13-6.38-7.95-5.66-12.98.83-5.84,3.74-11.37,6.97-16.23s6.81-8.81,11.06-12.39c4.9-4.12,10.54-7.38,16.58-9.5.47-.17.83-.56.83-1.08,0-11.35,2.74-22.69,7.8-32.84,2.5-5.01,5.55-9.76,9.13-14.07,1.72-2.07,3.52-4.27,5.68-5.9,1.95-1.47,5.08-3.06,7.16-.93,1.1,1.13,1.49,2.83,1.93,4.3.51,1.7,1.02,3.41,1.53,5.11,1.12,3.75,2.24,7.5,3.36,11.25.23.78,1.4,1.25,1.99.53,13.56-16.72,32.72-27.67,53.03-34.13,10.3-3.28,21-5.58,31.74-6.76s23.05-1.19,31.05,6.49c6.46,6.2,9.51,18.35,1.92,24.91-.81.7-.19,2.34.92,2.22,15.36-1.69,31.58.81,45.41,7.86,10.78,5.5,21.48,15.68,19.21,28.9-1.02,5.94-4.5,11.68-10.45,13.67-1.07.36-1.41,1.91-.33,2.5,9.64,5.27,18.21,13.13,22.73,23.29,4.16,9.36,3.88,20.31-1.29,29.23-2.74,4.73-6.83,8.67-11.93,10.75-.63.26-1.17.88-.92,1.62,2.84,8.39,6.17,17.84,3.73,26.74-1.8,6.56-7.07,13.05-14.31,13.35-1.59.07-1.59,2.54,0,2.47,8-.34,14.05-6.75,16.47-14.02,3.21-9.64-.25-20.07-3.34-29.25l-.92,1.62c10.05-4.07,16.32-13.92,17.78-24.43,1.61-11.58-3.08-22.78-10.73-31.34-4.5-5.03-9.98-9.17-15.9-12.41l-.33,2.5c12.08-4.04,15.4-19.48,10.43-30.08-6.43-13.73-22.64-20.68-36.55-23.92-9.4-2.19-19.18-2.73-28.77-1.66l.92,2.22c7.11-6.15,6.19-16.98,1.52-24.31C247.88,2.54,236.22-.13,225.7,0c-5.88.08-11.74.91-17.53,1.89s-11.27,2.19-16.8,3.71c-10.9,2.99-21.54,7.12-31.4,12.67-10.97,6.17-20.92,14.16-28.86,23.96l1.99.53c-1.07-3.58-2.14-7.16-3.21-10.74-.92-3.08-1.53-6.61-3.11-9.45-3.28-5.89-10.03-2.42-13.57,1.18-8.69,8.83-14.97,20.13-18.36,32.01-1.92,6.73-2.87,13.71-2.87,20.7l.83-1.08c-12.15,4.28-22.49,12.82-29.42,23.63-3.5,5.46-6.61,11.76-6.96,18.34-.31,5.63,1.96,11.27,7.46,13.41,4.67,1.82,10.78.75,12.69-4.39.43-1.15-1.33-1.81-1.93-.81-7.05,11.68-10.74,25.17-10.31,38.82.03.92,1.42.92,1.43,0h0Z"/>
          </g>
          <g>
            <path class="cls-12" d="M275.63,177.91c.04-.1.06-.23.11-.33.08-.15.2-.23.25-.4.06-.23.09-.54.1-.77.03-.53-.03-1.11-.17-1.62-.3-1.12-.89-2.1-1.66-2.96s-1.74-1.47-2.79-1.9c-.47-.19-.95-.33-1.45-.4-.31-.05-.63-.09-.94-.09-.26,0-.5.05-.73.18-.16.09-.28.22-.37.37.21-.18.24-.23.09-.14-.64.31-.43,1.28.19,1.46.06.02.12.04.19.06l-.38-.22c-.13-.17-.1-.13.09.11.13.13.28.22.46.27.16.05.31.07.48.08.1,0,.2,0,.3.01.07,0,.13.01.2.02-.12-.02-.11-.02.01,0,.43.08.85.19,1.26.36-.19-.08.12.06.16.08.11.05.21.11.31.16.19.11.38.22.56.35.03.02.3.22.15.11.08.06.16.13.24.2.18.16.36.32.52.49.36.37.46.52.74.9s.51.79.7,1.23c-.05-.12.07.17.06.16.05.13.11.26.16.39.06.16.11.36.16.56.03.12.08.23.1.33.03.14.03.26.1.4.04.08.14.17.17.25-.08-.19-.03.2-.03.24.01.38.53.44.66.09h0Z"/>
            <path class="cls-12" d="M229.2,247.92c3.87,5.92,8.02,14.23,16.2,14.33,3.75.05,6.44-2.32,8.05-5.53.92-1.84,1.66-3.79,2.27-5.75.32-1.01.6-2.03.84-3.06s.71-2.2.3-3.19c-.23-.56-.95-.91-1.44-.38-.63.69-.65,1.42-.85,2.32-.21.96-.45,1.91-.73,2.85-.52,1.77-1.14,3.52-1.89,5.2-1.37,3.05-3.46,5.59-7.09,5.33-7.31-.53-10.1-8.49-15-12.64-.35-.29-.96.08-.67.52h0Z"/>
            <path class="cls-12" d="M275.37,192.57c0,6.23-2.45,11.28-5.48,11.28s-5.48-5.05-5.48-11.28,2.45-11.28,5.48-11.28,5.48,5.05,5.48,11.28Z"/>
            <path class="cls-12" d="M209.05,177.82s.04-.43-.03-.24c.03-.09.13-.17.17-.25.07-.13.07-.21.09-.35s.07-.24.11-.38c.05-.17.09-.39.14-.52.06-.15.13-.29.19-.44,0,0,.1-.25.06-.16.18-.42.4-.82.67-1.19.07-.1.13-.2.2-.29,0,0,.2-.25.09-.12.15-.19.31-.36.48-.53s.34-.33.52-.49c.08-.07.16-.13.24-.2-.15.12.08-.06.11-.08.19-.14.4-.26.6-.38.09-.05.18-.1.27-.14.03-.02.4-.18.21-.1.41-.17.83-.28,1.26-.36.13-.02.13-.02.01,0,.05,0,.1-.01.15-.01.12,0,.24-.01.35-.02.17,0,.32-.02.48-.08.18-.05.33-.14.46-.27.19-.24.22-.28.09-.11l-.38.22c.06-.02.12-.04.19-.06.62-.18.83-1.14.19-1.46-.15-.09-.12-.04.09.14-.09-.16-.22-.28-.37-.37-.22-.14-.47-.18-.73-.18-.3,0-.6.04-.89.09-.5.07-.99.2-1.46.39-1.07.43-2.06,1.07-2.84,1.92s-1.34,1.81-1.65,2.91c-.15.52-.2,1.08-.18,1.62,0,.24.04.59.1.82.05.17.17.26.25.4.05.1.07.23.11.33.12.35.64.3.66-.09h0Z"/>
            <ellipse class="cls-12" cx="214.12" cy="192.57" rx="5.48" ry="11.28"/>
          </g>
        </g>
      </g>
    </g>
  </g>
</svg>