<?xml version="1.0" encoding="UTF-8"?><svg xmlns="http://www.w3.org/2000/svg" viewBox="0 0 155.14 130.28"><defs><style>.cls-1{opacity:.3;}.cls-1,.cls-2{fill:#f6dd35;}.cls-1,.cls-3{mix-blend-mode:multiply;}.cls-4,.cls-3{fill:#c0dffe;}.cls-5{isolation:isolate;}.cls-3{opacity:.7;}.cls-6{fill:#271857;}</style></defs><g class="cls-5"><g id="Capa_2"><g id="OBJECTS"><ellipse class="cls-3" cx="85.51" cy="112.93" rx="69.62" ry="17.35"/><path class="cls-6" d="M142.81,60.51c2.37-3.87,1.08-9.44-2.13-12.42-.99-.92-2.47.55-1.48,1.48,1.35,1.29,2.21,2.98,2.55,4.81s-.02,3.66-.67,5.4c-.38,1.03,1.18,1.61,1.72.73h0Z"/><path class="cls-2" d="M140.29,59.72c-45.01,2.51-90.08,4.5-135.15,5.97-.68.02-1.36.05-2.05.06l-.03-.7c-3.08-1.24-2.87-6.13-.36-8.32.83-.73,1.78-1.24,2.8-1.6,2.07-.73,4.41-.86,6.63-.95,2.96-.12,5.93-.24,8.89-.36,34.91-1.4,69.84-2.79,104.74-4.19,4.32-.17,8.63-.35,12.95-.52l.64-.49c.1.14.19.27.3.4l.79.29c2.57,2.81,3.26,7.26,1.54,10.71l-1.44.29-.27-.61Z"/><path class="cls-2" d="M139.36,48.63l-.64.49c-4.32.17-8.63.35-12.95.52l-.07-1.9c-6.29-11.54-12.58-23.08-18.88-34.62-.99-1.82-2.3-3.85-4.36-4.01-2.3-.18-3.93,2.04-5.69,3.52-1.75,1.49-5.25,1.78-5.65-.48-.17-.97.4-1.92.95-2.73,2.89-4.4,7.11-9.37,12.25-8.25,2.56.56,4.54,2.58,6.25,4.57,11.19,13.1,18.14,29.35,28.79,42.88Z"/><path class="cls-4" d="M140.29,59.72l.27.61c1.01,16.18,1.38,34.29-9.54,46.27-6.22,6.83-15.7,10.55-24.91,9.78-9.21-.78-17.94-6.01-22.94-13.78-1.74-2.68-3.05-5.66-5.29-7.93s-5.77-3.68-8.64-2.3c-2.6,1.26-3.74,4.3-4.92,6.97-3.69,8.32-10.31,15.49-18.71,19-8.38,3.53-18.52,3.11-26.18-1.81-7.66-4.92-12.14-13.7-13.89-22.62-1.74-8.93-1.06-18.12-.36-27.2l-.04-1.02c45.07-1.48,90.14-3.46,135.15-5.97Z"/><path class="cls-2" d="M5.05,53.92c10.04-10,18.94-21.16,26.43-33.18,2.38-3.81,4.64-7.74,7.82-10.93,3.17-3.17,7.42-5.56,11.9-5.42,3.33.12,6.44,1.6,9.3,3.31.76.48,1.57,1,1.93,1.81.97,2.1-1.57,4.3-3.89,4.38-2.3.08-4.52-1-6.84-.97-4.14.03-7.43,3.41-9.98,6.67-8.11,10.28-14.44,21.82-20.73,33.3l.03.94c-2.96.12-5.93.24-8.89.36-2.22.1-4.56.22-6.63.95l-.46-1.22Z"/><path class="cls-1" d="M140.45,49.32l-.79-.29c-.11-.14-.21-.26-.3-.4l-.64.49c-4.32.17-8.63.35-12.95.52-34.91,1.4-69.84,2.79-104.74,4.19-2.96.12-5.93.24-8.89.36-2.22.1-4.56.22-6.63.95-1.03.36-1.97.87-2.8,1.6-2.51,2.19-2.72,7.07.36,8.32v.13c6.67-1.44,13.32-.92,19.99-.13,13.27-.48,26.54-.99,39.81-1.55,3.42-.27,6.84-.55,10.25-.86,6.82-.62,14.15-1.22,21.24-.56,15.32-.73,30.63-1.5,45.94-2.36l.27.61,1.44-.29c1.71-3.45,1.03-7.9-1.54-10.71Z"/><path class="cls-1" d="M139.36,48.63l-.64.49c-4.32.17-8.63.35-12.95.52l-.07-1.9c-6.29-11.54-12.58-23.08-18.88-34.62-.99-1.82-2.3-3.85-4.36-4.01-2.3-.18-3.93,2.04-5.69,3.52-1.75,1.49-5.25,1.78-5.65-.48-.17-.97.4-1.92.95-2.73,2.89-4.4,7.11-9.37,12.25-8.25,2.56.56,4.54,2.58,6.25,4.57,11.19,13.1,18.14,29.35,28.79,42.88Z"/><path class="cls-3" d="M23.05,65.06c3.32.39,6.64.83,9.97,1.13.19-.02.38-.05.57-.07,9.71-1.13,19.5-1.83,29.27-2.61-13.27.56-26.54,1.07-39.81,1.55Z"/><path class="cls-3" d="M140.29,59.72c-15.31.85-30.62,1.62-45.94,2.36,4.92.46,9.73,1.52,14.16,3.62,6.43,3.05,12.94,9.48,10.67,17.3-6.2,21.32-42.1,2.32-55.35,2.47-14.28.16-19.88,12.85-29.27,21.13-5.85,5.16-12.16,7.57-18.67,7.19,1.1,1.01,2.27,1.94,3.54,2.76,7.66,4.92,17.8,5.34,26.18,1.81,8.4-3.51,15.02-10.68,18.71-19,1.17-2.67,2.31-5.71,4.92-6.97,2.87-1.39,6.41.03,8.64,2.3,2.23,2.27,3.55,5.25,5.29,7.93,5,7.76,13.73,13,22.94,13.78,9.21.78,18.69-2.95,24.91-9.78,10.91-11.98,10.54-30.1,9.54-46.27l-.27-.61Z"/><path class="cls-1" d="M5.05,53.92c10.04-10,18.94-21.16,26.43-33.18,2.38-3.81,4.64-7.74,7.82-10.93,3.17-3.17,7.42-5.56,11.9-5.42,3.33.12,6.44,1.6,9.3,3.31.76.48,1.57,1,1.93,1.81.97,2.1-1.57,4.3-3.89,4.38-2.3.08-4.52-1-6.84-.97-4.14.03-7.43,3.41-9.98,6.67-8.11,10.28-14.44,21.82-20.73,33.3l.03.94c-2.96.12-5.93.24-8.89.36-2.22.1-4.56.22-6.63.95l-.46-1.22Z"/><path class="cls-6" d="M2.54,66.46c8.94.17,17.93-.4,26.87-.73s17.91-.62,26.86-.93c17.91-.6,35.81-1.5,53.71-2.39,10.11-.51,20.22-1.03,30.32-1.62,1.38-.08,1.39-2.23,0-2.16-17.9.95-35.79,1.91-53.69,2.75-17.9.84-35.8,1.77-53.71,2.44-10.1.38-20.28.42-30.35,1.25-.87.07-.9,1.35,0,1.37h0Z"/><path class="cls-6" d="M3.46,64.39c-3.24-1.49-1.82-6.06.57-7.61,3.46-2.23,8.41-1.74,12.34-1.89,9.88-.36,19.77-.69,29.66-1.03,19.77-.69,39.54-1.4,59.31-2.2,5.48-.22,10.96-.44,16.45-.66s11.31-.32,16.95-.73c1.46-.11,1.5-2.32,0-2.31-10.54.08-21.11.79-31.65,1.21s-21.1.86-31.65,1.31c-21.02.88-42.03,1.9-63.05,2.82-3.9.17-8.97.44-11.32,4.11-1.67,2.61-1.55,6.91,1.61,8.33.9.41,1.7-.92.79-1.35h0Z"/><path class="cls-6" d="M5.55,54.41c7.29-6.51,13.67-13.9,19.44-21.78,2.89-3.94,5.61-8,8.18-12.15s4.9-8.06,8.51-11.08,7.92-4.59,12.4-3.4c2.23.59,4.46,1.64,6.38,2.9,1,.65,1.65,1.56.88,2.66-.62.89-1.74,1.4-2.8,1.48-2.31.17-4.53-.99-6.85-.97-1.94.02-3.81.72-5.4,1.8-3.59,2.42-6.16,6.25-8.65,9.71-6.56,9.11-12.13,18.98-17.4,28.88-.52.98.94,1.84,1.49.87,5.26-9.33,10.28-18.78,16.45-27.57,1.55-2.2,3.13-4.39,4.85-6.46,1.41-1.7,2.98-3.35,4.91-4.45,2.28-1.29,4.47-1.14,6.95-.6,2.09.46,4.22.86,6.18-.25,1.45-.82,2.73-2.38,2.44-4.14-.35-2.12-2.68-3.24-4.37-4.17-4.23-2.32-9.02-3.3-13.65-1.56s-7.8,5.07-10.54,8.83c-2.99,4.11-5.45,8.6-8.29,12.82-6.61,9.79-14.23,18.85-22.11,27.64-.6.67.32,1.59.99.99h0Z"/><path class="cls-6" d="M140.07,48.79c-2.41-4.26-5.41-8.23-7.99-12.39s-4.96-8.21-7.45-12.3-5.18-8.39-8.05-12.39c-1.36-1.9-2.78-3.75-4.27-5.55-1.39-1.68-2.82-3.38-4.63-4.63-3.56-2.46-7.7-1.74-10.95.84-1.62,1.28-2.97,2.86-4.19,4.51-1.14,1.54-2.94,3.62-2.39,5.69.94,3.51,5.64,2.3,7.61.57,1.31-1.16,2.89-3.37,4.9-2.97,2.12.42,3.23,3.33,4.14,5.01,6.01,11.03,12.02,22.06,18.03,33.09.63,1.15,2.39.12,1.76-1.03-5.02-9.2-10.04-18.4-15.06-27.6-1.24-2.26-2.47-4.53-3.71-6.79-.83-1.52-1.78-3.14-3.3-4.07s-3.15-.82-4.62-.04c-1.58.85-2.61,2.39-4.09,3.36-.81.53-3.68,1.4-3.67-.36,0-.96,1.04-2.11,1.58-2.86.61-.87,1.26-1.71,1.96-2.51,2.57-2.94,6.35-5.66,10.26-3.41,1.84,1.06,3.23,2.78,4.57,4.39,1.47,1.76,2.87,3.59,4.21,5.45,2.67,3.7,5.13,7.55,7.52,11.44,2.66,4.33,5.25,8.71,7.98,13s5.44,8.73,9.1,12.14c.4.37,1.03-.1.75-.58h0Z"/><path class="cls-6" d="M4.24,66.72c-1.96,16.35-2.09,36.87,11.63,48.57,6.18,5.27,14.41,7.31,22.4,6.23s14.83-5.12,20.08-10.89c2.62-2.88,4.82-6.14,6.5-9.64,1.41-2.95,2.66-7.81,6.65-7.97,4.37-.18,7.04,4.04,8.95,7.33s4.19,6.61,7.18,9.27c5.7,5.07,13.17,8.1,20.83,8.14s15.74-2.99,21.57-8.29c11.86-10.78,12.93-28.37,12.12-43.33-.1-1.94-.25-3.87-.43-5.8-.14-1.44-2.34-1.5-2.3,0,.41,14.53,1.73,30.96-7.58,43.27-4.62,6.12-11.69,10.18-19.25,11.31s-15.17-.98-21.27-5.42c-3.09-2.25-5.68-5.11-7.67-8.37s-3.76-7.01-7.21-9.06c-2.98-1.78-6.72-1.97-9.4.45s-3.51,6.18-5.15,9.18c-3.62,6.63-9.19,12.25-16.13,15.36-7.2,3.22-15.97,3.42-23.12-.04-6.96-3.36-11.7-9.92-14.26-17.07-3-8.41-3.07-17.48-2.59-26.29.13-2.31.26-4.62.33-6.94.04-1.23-1.72-1.16-1.86,0h0Z"/></g></g></g></svg>