<?xml version="1.0" encoding="UTF-8"?><svg xmlns="http://www.w3.org/2000/svg" viewBox="0 0 183.58 189.85"><defs><style>.cls-1{fill:#c0dffe;mix-blend-mode:multiply;}.cls-2{isolation:isolate;}</style></defs><g class="cls-2"><g id="Capa_2"><g id="OBJECTS"><path class="cls-1" d="M63.4,189.46c10-11.25,17.15-26.44,13.69-41.72-1.19-5.24-3.41-10.1-5.87-14.86,7.14,1.61,14.4,3.14,21.75,3.03,7.2-.1,14.19-1.99,20.24-5.94,11.72-7.64,18.44-20.91,18.88-34.75.13-4.04-.25-8.11-1.05-12.07-.4-1.97-.91-3.91-1.53-5.82-.48-1.49-1.08-2.87-1.75-4.25,1.51.46,3.04.9,4.58,1.27,8.21,1.96,16.63,2.09,24.6-.97,8.24-3.16,15.23-8.76,21.46-14.89,1.55-1.53,3.04-3.1,4.45-4.76.1-.11.16-.23.2-.35.38-.19.6-.59.49-1.02-.34-1.31-1.19-2.4-2.29-3.18-.51-.36-1.1-.64-1.71-.78-.33-.08-.66-.12-1-.13-.18,0-.39-.02-.57.03-.08.03-.16.06-.24.11.02,0,.04-.02.06-.03-.09.02-.17.03-.26.06-.23.06-.4.26-.45.48-.04.02-.08.05-.11.09-2.05,2.6-4.34,4.95-6.86,7-.04-.06-.09-.12-.16-.18-12.45-10.68-24.76-21.5-36.47-33-3.18-3.13-6.26-6.44-9.63-9.37.75-1.03,1.51-2.06,2.26-3.08,1.16-1.59,2.76-3.19,3.55-5.02.14-.01.29-.07.37-.17.12-.15.23-.31.29-.5.07-.26,0-.5-.1-.73-.14-.34-.29-.67-.48-.98-.35-.56-.78-1.09-1.27-1.52-.5-.44-1.05-.82-1.66-1.08-.18-.08-.37-.16-.56-.21-.12-.03-.22-.05-.35-.07.12.01-.1-.01-.11-.01-.34-.06-.7-.1-.98.08-.02,0-.04,0-.06,0-.04,0-.07.01-.11.02-.16-.12-.39-.16-.59-.04-1.8,1.07-3.28,2.64-4.66,4.19-1.39,1.55-2.68,3.19-3.9,4.88-2.48,3.43-4.58,7.11-6.21,11.02-3.36,8.07-4.54,16.95-2.78,25.56.84,4.14,2.41,8.34,4.82,11.87-4.18-1.11-8.41-2.07-12.67-2.79-4.29-.72-8.66-1.15-13-.65-7.72.9-14.93,4.41-20.67,9.61-5.71,5.17-9.71,12-11.84,19.38-2.18,7.59-2.37,15.65-.89,23.39.76,3.98,1.94,7.85,3.35,11.64-1.12-1.07-2.92-1.64-4.27-2.22-1.9-.81-3.83-1.55-5.81-2.18-3.83-1.2-7.88-2.02-11.92-1.81-4.16.22-8.07,1.58-11.53,3.88-3.73,2.49-6.98,5.68-10.23,8.75-3.93,3.71-7.77,7.51-11.52,11.4-.32.33-.39.71-.3,1.05-.05.13-.07.27-.02.43.38,1.32,1.44,2.36,2.65,2.94.65.31,1.31.5,2.03.57.3.03.6.03.9,0,.27-.03.53-.05.78-.17.1-.05.19-.1.29-.16.22-.04.43-.16.62-.37,1.7-1.93,3.48-3.81,5.3-5.62,1.37,1.6,3,2.98,4.55,4.4,1.57,1.44,3.15,2.86,4.72,4.28,3.16,2.85,6.32,5.68,9.5,8.51,6.35,5.66,12.69,11.32,19.05,16.96,1.74,1.54,3.48,3.09,5.22,4.63,1.64,1.46,3.25,3.18,5.11,4.39-.12.16-.23.33-.35.49-1.11,1.53-2.28,3-3.49,4.46-.4.48-.34,1.04-.08,1.45-.05.09-.08.19-.09.3,0,.07-.01.15,0,.22,0,.08,0,.1,0,.04.02-.1,0-.04-.02.17,0,.13.02.27.04.4,0,.28.1.55.21.82.12.3.26.6.43.87.31.5.71.97,1.16,1.35.97.82,2.13,1.31,3.4,1.38.12,0,.24-.02.36-.07.36.11.76.05,1.09-.32ZM116.96,69.32c-.01.09-.01.18.03.28,1.21,3.2,2.91,6.16,3.96,9.44,1.03,3.23,1.71,6.57,1.94,9.95.12,1.8.11,3.61-.02,5.4-5.51-5.45-11.23-10.7-16.88-16.02-2.91-2.74-5.82-5.48-8.74-8.21-1.46-1.37-2.92-2.73-4.38-4.1-.78-.73-1.56-1.45-2.35-2.16-.36-.32-.73-.61-1.05-.94,6.52-.22,13.08,1.41,19.23,3.42,2.78.91,5.52,1.92,8.26,2.93ZM107.46,104.57c-3.13-2.78-6.25-5.57-9.38-8.35-6.15-5.48-12.33-10.94-18.5-16.4-1.74-1.54-3.49-3.08-5.25-4.61-.9-.79-1.81-1.57-2.72-2.34-.6-.51-1.18-1.1-1.89-1.42,3.69-3.61,8.22-6.31,13.26-7.58,0,.04,0,.09.02.14.23.68.73,1.1,1.22,1.61.63.64,1.26,1.29,1.91,1.92,1.24,1.22,2.48,2.43,3.73,3.64,2.49,2.42,5,4.83,7.54,7.2,5.08,4.74,10.23,9.41,15.45,14.01,2.92,2.57,5.82,5.37,9.03,7.57.05.04.11.05.16.07-.62,2.76-1.55,5.45-2.84,8-.82,1.62-1.77,3.17-2.83,4.64-2.8-2.86-5.93-5.43-8.91-8.09ZM70.81,78.22c1.49,1.42,2.99,2.84,4.49,4.25,3.05,2.87,6.13,5.7,9.21,8.54,6.05,5.59,12.14,11.15,18.21,16.72,3.33,3.05,6.59,6.36,10.27,9-1.82,1.88-3.83,3.57-6.04,4.98-2.09,1.34-4.31,2.4-6.62,3.19-.04-.06-.07-.11-.14-.16-5.51-4.28-11.15-8.36-16.54-12.79-5.34-4.39-10.51-8.99-15.54-13.75-2.73-2.59-5.33-5.35-8.16-7.83.91-5.05,2.79-9.89,5.75-14.17.42-.6.86-1.18,1.31-1.76,1.18,1.34,2.51,2.54,3.8,3.77ZM65.55,122.03c-3.6-7.37-6.09-15.19-6.25-23.47-.01-.62,0-1.23,0-1.85.95,1,2.03,1.9,3.02,2.81,1.47,1.35,2.96,2.69,4.45,4.02,3.08,2.76,6.17,5.51,9.27,8.24,3.1,2.74,6.2,5.47,9.3,8.21,2.47,2.18,4.9,4.51,7.48,6.58-1.54.17-3.09.25-4.64.24-7.87-.07-15.21-2.47-22.63-4.79ZM165.92,59.02c-2.1,1.33-4.33,2.48-6.69,3.45-2.04.83-4.13,1.49-6.26,1.99-.03-.14-.09-.27-.21-.38-5-4.22-10.06-8.37-14.92-12.75-4.86-4.38-9.59-8.91-14.21-13.54-2.63-2.64-5.14-5.45-8-7.85-.04-.04-.09-.06-.14-.08,1.19-4.61,3.37-8.95,5.99-12.98.85,1.38,2.02,2.64,3.03,3.86,1.3,1.58,2.66,3.11,4.02,4.64,2.72,3.05,5.53,6.03,8.41,8.94,5.71,5.77,11.73,11.24,18,16.4,3.54,2.92,7.19,5.68,10.97,8.29,0,0,0,0,0,0ZM123.02,61.26s-.01-.03-.02-.04c-2.29-3.7-4.55-7.34-6.08-11.44-1.47-3.96-2.38-8.13-2.4-12.37,0-.28.01-.55.02-.82,1.04,1.21,2.32,2.27,3.47,3.35,1.41,1.32,2.83,2.64,4.26,3.94,2.86,2.61,5.74,5.19,8.66,7.73,2.92,2.54,5.86,5.06,8.83,7.55,1.48,1.25,2.97,2.48,4.46,3.72.8.66,1.6,1.31,2.41,1.95.22.18.44.37.67.56-3.48.32-6.99.19-10.46-.4-4.71-.8-9.27-2.23-13.81-3.72ZM17.85,132.25c-.21-.15-.4-.24-.58-.3,0-.01-.01-.02-.02-.03-.05-.06-.1-.11-.16-.16-.11-.1-.21-.19-.33-.29-.14-.11-.28-.23-.41-.34.01-.01.03-.03.04-.04,3.17-2.87,6.51-5.62,10.31-7.63.56-.29,1.12-.56,1.69-.81,5.09,4.69,10.59,8.95,15.83,13.47,5.31,4.58,10.57,9.24,15.76,13.96,2.95,2.68,5.79,5.51,8.81,8.12.18.16.38.21.57.2-.66,5.45-2.91,10.57-5.79,15.25-.02-.02-.02-.05-.04-.07-1.39-1.51-3.05-2.8-4.6-4.14-1.56-1.35-3.13-2.7-4.69-4.06-3.12-2.71-6.22-5.44-9.31-8.19-6.17-5.5-12.25-11.1-18.28-16.75-1.65-1.55-3.29-3.1-4.94-4.65-.85-.79-1.69-1.6-2.55-2.38-.43-.39-.84-.82-1.31-1.16ZM52.4,135.97c-2.98-2.71-5.97-5.4-8.99-8.07-2.71-2.39-5.4-4.84-8.25-7.07,1.01-.11,2.03-.14,3.07-.11,3.71.14,7.34,1.17,10.77,2.53,3.77,1.49,7.24,3.59,10.96,5.18.7,1.51,1.41,3,2.13,4.5,2.89,6.03,6.16,12.12,7.14,18.69-5.56-5.27-11.16-10.49-16.83-15.64Z"/></g></g></g></svg>