<?xml version="1.0" encoding="UTF-8"?><svg xmlns="http://www.w3.org/2000/svg" viewBox="0 0 79.5 71.96"><defs><style>.cls-1{fill:#c0dffe;mix-blend-mode:multiply;}.cls-2{isolation:isolate;}</style></defs><g class="cls-2"><g id="Capa_2"><g id="OBJECTS"><path class="cls-1" d="M18.15,21.8c.62,1.08,1.39,2.1,2.12,3.1,1,1.38,2.02,2.75,3.02,4.13,1.97,2.7,3.92,5.42,5.85,8.14,1.97,2.77,3.9,5.57,5.81,8.38.96,1.41,1.91,2.82,2.85,4.24.73,1.09,1.41,2.26,2.19,3.33-3.72.62-6.62,4.33-7.02,7.96-.49,4.47,2.55,8.92,6.76,10.34,4.11,1.38,8.95.02,11.7-3.33,2.71-3.3,3.28-8.33.58-11.8-1.09-1.41-2.65-2.39-4.33-2.97,2.65-5.62,5.28-11.24,7.92-16.86,1.36-2.9,2.72-5.79,4.07-8.69.67-1.45,1.36-2.9,2.01-4.35.68-1.5,1.45-3.04,1.94-4.63.03.01.07.02.1.03,1.16.91,2.69,1.43,4.08,1.65,2.16.34,4.42-.02,6.38-.98,4.1-2.02,5.97-6.55,5.11-10.95-.86-4.42-4.29-7.95-8.83-8.47-4.35-.5-9.12,1.82-11.12,5.78-.57,1.12-.91,2.33-1.04,3.56-3.05-.36-6.21-.31-9.27-.25-3.38.06-6.77.21-10.14.47-6.42.48-12.81,1.29-19.15,2.41-.25-.88-.6-1.73-1.06-2.51-1.98-3.33-5.81-5.45-9.7-5.19-3.87.26-7.36,3.02-8.56,6.72-1.33,4.1.63,9.39,4.09,11.89,4.17,3.01,9.59,1.16,13.63-1.15ZM39.14,11.37c3.39-.26,6.78-.43,10.17-.52,2.97-.07,5.97-.01,8.93-.2.02,1.2.24,2.41.7,3.55.68,1.69,1.93,3.17,3.5,4.06-1.71,2.57-2.89,5.61-4.22,8.38-1.41,2.94-2.81,5.9-4.21,8.85-2.74,5.78-5.49,11.56-8.21,17.35-1.32-.23-2.77-.32-4.12-.05-.74-1.42-1.76-2.75-2.64-4.07-.94-1.42-1.9-2.83-2.86-4.24-1.88-2.77-3.8-5.52-5.73-8.25-1.97-2.78-3.97-5.53-6.01-8.26-1.72-2.3-3.39-4.91-5.5-6.91.06-.25,0-.53-.15-.71,1.14-1.93,1.57-4.26,1.32-6.52,6.3-1.13,12.66-1.97,19.04-2.45Z"/></g></g></g></svg>