<?xml version="1.0" encoding="UTF-8"?><svg xmlns="http://www.w3.org/2000/svg" viewBox="0 0 80.72 58.44"><defs><style>.cls-1{fill:#c0dffe;mix-blend-mode:multiply;}.cls-2{isolation:isolate;}</style></defs><g class="cls-2"><g id="Capa_2"><g id="OBJECTS"><path class="cls-1" d="M33.52,4.46c.1.88.52,1.71,1.2,2.27.47.4,1.13.69,1.78.73.07.06.15.12.26.14.23.05.47.07.7.07-.07,1.81-.19,3.62-.35,5.43-.08.93-.17,1.86-.27,2.8-.09.81-.24,1.63-.23,2.44-4.15.11-8.31,2.97-9.46,7.02-.09.33-.17.68-.22,1.02-2.43-.21-4.86-.46-7.28-.75-1.23-.15-2.45-.31-3.68-.47-.93-.12-2.11-.43-3.09-.3-.01,0-.03-.02-.04-.03.24-1.14-.61-2.42-1.33-3.22-.88-.98-2.11-1.68-3.38-2-2.73-.69-5.5.54-7.01,2.89-1.52,2.37-1.5,5.38.27,7.61,1.73,2.18,4.7,3.24,7.37,2.33,2.76-.93,4.64-3.72,4.42-6.59.77.24,1.66.3,2.39.42,1.27.21,2.54.37,3.82.53,2.46.31,4.93.57,7.41.79-.16,3.06,1.06,6.19,3.55,8.08,1.76,1.33,3.99,1.94,6.18,1.84,1.05-.05,2.1-.26,3.09-.64.5-.19.98-.45,1.42-.75.21-.14.38-.32.54-.5.08.03.16.05.24.06,1.11,1.45,2.17,2.93,3.16,4.47.99,1.53,1.9,3.09,2.93,4.58-2.35,1.54-3.34,5-2.85,7.63.61,3.25,3.4,5.56,6.6,6.01,3.25.45,6.27-1.28,7.6-4.26,1.29-2.88.79-6.41-1.59-8.56-1.29-1.17-3.04-1.84-4.77-1.93-1.12-.06-2.56.08-3.66.65-.11-.06-.24-.08-.39-.03-.12.05-.24.1-.36.16-.65-1.76-1.55-3.36-2.54-4.95-.95-1.51-1.96-2.98-3.04-4.4,2.51-2.11,3.83-5.53,3.33-8.77,2.79-.41,5.58-.84,8.37-1.27,2.67-.41,5.4-.72,7.98-1.5-.04,1.63.69,3.3,1.6,4.61,1.19,1.7,2.96,3.02,4.95,3.63,2.09.64,4.34.62,6.39-.14,2.08-.76,3.48-2.35,4.27-4.39,1.53-3.96,1.29-8.35-1.81-11.46-2.75-2.77-6.79-3.68-10.37-2-1.89.89-3.5,2.4-4.5,4.23-.71,1.31-1.44,3.36-.84,4.88-2.63.03-5.27.53-7.88.92-2.81.41-5.63.83-8.44,1.26-1.12-3.62-4.61-6.36-8.39-6.67.21-.76.27-1.58.37-2.36.11-.93.22-1.86.31-2.79.17-1.86.29-3.73.37-5.6,0-.06-.01-.11-.03-.17.98-.39,1.81-1.21,2.25-2.16.73-1.55.21-3.31-1.1-4.37-1.21-.97-3.02-1.27-4.38-.46-1.36.81-2.02,2.45-1.84,3.99Z"/></g></g></g></svg>