<?xml version="1.0" encoding="UTF-8"?><svg xmlns="http://www.w3.org/2000/svg" viewBox="0 0 164.77 175.33"><defs><style>.cls-1{fill:#c0dffe;}.cls-1,.cls-2{mix-blend-mode:multiply;}.cls-3{isolation:isolate;}</style></defs><g class="cls-3"><g id="Capa_2"><g id="OBJECTS"><g class="cls-2"><path class="cls-1" d="M85.35,71.98c-7.47.05-14.19,4.65-16.04,12.07-1.61,6.46,1.81,14.78,8.28,17.15.08.1.19.19.32.26,5.77,2.83,12.88,2.08,17.95-1.86,5.15-4,6.98-10.79,5-16.94-.92-2.86-2.59-5.52-4.94-7.41-2.98-2.39-6.8-3.3-10.58-3.27Z"/><path class="cls-1" d="M156.44,72.94c4.09-4.94,8.97-10.71,8.26-17.58-.63-6.01-5.04-10.9-10.14-13.76-12.66-7.08-28.75-2.73-41.8.84-.29.08-.57.16-.85.24-1.19-6.39-2.58-12.78-4.43-19.01-1.73-5.83-4.09-11.62-8.08-16.3-3.51-4.11-8.11-6.79-13.53-7.29-3.62-.33-7.45.36-10.63,2.18-.69-.37-1.41-.67-2.18-.9-1.95-.57-4.48-.73-6.54-.04-2.03.16-3.76,1.74-4.94,3.32-1.36,1.82-2.19,3.98-2.3,6.25-.15,2.97,1.06,5.87,3.05,8.04-2.54,5.9-4,12.37-5.12,18.61-.09.5-.17,1.01-.26,1.51-2.47-.9-4.95-1.78-7.45-2.6-6.79-2.23-13.83-4.39-21.04-4.39-6.21,0-12.57,1.79-16.84,6.52-3.46,3.83-5.63,9.14-4.86,14.33.17,1.17.52,2.25,1.02,3.25,2.41,11.82,11.37,20.88,20.18,28.68-2.44,1.89-4.84,3.81-7.2,5.79-5.05,4.23-10.06,8.73-13.58,14.35-3.14,5.01-4.94,10.97-3.59,16.85.07.29.14.58.23.87-.56.51-1.07,1.08-1.5,1.66-1.36,1.82-2.19,3.98-2.3,6.25-.22,4.5,2.64,8.86,6.7,10.7,4.23,1.92,9.26.76,12.37-2.66.64-.7,1.16-1.47,1.57-2.28,11.72,2.72,24.18-.82,35.54-4.28.05-.02.11-.03.16-.05,2.27,10.17,5.54,20.11,10.03,29.62,2.64,5.6,6.02,11.6,12.49,13.22,5.82,1.46,11.98-.83,16.57-4.4,10.39-8.09,13.55-22.47,15.99-34.72,8.73,2.73,17.7,4.7,26.88,5.68,3.51.37,7.25.53,10.66-.28.1.05.2.1.3.15,4.23,1.92,9.25.76,12.37-2.66,3.23-3.54,3.58-8.8,1.02-12.83-.57-.9-1.26-1.69-2.03-2.38-.02-.71-.07-1.42-.15-2.12-1.49-12.94-11.65-23.02-20.8-31.5,6.02-5.14,11.65-10.75,16.73-16.88ZM112.3,105.06c-4.51,2.61-9.11,5.05-13.77,7.31-5.43,2.63-10.95,5.05-16.55,7.28-3.96-2.15-7.85-4.41-11.66-6.79-5-3.12-9.87-6.43-14.63-9.89-.29-5.24-.39-10.49-.31-15.73.09-5.86.4-11.71.88-17.55,9.4-5.47,19.17-10.3,29.21-14.46,9.31,4.9,18.29,10.43,26.88,16.51.75,11.09.74,22.23-.05,33.31ZM115.74,74.2c4.96,3.64,9.78,7.46,14.43,11.47,1.54,1.33,3.07,2.68,4.58,4.04-6.03,4.89-12.43,9.33-19.09,13.36.59-9.61.61-19.25.07-28.87ZM108.93,131.56c-1.26-.43-2.52-.86-3.77-1.32-6.66-2.45-13.14-5.36-19.45-8.61,2.55-1.05,5.08-2.12,7.6-3.25,6.34-2.84,12.59-5.96,18.66-9.39-.49,5.62-1.17,11.23-2.07,16.8-.31,1.92-.64,3.84-.99,5.76ZM58.59,126.94c-1.27-6.53-2.13-13.14-2.64-19.77,2.08,1.48,4.18,2.94,6.31,4.36,5.12,3.42,10.39,6.65,15.78,9.66-4.71,1.8-9.46,3.49-14.25,5.07-1.66.55-3.33,1.09-5,1.63-.06-.32-.14-.64-.2-.95ZM52.3,100.49c-4.69-3.51-9.29-7.14-13.79-10.89-1.79-1.49-3.62-3-5.44-4.55.63-.47,1.25-.95,1.89-1.41,5.78-4.24,11.75-8.2,17.88-11.91-.19,2.59-.36,5.17-.48,7.76-.32,6.97-.36,13.99-.05,20.99ZM59.47,43.48c1.18.45,2.36.9,3.53,1.37,6.34,2.54,12.56,5.36,18.66,8.43-8.58,3.66-16.95,7.81-25.06,12.43.59-6.21,1.37-12.41,2.31-18.57.18-1.21.37-2.44.56-3.67ZM89.4,53.66c5.16-2.03,10.38-3.88,15.66-5.55,1.42-.45,2.84-.88,4.26-1.3,1.2,6.86,2.1,13.78,2.69,20.73-7.28-5.03-14.83-9.67-22.62-13.88ZM64.89,21.02c.35.21.71.41,1.09.58,4.23,1.92,9.25.76,12.37-2.66,3.23-3.54,3.58-8.8,1.02-12.83-.39-.62-.84-1.18-1.33-1.7,5.07-2.11,11.82-1.05,15.97,2.3,4.48,3.61,7.22,8.89,9.11,14.22,2.18,6.15,3.59,12.61,4.9,19,.25,1.22.48,2.44.71,3.66-7.84,2.29-15.56,4.99-23.13,8.07-5.44-2.82-10.98-5.45-16.62-7.85-2.97-1.26-5.97-2.47-8.98-3.62,1.07-6.51,2.43-13.09,4.89-19.16ZM12.9,61.99c-.42-.86-.8-1.74-1.15-2.62.54-.45.78-1.31.21-2.04-2.97-3.77-2.54-9.02-.38-13.06,2.64-4.91,7.18-7.72,12.62-8.61,6.85-1.12,13.91.69,20.43,2.69,3.96,1.22,7.87,2.55,11.76,3.98-1.4,8.42-2.49,16.9-3.23,25.4-5.41,3.2-10.71,6.6-15.85,10.21-2.29,1.6-4.54,3.26-6.77,4.94-6.96-6.05-13.58-12.69-17.63-20.89ZM45.36,131.79c-6.58,1.66-13.4,2.82-20.21,2.27-1.19-.1-2.37-.27-3.53-.49.49-2.61,0-5.39-1.5-7.75-1.47-2.32-3.69-3.97-6.32-4.74-1.95-.57-4.48-.73-6.54-.04-.14.01-.29.02-.43.04-.79-3.6-.28-7.34,1.27-10.88,2.51-5.69,6.98-10.26,11.57-14.33,3.48-3.09,7.1-6.03,10.8-8.87,7.12,6.18,14.47,12.12,22.08,17.7.53,8.12,1.55,16.2,3.16,24.15-3.43,1.06-6.87,2.06-10.34,2.93ZM105.82,145.7c-1.59,5.91-3.72,11.74-7.28,16.76-3.3,4.65-8.1,8.52-13.86,9.43-2.66.42-5.44.05-7.77-1.34-2.52-1.51-4.25-3.99-5.65-6.5-3.21-5.75-5.64-12.03-7.73-18.26-1.62-4.83-2.96-9.74-4.06-14.71,7.52-2.37,14.97-4.97,22.31-7.86,8.55,4.54,17.41,8.47,26.56,11.54-.72,3.67-1.54,7.33-2.51,10.94ZM144.61,99.22c4.32,4.54,8.36,9.57,10.77,15.42.89,2.16,1.53,4.44,1.82,6.74-.27-.1-.55-.2-.84-.28-1.95-.57-4.48-.73-6.54-.04-2.03.16-3.76,1.74-4.94,3.32-1.36,1.82-2.19,3.98-2.3,6.25-.14,2.88.99,5.71,2.88,7.85-.82.06-1.64.08-2.46.06-6.54-.15-13.18-1.4-19.55-2.84-3.85-.87-7.65-1.93-11.41-3.11,1.57-8.45,2.7-16.97,3.37-25.54,7.63-4.5,14.94-9.52,21.78-15.11,2.55,2.36,5.04,4.79,7.42,7.3ZM137.3,87.61c-6.93-6.3-14.22-12.19-21.83-17.65-.6-8.06-1.58-16.09-2.98-24.05,3.93-1.1,7.88-2.12,11.86-2.98,6.86-1.48,14.1-2.48,21.06-1.12,5.66,1.1,11.33,3.91,14.38,9.02,1.44,2.41,2.08,5.23,1.48,8.01-.7,3.25-2.64,6.06-4.64,8.65-5.71,7.42-12.24,14.09-19.34,20.12Z"/></g></g></g></g></svg>