<?xml version="1.0" encoding="UTF-8"?><svg xmlns="http://www.w3.org/2000/svg" viewBox="0 0 229.29 326.76"><defs><style>.cls-1,.cls-2{fill:#426ffb;}.cls-3,.cls-2,.cls-4,.cls-5{mix-blend-mode:multiply;}.cls-3,.cls-2,.cls-5{opacity:.3;}.cls-3,.cls-6{fill:#7caffb;}.cls-7{isolation:isolate;}.cls-4{fill:#c0dffe;opacity:.7;}.cls-8,.cls-5{fill:#4723b4;}.cls-9{fill:#271857;}</style></defs><g class="cls-7"><g id="Capa_2"><g id="OBJECTS"><ellipse class="cls-4" cx="114.61" cy="311.11" rx="112.96" ry="15.65"/><path class="cls-1" d="M227.92,215.26c-9.11,5.54-18.22,11.09-27.33,16.64-4.17,2.53-8.36,5.08-12.93,6.82-1.04.4-2.4.67-3.12-.17-.39-.47-.45-1.12-.48-1.74-.07-1.41-.15-2.82-.22-4.23l1.05-.06c12.03-7.72,24.59-14.57,37.58-20.51l.38-.57c1.77,1.17,3.46,2.45,5.07,3.82Z"/><path class="cls-6" d="M223.97,203.38l-.11.39c-2.59,1.18-5.16,2.39-7.74,3.62-11.17,5.32-22.13,11.04-32.88,17.16-2.74,1.55-5.47,3.13-8.18,4.74l-.34-.48c-14.79-29.34-29.6-58.66-44.39-88l-.39-1.42c.57-.15,1.13-.32,1.69-.51,9.07-3.08,16.12-11.33,18.03-20.71.73-3.63.77-7.4.01-11.01-2.53-12.22-14.89-21.57-27.33-20.71-5.42.37-10.57,2.66-14.72,6.17l-.52-.65c-4.69-8.91-9.38-17.82-14.07-26.73l-.11-.77c2.74-1.62,5.51-3.2,8.28-4.75,10.15-5.68,20.52-10.94,31.08-15.77,3.15-1.43,6.33-2.84,9.52-4.19l2.53-.39c23,56.3,49.61,111.12,79.62,164.03Z"/><path class="cls-1" d="M222.85,211.45l-.38.57c-13,5.94-25.56,12.8-37.58,20.51l-1.05.06c-.14-2.59-.28-5.16-.43-7.75l-.17-.3c10.75-6.12,21.72-11.84,32.88-17.16l.17.34c2.27,1.09,4.47,2.33,6.56,3.72Z"/><path class="cls-6" d="M202.4,296.53c5.93,2.34,10.83,8.67,9.36,14.84l-.43-.11c-69.74,2.24-139.56,2.59-209.34,1.05l-.85-.02c-1.23-6.21,3.39-12.39,9.13-15.08,5.74-2.68,12.32-2.67,18.66-2.56,51.42.89,102.94,4.93,154.18.65,6.47-.53,13.23-1.17,19.28,1.23Z"/><path class="cls-1" d="M179.8,278.27l.04,1.62c-27.38.72-54.77.11-82.08-1.84l.09-1.36c.3-1.65.6-3.31.91-4.95,26.73,2.36,53.64,2.66,80.4.86.21,1.89.43,3.78.64,5.67Z"/><path class="cls-1" d="M99.34,107.48l-.22-.08c-.18-.01-.34-.04-.52-.05,1.23-5.72,4.55-10.94,9.04-14.75,4.15-3.51,9.3-5.8,14.72-6.17,12.44-.86,24.8,8.49,27.33,20.71.76,3.62.72,7.38-.01,11.01-1.91,9.38-8.96,17.63-18.03,20.71-.56.19-1.12.35-1.69.51-8.7,2.26-18.56-.2-24.89-6.58-3.01-3.02-5.13-6.88-6.2-11-1.25-4.7-1.16-9.75.48-14.32ZM121.75,106.89l.05.24c-2.73.73-4.35,4.16-3.2,6.75,1.15,2.58,4.74,3.69,7.16,2.21,2.41-1.47,3.08-5.14,1.38-7.4-1.22-1.61-3.45-2.24-5.39-1.8Z"/><path class="cls-1" d="M131.57,42.35l.73,1.58c-10.56,4.83-20.94,10.09-31.08,15.77l-.4-.71c-1.45-2.08-2.82-4.22-4.09-6.4l1.02-.6c6.38-1.87,12.25-5.1,18.08-8.33,4.1-2.26,8.2-4.53,12.3-6.79l.99-.41c.83,1.96,1.64,3.93,2.46,5.9Z"/><path class="cls-1" d="M125.87,28.65c1.08,2.6,2.16,5.21,3.24,7.81l-.99.41c-4.1,2.27-8.2,4.54-12.3,6.79-5.82,3.23-11.7,6.46-18.08,8.33l-1.02.6c-1.56-2.66-2.98-5.39-4.25-8.19l1.17-.54c10.44-4.95,20.89-9.89,31.33-14.84l.9-.38Z"/><path class="cls-1" d="M125.87,28.65l-.9.38c-10.44,4.95-20.89,9.89-31.33,14.84l-1.17.54c-.93-2.03-1.8-4.1-2.58-6.19,2-1.17,4.01-2.3,6.04-3.39,6.99-3.82,14.19-7.25,21.55-10.3,1.13-.47,2.28-.93,3.43-1.38.61-.25,1.3-.5,1.93-.26.7.26,1.06,1.02,1.35,1.71.56,1.35,1.12,2.71,1.69,4.05Z"/><path class="cls-8" d="M121.8,107.12l-.05-.24c1.94-.45,4.17.19,5.39,1.8,1.7,2.26,1.03,5.93-1.38,7.4-2.42,1.48-6.01.37-7.16-2.21-1.15-2.59.47-6.01,3.2-6.75Z"/><path class="cls-6" d="M117.03,23.39l.46,1.13c-7.36,3.05-14.56,6.49-21.55,10.3l-.83-1.52c-1.77-4.01-3.54-8-5.32-12l-.4-.82c7.15-3.49,14.25-7.08,21.3-10.76l.04.07c2.1,4.53,4.19,9.06,6.3,13.6Z"/><path class="cls-8" d="M110.87,1.34c.87,1.93,1.74,3.84,2.61,5.77l-.57,1.47c-.73.39-1.48.77-2.22,1.15-7.05,3.69-14.15,7.28-21.3,10.76-2.04,1-4.09,2-6.13,2.97-1.28-2.67-2.45-5.39-3.49-8.15,9.51-5.66,19.55-10.42,29.96-14.2l1.13.25Z"/><path class="cls-6" d="M99.34,107.48c-1.64,4.57-1.74,9.62-.48,14.32l-.61.17c-8.29-2.1-15.77,5.27-20.78,12.22-19.87,27.52-32.74,60.04-37.09,93.7-1.02,7.95-1.54,16.27,1.26,23.77,3.63,9.68,12.41,16.72,22.01,20.52,9.59,3.82,20.05,4.82,30.35,5.6,1.25.09,2.5.19,3.76.27,27.3,1.95,54.7,2.56,82.08,1.84,5.1-.13,10.21-.31,15.3-.53h.99c2.86,3.85,3.39,9.31,1.32,13.65l-1.29-.33c-46.63,5.02-93.92,3.92-140.27-3.25-6.56-1.02-13.24-2.2-19-5.48-9.14-5.21-14.83-15.21-16.91-25.53-2.08-10.31-.97-21.01.82-31.38,5.78-33.67,18.43-66.01,35.8-95.43,5.97-10.11,13.47-20.64,24.8-23.75,5.56-1.52,11.44-1.06,17.19-.51.18.01.34.04.52.05l.22.08Z"/><path class="cls-2" d="M227.92,215.26c-9.11,5.54-18.22,11.09-27.33,16.64-4.17,2.53-8.36,5.08-12.93,6.82-1.04.4-2.4.67-3.12-.17-.39-.47-.45-1.12-.48-1.74-.07-1.41-.15-2.82-.22-4.23l1.05-.06c12.03-7.72,24.59-14.57,37.58-20.51l.38-.57c1.77,1.17,3.46,2.45,5.07,3.82Z"/><path class="cls-3" d="M142.72,131.67c.53-.6,1.1-1.03,1.69-1.31.48-.88.93-1.79,1.33-2.71-3.33,5.15-8.3,9.24-14.11,11.22-.56.19-1.12.35-1.69.51l.3,1.08c4.37-2.64,9.07-4.9,12.48-8.78Z"/><path class="cls-3" d="M144.35,39.35l-2.53.39c-3.19,1.36-6.37,2.76-9.52,4.19-4.63,2.12-9.22,4.33-13.77,6.62,6.86-1.73,13.7-1.42,19.66,2.81,14.43,10.25,19.29,29.44,26.44,44.64,9.37,19.9,17.45,39.98,23.6,61.12,3.8,13.07,7.49,27.66,4.62,41.28-2.53,11.99-11.12,18.65-21.86,20.96,1.25,2.47,2.5,4.95,3.74,7.42l.34.48c2.71-1.61,5.43-3.19,8.18-4.74,10.75-6.12,21.72-11.84,32.88-17.16,2.58-1.23,5.15-2.43,7.74-3.62l.11-.39c-30.01-52.91-56.62-107.73-79.62-164.03Z"/><path class="cls-2" d="M222.85,211.45l-.38.57c-13,5.94-25.56,12.8-37.58,20.51l-1.05.06c-.14-2.59-.28-5.16-.43-7.75l-.17-.3c10.75-6.12,21.72-11.84,32.88-17.16l.17.34c2.27,1.09,4.47,2.33,6.56,3.72Z"/><path class="cls-3" d="M202.4,296.53c5.93,2.34,10.83,8.67,9.36,14.84l-.43-.11c-69.74,2.24-139.56,2.59-209.34,1.05l-.85-.02c-1.23-6.21,3.39-12.39,9.13-15.08,5.74-2.68,12.32-2.67,18.66-2.56,51.42.89,102.94,4.93,154.18.65,6.47-.53,13.23-1.17,19.28,1.23Z"/><path class="cls-2" d="M179.8,278.27l.04,1.62c-27.38.72-54.77.11-82.08-1.84l.09-1.36c.3-1.65.6-3.31.91-4.95,26.73,2.36,53.64,2.66,80.4.86.21,1.89.43,3.78.64,5.67Z"/><path class="cls-2" d="M106.07,94.37c-.06.04-.13.07-.19.11-.16.09-.32.18-.47.25-1.69,1.79-3.16,3.8-4.33,5.96.3-.18.61-.33.94-.44.94-2.17,2.33-4.17,4.05-5.88Z"/><path class="cls-2" d="M129.95,139.38c.57-.15,1.13-.32,1.69-.51,5.81-1.97,10.77-6.07,14.11-11.22,4.93-11.15,4.72-24.63-2.99-33.09-.7-.71-1.45-1.39-2.23-2.02-2.95-1.67-5.88-3.36-8.89-4.91,0,0,0,0,0,0-1.16-.38-2.34-.65-3.54-.86-3.3.19-6.69.95-9.96,2.04.09,0,.18-.02.28-.03,10.78-.65,22.05,9.79,22.41,20.67.28,8.21-6.11,14.29-13.17,17.25-7.06,2.96-16.11,3.72-22.96-.29-3.23-1.89-5.28-4.53-6.42-7.54.14.98.33,1.96.58,2.92,1.08,4.12,3.19,7.98,6.2,11,6.33,6.38,16.2,8.84,24.89,6.58Z"/><path class="cls-2" d="M118.53,50.55c4.55-2.28,9.14-4.5,13.77-6.62l-.73-1.58c-.82-1.96-1.63-3.93-2.46-5.9l-.99.41c-4.1,2.27-8.2,4.54-12.3,6.79-5.82,3.23-11.7,6.46-18.08,8.33l-1.02.6c1.21,2.09,2.53,4.14,3.91,6.14,5.57-3.47,11.74-6.64,17.89-8.19Z"/><path class="cls-2" d="M125.87,28.65c1.08,2.6,2.16,5.21,3.24,7.81l-.99.41c-4.1,2.27-8.2,4.54-12.3,6.79-5.82,3.23-11.7,6.46-18.08,8.33l-1.02.6c-1.56-2.66-2.98-5.39-4.25-8.19l1.17-.54c10.44-4.95,20.89-9.89,31.33-14.84l.9-.38Z"/><path class="cls-2" d="M125.87,28.65l-.9.38c-10.44,4.95-20.89,9.89-31.33,14.84l-1.17.54c-.93-2.03-1.8-4.1-2.58-6.19,2-1.17,4.01-2.3,6.04-3.39,6.99-3.82,14.19-7.25,21.55-10.3,1.13-.47,2.28-.93,3.43-1.38.61-.25,1.3-.5,1.93-.26.7.26,1.06,1.02,1.35,1.71.56,1.35,1.12,2.71,1.69,4.05Z"/><path class="cls-3" d="M117.03,23.39l.46,1.13c-7.36,3.05-14.56,6.49-21.55,10.3l-.83-1.52c-1.77-4.01-3.54-8-5.32-12l-.4-.82c7.15-3.49,14.25-7.08,21.3-10.76l.04.07c2.1,4.53,4.19,9.06,6.3,13.6Z"/><path class="cls-5" d="M110.87,1.34c.87,1.93,1.74,3.84,2.61,5.77l-.57,1.47c-.73.39-1.48.77-2.22,1.15-7.05,3.69-14.15,7.28-21.3,10.76-2.04,1-4.09,2-6.13,2.97-1.28-2.67-2.45-5.39-3.49-8.15,9.51-5.66,19.55-10.42,29.96-14.2l1.13.25Z"/><path class="cls-3" d="M196.13,279.35h-.99c-5.09.24-10.2.41-15.3.54-27.38.72-54.77.11-82.08-1.84-1.25-.08-2.5-.18-3.76-.27-10.3-.78-20.76-1.78-30.35-5.6-9.61-3.8-18.38-10.85-22.01-20.52-2.8-7.5-2.28-15.82-1.26-23.77,4.35-33.66,17.21-66.19,37.09-93.7,5.01-6.95,12.49-14.32,20.78-12.22l.61-.17c-.26-.96-.44-1.94-.58-2.92-1.36-3.57-1.42-7.65-.58-11.61-2.32-.22-4.66-.39-6.99-.43-6.9,17.88-23.05,29.41-32.79,45.5-12.41,20.52-22.76,42.91-29.56,65.91-5.6,18.95-12.87,50.25,7.5,63.27,1.29.83,2.03,1.93,2.34,3.1,5.45,2.76,11.62,3.87,17.69,4.81,46.35,7.17,93.63,8.27,140.27,3.25l1.29.33c2.07-4.34,1.54-9.79-1.32-13.66Z"/><path class="cls-9" d="M99.18,105.85c-3,5.09-2.95,11.73-1.27,17.25s5.29,10.59,10.23,13.88c10.11,6.72,23.69,5.76,32.95-1.94,9.71-8.09,13.5-22.37,8-33.94-4.84-10.2-16.44-17.23-27.78-15.94-12.73,1.45-23.73,12.63-24.21,25.56-.05,1.36,1.93,1.29,2.07,0,1.14-10.19,8.85-19.3,18.72-22.1s20.97,1.92,26.76,10.37c6.52,9.52,5.06,22.49-2.41,31.05-7.22,8.28-18.89,11.19-29.05,6.75-5.58-2.44-10.02-6.93-12.25-12.61s-1.98-11.8-.37-17.74c.22-.83-.94-1.33-1.38-.58h0Z"/><path class="cls-9" d="M121.97,106.48c-.72-.17-1.36.09-2.01.39-.6.28-1.12.7-1.53,1.21-.87,1.09-1.37,2.39-1.42,3.79-.11,2.84,1.99,5.23,4.69,5.9s5.62-.48,6.88-3.03.97-5.73-1.2-7.6c-1.18-1.02-2.67-1.56-4.24-1.55-1.47.01-3.23.46-4.2,1.64-.31.38-.4.88-.08,1.28.3.38.83.5,1.26.25.21-.13.43-.25.65-.37.1-.06.2-.11.3-.16.18-.09.08-.05.27-.11.22-.07.44-.14.66-.19.05-.01.38-.06.22-.04.13-.02.27-.03.4-.03.62-.02.83.01,1.35.15.24.07.48.15.71.24.13.05,0,0-.02,0,.05.02.1.05.16.07.12.06.24.12.35.19.36.21.69.49.95.81-.04-.05.14.2.17.25.06.1.12.19.17.29s.1.2.15.3c-.08-.2.05.16.07.24.07.22.11.44.16.66-.04-.24.01.11.02.18,0,.13.01.27.01.4s0,.27-.02.4c0,.06,0,.11-.02.17,0-.02.03-.19,0-.04-.04.26-.1.52-.18.78-.03.11-.07.22-.11.32-.05.13,0-.01.02-.03-.03.07-.06.14-.1.21-.12.24-.26.46-.4.68-.12.19.07-.06-.08.11-.07.08-.15.17-.23.25-.09.09-.19.18-.29.27-.04.04-.09.07-.13.11.1-.08.06-.04-.02,0-.21.13-.41.26-.64.36-.13.06.02-.01.04-.02-.05.02-.1.04-.16.06-.14.04-.28.09-.43.12-.11.03-.22.05-.33.07-.15.03.04,0,.05,0-.07,0-.15.01-.22.02-.24.01-.48,0-.73,0-.04,0-.27-.03-.11,0,.15.02-.04,0-.06-.01-.11-.02-.22-.04-.33-.07-.26-.06-.51-.14-.75-.23-.22-.08.09.06-.12-.05-.12-.06-.23-.12-.35-.18-.1-.06-.19-.11-.29-.18-.05-.03-.09-.06-.14-.09-.19-.12.04.04-.06-.04-.17-.15-.33-.29-.48-.46-.04-.05-.25-.31-.12-.14-.08-.11-.15-.21-.22-.33s-.13-.23-.19-.34c-.1-.19.01.08-.05-.13-.08-.25-.15-.5-.2-.77.04.23,0-.1,0-.18,0-.15,0-.3,0-.45,0-.13.01-.26.03-.39-.03.23.04-.16.06-.24.06-.26.14-.51.24-.76-.07.19.08-.17.11-.23.06-.12.12-.24.19-.35.08-.13.16-.26.24-.38.03-.05.07-.09.1-.14-.13.18.13-.17.14-.18.02-.02.14-.16.03-.04.05-.06.1-.11.15-.17.09-.1.17-.2.26-.29.39-.43.86-.63,1.28-1.05.35-.35.2-1-.29-1.12h0Z"/><path class="cls-9" d="M92.33,65.42c.74,2.42,2.08,4.69,3.19,6.95s2.23,4.42,3.36,6.63c2.34,4.55,4.72,9.08,7.1,13.61.78,1.5,3.06.17,2.27-1.32-2.39-4.52-4.78-9.05-7.2-13.55-1.17-2.18-2.35-4.36-3.56-6.52s-2.35-4.55-3.92-6.52c-.47-.6-1.45.05-1.24.72h0Z"/><path class="cls-9" d="M129.51,141.03c1.01,3.07,2.51,5.99,3.95,8.88s2.82,5.64,4.22,8.46c2.89,5.79,5.79,11.57,8.69,17.36,5.8,11.57,11.61,23.14,17.44,34.69,1.65,3.26,3.29,6.52,4.94,9.77.79,1.56,1.57,3.11,2.36,4.67s1.48,3.46,2.82,4.73c.64.6,2.06.23,1.93-.8-.2-1.62-.93-2.85-1.66-4.29s-1.49-2.96-2.24-4.44c-1.42-2.81-2.84-5.63-4.26-8.44-2.91-5.78-5.83-11.56-8.74-17.33-5.83-11.55-11.72-23.07-17.58-34.61-1.65-3.25-3.31-6.5-4.97-9.75s-3.23-6.58-5.33-9.54c-.52-.74-1.89-.33-1.56.66h0Z"/><path class="cls-9" d="M93.4,65.26c4.17-1.86,8.11-4.24,12.12-6.42s8.07-4.29,12.16-6.33c8.17-4.09,16.47-7.93,24.88-11.5,1.72-.73.24-3.25-1.47-2.52-8.4,3.61-16.67,7.47-24.81,11.63-4.07,2.08-8.1,4.22-12.1,6.43s-8.06,4.38-11.71,7.12c-.95.71-.16,2.08.93,1.59h0Z"/><path class="cls-9" d="M143.45,39.6c1.57,5.75,4.1,11.28,6.42,16.76s4.61,10.81,6.96,16.19c4.77,10.91,9.68,21.77,14.73,32.55,10.1,21.57,20.73,42.89,31.9,63.93,6.25,11.78,12.67,23.48,19.25,35.08.93,1.64,3.46.17,2.53-1.48-11.71-20.65-22.9-41.59-33.56-62.81-10.66-21.21-20.8-42.69-30.4-64.4-2.7-6.1-5.35-12.22-7.96-18.35s-4.91-12.43-8.14-18.21c-.52-.94-2-.3-1.72.73h0Z"/><path class="cls-9" d="M175.07,229.95c2.09-.08,4.29-1.63,6.07-2.63,1.95-1.1,3.89-2.2,5.85-3.28,4.12-2.28,8.28-4.5,12.45-6.68,8.27-4.33,16.67-8.43,25.17-12.31,1.73-.79.23-3.34-1.49-2.55-8.49,3.88-16.89,7.99-25.16,12.33-4.1,2.15-8.16,4.38-12.19,6.66-2.01,1.14-4.03,2.29-6.02,3.46-1.76,1.03-4.19,2.2-5.26,3.99-.25.43.07,1.03.58,1.01h0Z"/><path class="cls-9" d="M182.89,224.53c-.97,1.8-.45,4.32-.4,6.3.07,2.22.04,4.52.32,6.73.62,4.79,6.06,2.2,8.67.97,3.92-1.83,7.59-4.14,11.28-6.38,4.06-2.46,8.12-4.93,12.17-7.39,4.56-2.77,9.11-5.53,13.67-8.3.7-.43.97-1.57.28-2.15-3.59-3.04-7.6-5.83-11.92-7.72-1.52-.66-2.88,1.47-1.34,2.29,4.03,2.13,7.83,4.42,11.32,7.37l.28-2.15c-7.11,4.34-14.23,8.67-21.34,13.01-3.49,2.13-6.95,4.3-10.49,6.35-1.65.95-3.33,1.86-5.05,2.68-.86.41-1.73.8-2.61,1.14-.48.19-1.67.8-2.14.39-.53-.46-.31-2.42-.35-3.08-.07-1.16-.14-2.33-.23-3.49s-.18-2.33-.29-3.49-.13-2.11-.78-3.05c-.25-.36-.82-.43-1.05,0h0Z"/><path class="cls-9" d="M185.15,232.97c6.14-3.66,12.22-7.37,18.51-10.78,6.29-3.41,12.72-6.52,19.24-9.44.98-.44.13-1.92-.85-1.46-6.46,3.02-12.81,6.31-19.07,9.74s-12.47,7.03-18.35,11.06c-.53.37-.06,1.22.51.88h0Z"/><path class="cls-9" d="M101.51,58.6c-1.49-3.52-3.8-6.72-5.57-10.11s-3.37-7-4.73-10.64l-.63,1.54c8-4.65,16.27-8.83,24.77-12.49,2.04-.88,4.16-1.99,6.3-2.58.63-.17.75-.2,1.07.37.29.51.47,1.1.7,1.63.43,1.02.86,2.04,1.29,3.05,1.93,4.53,3.86,9.07,5.79,13.6.54,1.27,2.77.35,2.25-.95-1.58-3.88-3.15-7.76-4.73-11.64-.8-1.98-1.6-3.96-2.43-5.93-.58-1.38-1.3-2.82-2.97-3.01s-3.59.96-5.12,1.59c-1.83.76-3.66,1.54-5.48,2.34-3.63,1.6-7.21,3.3-10.75,5.09-4.09,2.07-8.12,4.27-12.08,6.58-.48.28-.83.98-.63,1.54,1.42,3.78,3.08,7.47,4.98,11.04s3.82,7.26,6.69,9.94c.7.66,1.59-.17,1.25-.97h0Z"/><path class="cls-9" d="M97.88,52.5c2.6-.4,5.18-1.61,7.58-2.66,2.62-1.15,5.16-2.48,7.68-3.84,5.14-2.77,10.3-5.54,15.37-8.45.88-.51.1-1.83-.79-1.36-5.1,2.7-10.09,5.61-15.14,8.38-2.37,1.3-4.77,2.56-7.22,3.72-2.58,1.22-5.3,2.06-7.88,3.25-.58.27-.13,1.03.4.95h0Z"/><path class="cls-9" d="M93.74,44.19c2.64-.71,5.16-2.1,7.64-3.23,2.71-1.23,5.4-2.48,8.11-3.73,5.32-2.45,10.71-4.79,15.95-7.42,1.06-.53.13-2.04-.92-1.57-5.27,2.35-10.42,4.99-15.6,7.52-2.52,1.23-5.04,2.45-7.56,3.68s-5.5,2.43-7.87,4.12c-.3.21-.13.73.26.62h0Z"/><path class="cls-9" d="M83.34,24.02c2.54-.49,5.05-2.03,7.36-3.14,2.57-1.23,5.13-2.5,7.68-3.77,5.02-2.51,10.11-4.96,15.02-7.68,1.12-.62.13-2.26-.99-1.7-5.04,2.49-9.98,5.19-14.99,7.72-2.47,1.25-4.95,2.48-7.43,3.72s-5.16,2.21-7.18,3.92c-.46.39.05,1.03.54.93h0Z"/><path class="cls-9" d="M83.81,22.87c-.75-2.69-2.05-5.24-3.03-7.85l-.48,1.19c4.72-2.75,9.52-5.35,14.45-7.69s10.13-4.36,15.27-6.38c1.26-.49.76-2.52-.57-2.07-5.24,1.76-10.37,4.04-15.37,6.4s-10.05,5.02-14.85,7.92c-.36.22-.65.76-.48,1.19,1.04,2.65,2.03,5.52,3.67,7.88.47.68,1.63.29,1.39-.58h0Z"/><path class="cls-9" d="M110.27,1.87c.04.13.04.26.08.39s.1.25.14.37c.1.25.19.5.3.75.21.47.42.95.63,1.42.41.92.79,1.88,1.25,2.78.21.41.75.55,1.16.38s.71-.66.54-1.09c-.39-.98-.87-1.93-1.32-2.88-.21-.45-.42-.9-.63-1.36-.1-.23-.22-.45-.33-.67-.05-.1-.1-.21-.16-.3-.08-.14-.19-.24-.27-.37-.46-.7-1.64-.28-1.4.59h0Z"/><path class="cls-9" d="M89.14,21.48c.7,2.19,1.66,4.29,2.56,6.4.44,1.02.89,2.04,1.34,3.06s.78,2.4,1.68,3.04c.54.38,1.11-.15,1.17-.67.07-.57-.22-1.07-.44-1.57s-.45-1.02-.68-1.53c-.47-1.05-.93-2.11-1.41-3.16-.94-2.05-1.84-4.14-2.97-6.09-.38-.65-1.48-.22-1.24.52h0Z"/><path class="cls-9" d="M110.29,9.91c.68,2.41,1.71,4.74,2.75,7.02s2.08,4.65,3.17,6.94c.53,1.12,2.15.14,1.65-.96-1.03-2.28-2.12-4.52-3.18-6.78s-2.15-4.51-3.54-6.57c-.28-.42-1-.17-.85.36h0Z"/><path class="cls-9" d="M98.51,121c-9.27-2.59-16.91,5.22-21.91,12.02-6.01,8.17-11.32,16.9-15.99,25.9-9.33,17.99-16.03,37.34-19.75,57.26-.95,5.07-1.74,10.19-2.25,15.32s-.64,10.56.4,15.74c1.8,9.05,7.66,16.44,15.22,21.51,8.45,5.66,18.5,8.04,28.46,9.29,11.29,1.42,22.73,1.93,34.09,2.48,23.21,1.13,46.46,1.32,69.68.44,2.89-.11,5.78-.24,8.68-.38,1.56-.08,1.58-2.49,0-2.44-22.48.82-44.97.97-67.45.17-11.16-.4-22.3-1.01-33.44-1.85-10.4-.78-21.03-1.76-30.77-5.78-7.82-3.23-15.1-8.71-19.13-16.28-4.83-9.06-3.63-19.83-2.19-29.6,2.85-19.38,8.51-38.36,16.74-56.14,4.13-8.91,8.89-17.53,14.25-25.76,2.56-3.93,5.16-7.91,8.22-11.47,2.81-3.28,6.23-6.56,10.43-7.91,2.08-.67,4.03-1.01,6.2-.59,1.26.25,1.8-1.59.54-1.94h0Z"/><path class="cls-9" d="M99.38,106.41c-6.29-.97-12.87-1.51-19.06.36-4.95,1.5-9.3,4.42-12.97,8.01s-6.93,8.06-9.75,12.54c-3.22,5.11-6.17,10.41-9.01,15.75-11.66,21.92-20.71,45.29-26.3,69.5-2.88,12.5-5.56,25.65-4.68,38.53.75,10.98,4.58,22.19,12.82,29.83,9.11,8.45,22.06,9.52,33.81,11.14,13.4,1.85,26.86,3.2,40.37,4.05,27.15,1.7,54.46,1.41,81.55-1.14,3.34-.31,6.67-.66,10-1.03,1.6-.18,1.62-2.7,0-2.53-26.32,2.74-52.87,3.6-79.31,2.54-13.23-.53-26.43-1.55-39.59-3.05-6.53-.75-13.05-1.61-19.55-2.6-5.93-.9-12.05-1.78-17.56-4.27-9.67-4.36-15.76-13.71-18.31-23.75-3.14-12.35-1.17-25.44,1.19-37.74,4.56-23.8,12.53-46.9,23.14-68.66,2.66-5.46,5.49-10.83,8.47-16.12,2.66-4.73,5.39-9.45,8.56-13.86s6.54-8.18,10.85-11.1c4.73-3.2,9.98-4.57,15.67-4.67,3.13-.05,6.27.18,9.39.29,1.12.04,1.42-1.83.27-2h0Z"/><path class="cls-9" d="M98.62,276.9c.36-1.63.72-3.27,1.08-4.9l-.94.72c10.35,1.28,20.88,1.66,31.3,1.96s20.91.35,31.35.02c5.92-.19,11.84-.48,17.76-.87l-1.19-.9c.25,1.78.5,3.56.71,5.35.17,1.38,2.35,1.42,2.2,0-.19-1.89-.34-3.78-.5-5.68-.05-.63-.52-1.28-1.23-1.23-20.86,1.41-41.8,1.63-62.68.54-5.92-.31-11.82-.84-17.73-1.15-.38-.02-.88.32-.94.72-.25,1.67-.49,3.33-.74,5-.14.99,1.31,1.45,1.54.42h0Z"/><path class="cls-9" d="M198.22,293.46c2.66-4.43,1.86-10.61-1.13-14.68-.36-.49-.97-.73-1.53-.4-.48.28-.76,1.04-.4,1.53,1.32,1.81,2.18,3.95,2.39,6.19s-.21,4.52-.95,6.67c-.34.97,1.12,1.53,1.63.69h0Z"/><path class="cls-9" d="M1.96,312.29c-.67-6.35,3.79-11.91,9.45-14.27,6.7-2.8,14.41-2.12,21.5-1.96,15.8.36,31.59.98,47.39,1.51,31.54,1.06,63.15,1.87,94.67-.22,4.21-.28,8.4-.68,12.61-.95,3.98-.25,8.04-.31,11.93.7,6.08,1.57,12.6,7.31,10.87,14.24-.43,1.7,2.18,2.42,2.62.72,1.6-6.12-2.08-12.09-7.12-15.36-6.14-3.98-14-3.57-20.98-3-16.57,1.36-33.16,2.01-49.79,2.08s-33.24-.35-49.85-.88-33.41-1.15-50.12-1.48c-7.5-.14-15.51-.84-22.74,1.63-5.83,1.99-11.36,6.72-12.29,13.11-.22,1.48-.12,2.89.26,4.33.22.86,1.69.71,1.59-.21h0Z"/><path class="cls-9" d="M2,313.2c6.79.45,13.63.4,20.43.53s13.62.23,20.44.32c13.62.18,27.25.28,40.87.32,27.25.07,54.5-.18,81.75-.7,15.28-.29,30.57-.65,45.84-1.16,1.61-.05,1.62-2.56,0-2.51-27.24.84-54.48,1.52-81.73,1.84-27.25.32-54.5.38-81.75.14-7.64-.07-15.29-.16-22.93-.27s-15.3-.48-22.93-.3c-1.16.03-1.14,1.71,0,1.78h0Z"/></g></g></g></svg>