<?xml version="1.0" encoding="UTF-8"?><svg xmlns="http://www.w3.org/2000/svg" viewBox="0 0 1919.4 626.57"><defs><style>.cls-1{isolation:isolate;}.cls-2{fill:#c0dffe;mix-blend-mode:multiply;opacity:.7;}</style></defs><g class="cls-1"><g id="Capa_2"><g id="OBJECTS"><path class="cls-2" d="M1708.98,46.56c-89.87,22.38-164.98,85.17-194.6,173.99-.81,2.42-3.56,3.08-5.45,1.44-86.44-74.77-211.89,8.1-245.11,98.79-.64,1.75-2.97,3.33-4.79,1.95-32.44-24.65-73.26-38.63-114-30.15-41.63,8.66-73.1,38.71-92.01,75.75-.89,1.75-3.82,2.24-5.12.66-17.28-21.04-39.43-44.36-67.3-49.98-33.97-6.85-57.05,22.66-71.23,49.32-1.25,2.35-4.28,1.86-5.63,0-28.99-39.83-69.23-90.39-125.4-75.96-19.81,5.09-36.06,18.11-54.67,26.02-8.4,3.57-17.28,6.69-24.18,12.93-1.75,1.58-3.67,5.02-5.99,5.89-6.78,2.53-16.85-12.55-20.67-16.1-12.83-11.94-22.69-25.23-32.56-39.62-9.77-14.23-20.51-26.72-36.6-33.95-20.6-9.27-46.33-12.58-68.75-10.92-45.09,3.35-79.16,33.04-99.96,71.58-1.23,2.27-4.33,1.94-5.63,0-25.77-38.46-16.72-93.64-51.56-126.78-54.6-51.92-130.95-14.34-184.52,17.7-2.19,1.31-4.81-.39-4.91-2.82-.93-23.79-6-47.31-13.58-69.84-13.93-41.38-37.58-84.66-74.67-109.55C83.38,5.7,63.97-.86,43.73.09,28.17.82,13.54,5.79,0,13.04v613.53h1919.4V66.79c-64.5-31.45-141.04-37.5-210.42-20.23Z"/></g></g></g></svg>