<?xml version="1.0" encoding="UTF-8"?><svg xmlns="http://www.w3.org/2000/svg" viewBox="0 0 1949.88 1036.89"><defs><style>.cls-1,.cls-2{fill:#c0dffe;}.cls-1,.cls-2,.cls-3{mix-blend-mode:multiply;}.cls-4{isolation:isolate;}.cls-2{opacity:.7;}</style></defs><g class="cls-4"><g id="Capa_2"><g id="OBJECTS"><path class="cls-2" d="M1739.45,456.87c-89.87,22.38-164.98,85.17-194.6,173.99-.81,2.42-3.56,3.08-5.45,1.44-86.44-74.77-211.89,8.1-245.11,98.79-.64,1.75-2.97,3.33-4.79,1.95-32.44-24.65-73.26-38.63-114-30.15-41.63,8.66-73.1,38.71-92.01,75.75-.89,1.75-3.82,2.24-5.12.66-17.28-21.04-39.43-44.36-67.3-49.98-33.97-6.85-57.05,22.66-71.23,49.32-1.25,2.35-4.28,1.86-5.63,0-28.99-39.83-69.23-90.39-125.4-75.96-19.81,5.09-36.06,18.11-54.67,26.02-8.4,3.57-17.28,6.69-24.18,12.93-1.75,1.58-3.67,5.02-5.99,5.89-6.78,2.53-16.85-12.55-20.67-16.1-12.83-11.94-22.69-25.23-32.56-39.62-9.77-14.23-20.51-26.72-36.6-33.95-20.6-9.27-46.33-12.58-68.75-10.92-45.09,3.35-79.16,33.04-99.96,71.58-1.23,2.27-4.33,1.94-5.63,0-25.77-38.46-16.72-93.64-51.56-126.78-54.6-51.92-130.95-14.34-184.52,17.7-2.19,1.31-4.81-.39-4.91-2.82-.93-23.79-6-47.31-13.58-69.84-13.93-41.38-37.58-84.66-74.67-109.55-16.7-11.21-36.1-17.76-56.34-16.82-15.56.73-30.2,5.7-43.73,12.95v613.53h1919.4V477.1c-64.5-31.45-141.04-37.5-210.42-20.23Z"/><g class="cls-3"><path class="cls-1" d="M85.35,250.26c-7.47.05-14.19,4.65-16.04,12.07-1.61,6.46,1.81,14.78,8.28,17.15.08.1.19.19.32.26,5.77,2.83,12.88,2.08,17.95-1.86,5.15-4,6.98-10.79,5-16.94-.92-2.86-2.59-5.52-4.94-7.41-2.98-2.39-6.8-3.3-10.58-3.27Z"/><path class="cls-1" d="M156.44,251.22c4.09-4.94,8.97-10.71,8.26-17.58-.63-6.01-5.04-10.9-10.14-13.76-12.66-7.08-28.75-2.73-41.8.84-.29.08-.57.16-.85.24-1.19-6.39-2.58-12.78-4.43-19.01-1.73-5.83-4.09-11.62-8.08-16.3-3.51-4.11-8.11-6.79-13.53-7.29-3.62-.33-7.45.36-10.63,2.18-.69-.37-1.41-.67-2.18-.9-1.95-.57-4.48-.73-6.54-.04-2.03.16-3.76,1.74-4.94,3.32-1.36,1.82-2.19,3.98-2.3,6.25-.15,2.97,1.06,5.87,3.05,8.04-2.54,5.9-4,12.37-5.12,18.61-.09.5-.17,1.01-.26,1.51-2.47-.9-4.95-1.78-7.45-2.6-6.79-2.23-13.83-4.39-21.04-4.39-6.21,0-12.57,1.79-16.84,6.52-3.46,3.83-5.63,9.14-4.86,14.33.17,1.17.52,2.25,1.02,3.25,2.41,11.82,11.37,20.88,20.18,28.68-2.44,1.89-4.84,3.81-7.2,5.79-5.05,4.23-10.06,8.73-13.58,14.35-3.14,5.01-4.94,10.97-3.59,16.85.07.29.14.58.23.87-.56.51-1.07,1.08-1.5,1.66-1.36,1.82-2.19,3.98-2.3,6.25-.22,4.5,2.64,8.86,6.7,10.7,4.23,1.92,9.26.76,12.37-2.66.64-.7,1.16-1.47,1.57-2.28,11.72,2.72,24.18-.82,35.54-4.28.05-.02.11-.03.16-.05,2.27,10.17,5.54,20.11,10.03,29.62,2.64,5.6,6.02,11.6,12.49,13.22,5.82,1.46,11.98-.83,16.57-4.4,10.39-8.09,13.55-22.47,15.99-34.72,8.73,2.73,17.7,4.7,26.88,5.68,3.51.37,7.25.53,10.66-.28.1.05.2.1.3.15,4.23,1.92,9.25.76,12.37-2.66,3.23-3.54,3.58-8.8,1.02-12.83-.57-.9-1.26-1.69-2.03-2.38-.02-.71-.07-1.42-.15-2.12-1.49-12.94-11.65-23.02-20.8-31.5,6.02-5.14,11.65-10.75,16.73-16.88ZM112.3,283.35c-4.51,2.61-9.11,5.05-13.77,7.31-5.43,2.63-10.95,5.05-16.55,7.28-3.96-2.15-7.85-4.41-11.66-6.79-5-3.12-9.87-6.43-14.63-9.89-.29-5.24-.39-10.49-.31-15.73.09-5.86.4-11.71.88-17.55,9.4-5.47,19.17-10.3,29.21-14.46,9.31,4.9,18.29,10.43,26.88,16.51.75,11.09.74,22.23-.05,33.31ZM115.74,252.48c4.96,3.64,9.78,7.46,14.43,11.47,1.54,1.33,3.07,2.68,4.58,4.04-6.03,4.89-12.43,9.33-19.09,13.36.59-9.61.61-19.25.07-28.87ZM108.93,309.84c-1.26-.43-2.52-.86-3.77-1.32-6.66-2.45-13.14-5.36-19.45-8.61,2.55-1.05,5.08-2.12,7.6-3.25,6.34-2.84,12.59-5.96,18.66-9.39-.49,5.62-1.17,11.23-2.07,16.8-.31,1.92-.64,3.84-.99,5.76ZM58.59,305.22c-1.27-6.53-2.13-13.14-2.64-19.77,2.08,1.48,4.18,2.94,6.31,4.36,5.12,3.42,10.39,6.65,15.78,9.66-4.71,1.8-9.46,3.49-14.25,5.07-1.66.55-3.33,1.09-5,1.63-.06-.32-.14-.64-.2-.95ZM52.3,278.77c-4.69-3.51-9.29-7.14-13.79-10.89-1.79-1.49-3.62-3-5.44-4.55.63-.47,1.25-.95,1.89-1.41,5.78-4.24,11.75-8.2,17.88-11.91-.19,2.59-.36,5.17-.48,7.76-.32,6.97-.36,13.99-.05,20.99ZM59.47,221.76c1.18.45,2.36.9,3.53,1.37,6.34,2.54,12.56,5.36,18.66,8.43-8.58,3.66-16.95,7.81-25.06,12.43.59-6.21,1.37-12.41,2.31-18.57.18-1.21.37-2.44.56-3.67ZM89.4,231.94c5.16-2.03,10.38-3.88,15.66-5.55,1.42-.45,2.84-.88,4.26-1.3,1.2,6.86,2.1,13.78,2.69,20.73-7.28-5.03-14.83-9.67-22.62-13.88ZM64.89,199.31c.35.21.71.41,1.09.58,4.23,1.92,9.25.76,12.37-2.66,3.23-3.54,3.58-8.8,1.02-12.83-.39-.62-.84-1.18-1.33-1.7,5.07-2.11,11.82-1.05,15.97,2.3,4.48,3.61,7.22,8.89,9.11,14.22,2.18,6.15,3.59,12.61,4.9,19,.25,1.22.48,2.44.71,3.66-7.84,2.29-15.56,4.99-23.13,8.07-5.44-2.82-10.98-5.45-16.62-7.85-2.97-1.26-5.97-2.47-8.98-3.62,1.07-6.51,2.43-13.09,4.89-19.16ZM12.9,240.27c-.42-.86-.8-1.74-1.15-2.62.54-.45.78-1.31.21-2.04-2.97-3.77-2.54-9.02-.38-13.06,2.64-4.91,7.18-7.72,12.62-8.61,6.85-1.12,13.91.69,20.43,2.69,3.96,1.22,7.87,2.55,11.76,3.98-1.4,8.42-2.49,16.9-3.23,25.4-5.41,3.2-10.71,6.6-15.85,10.21-2.29,1.6-4.54,3.26-6.77,4.94-6.96-6.05-13.58-12.69-17.63-20.89ZM45.36,310.08c-6.58,1.66-13.4,2.82-20.21,2.27-1.19-.1-2.37-.27-3.53-.49.49-2.61,0-5.39-1.5-7.75-1.47-2.32-3.69-3.97-6.32-4.74-1.95-.57-4.48-.73-6.54-.04-.14.01-.29.02-.43.04-.79-3.6-.28-7.34,1.27-10.88,2.51-5.69,6.98-10.26,11.57-14.33,3.48-3.09,7.1-6.03,10.8-8.87,7.12,6.18,14.47,12.12,22.08,17.7.53,8.12,1.55,16.2,3.16,24.15-3.43,1.06-6.87,2.06-10.34,2.93ZM105.82,323.99c-1.59,5.91-3.72,11.74-7.28,16.76-3.3,4.65-8.1,8.52-13.86,9.43-2.66.42-5.44.05-7.77-1.34-2.52-1.51-4.25-3.99-5.65-6.5-3.21-5.75-5.64-12.03-7.73-18.26-1.62-4.83-2.96-9.74-4.06-14.71,7.52-2.37,14.97-4.97,22.31-7.86,8.55,4.54,17.41,8.47,26.56,11.54-.72,3.67-1.54,7.33-2.51,10.94ZM144.61,277.5c4.32,4.54,8.36,9.57,10.77,15.42.89,2.16,1.53,4.44,1.82,6.74-.27-.1-.55-.2-.84-.28-1.95-.57-4.48-.73-6.54-.04-2.03.16-3.76,1.74-4.94,3.32-1.36,1.82-2.19,3.98-2.3,6.25-.14,2.88.99,5.71,2.88,7.85-.82.06-1.64.08-2.46.06-6.54-.15-13.18-1.4-19.55-2.84-3.85-.87-7.65-1.93-11.41-3.11,1.57-8.45,2.7-16.97,3.37-25.54,7.63-4.5,14.94-9.52,21.78-15.11,2.55,2.36,5.04,4.79,7.42,7.3ZM137.3,265.9c-6.93-6.3-14.22-12.19-21.83-17.65-.6-8.06-1.58-16.09-2.98-24.05,3.93-1.1,7.88-2.12,11.86-2.98,6.86-1.48,14.1-2.48,21.06-1.12,5.66,1.1,11.33,3.91,14.38,9.02,1.44,2.41,2.08,5.23,1.48,8.01-.7,3.25-2.64,6.06-4.64,8.65-5.71,7.42-12.24,14.09-19.34,20.12Z"/></g><path class="cls-1" d="M1251.16,556.01c.1.88.52,1.71,1.2,2.27.47.4,1.13.69,1.78.73.07.06.15.12.26.14.23.05.47.07.7.07-.07,1.81-.19,3.62-.35,5.43-.08.93-.17,1.86-.27,2.8-.09.81-.24,1.63-.23,2.44-4.15.11-8.31,2.97-9.46,7.02-.09.33-.17.68-.22,1.02-2.43-.21-4.86-.46-7.28-.75-1.23-.15-2.45-.31-3.68-.47-.93-.12-2.11-.43-3.09-.3-.01,0-.03-.02-.04-.03.24-1.14-.61-2.42-1.33-3.22-.88-.98-2.11-1.68-3.38-2-2.73-.69-5.5.54-7.01,2.89-1.52,2.37-1.5,5.38.27,7.61,1.73,2.18,4.7,3.24,7.37,2.33,2.76-.93,4.64-3.72,4.42-6.59.77.24,1.66.3,2.39.42,1.27.21,2.54.37,3.82.53,2.46.31,4.93.57,7.41.79-.16,3.06,1.06,6.19,3.55,8.08,1.76,1.33,3.99,1.94,6.18,1.84,1.05-.05,2.1-.26,3.09-.64.5-.19.98-.45,1.42-.75.21-.14.38-.32.54-.5.08.03.16.05.24.06,1.11,1.45,2.17,2.93,3.16,4.47.99,1.53,1.9,3.09,2.93,4.58-2.35,1.54-3.34,5-2.85,7.63.61,3.25,3.4,5.56,6.6,6.01,3.25.45,6.27-1.28,7.6-4.26,1.29-2.88.79-6.41-1.59-8.56-1.29-1.17-3.04-1.84-4.77-1.93-1.12-.06-2.56.08-3.66.65-.11-.06-.24-.08-.39-.03-.12.05-.24.1-.36.16-.65-1.76-1.55-3.36-2.54-4.95-.95-1.51-1.96-2.98-3.04-4.4,2.51-2.11,3.83-5.53,3.33-8.77,2.79-.41,5.58-.84,8.37-1.27,2.67-.41,5.4-.72,7.98-1.5-.04,1.63.69,3.3,1.6,4.61,1.19,1.7,2.96,3.02,4.95,3.63,2.09.64,4.34.62,6.39-.14,2.08-.76,3.48-2.35,4.27-4.39,1.53-3.96,1.29-8.35-1.81-11.46-2.75-2.77-6.79-3.68-10.37-2-1.89.89-3.5,2.4-4.5,4.23-.71,1.31-1.44,3.36-.84,4.88-2.63.03-5.27.53-7.88.92-2.81.41-5.63.83-8.44,1.26-1.12-3.62-4.61-6.36-8.39-6.67.21-.76.27-1.58.37-2.36.11-.93.22-1.86.31-2.79.17-1.86.29-3.73.37-5.6,0-.06-.01-.11-.03-.17.98-.39,1.81-1.21,2.25-2.16.73-1.55.21-3.31-1.1-4.37-1.21-.97-3.02-1.27-4.38-.46-1.36.81-2.02,2.45-1.84,3.99Z"/><path class="cls-1" d="M561.98,189.46c10-11.25,17.15-26.44,13.69-41.72-1.19-5.24-3.41-10.1-5.87-14.86,7.14,1.61,14.4,3.14,21.75,3.03,7.2-.1,14.19-1.99,20.24-5.94,11.72-7.64,18.44-20.91,18.88-34.75.13-4.04-.25-8.11-1.05-12.07-.4-1.97-.91-3.91-1.53-5.82-.48-1.49-1.08-2.87-1.75-4.25,1.51.46,3.04.9,4.58,1.27,8.21,1.96,16.63,2.09,24.6-.97,8.24-3.16,15.23-8.76,21.46-14.89,1.55-1.53,3.04-3.1,4.45-4.76.1-.11.16-.23.2-.35.38-.19.6-.59.49-1.02-.34-1.31-1.19-2.4-2.29-3.18-.51-.36-1.1-.64-1.71-.78-.33-.08-.66-.12-1-.13-.18,0-.39-.02-.57.03-.08.03-.16.06-.24.11.02,0,.04-.02.06-.03-.09.02-.17.03-.26.06-.23.06-.4.26-.45.48-.04.02-.08.05-.11.09-2.05,2.6-4.34,4.95-6.86,7-.04-.06-.09-.12-.16-.18-12.45-10.68-24.76-21.5-36.47-33-3.18-3.13-6.26-6.44-9.63-9.37.75-1.03,1.51-2.06,2.26-3.08,1.16-1.59,2.76-3.19,3.55-5.02.14-.01.29-.07.37-.17.12-.15.23-.31.29-.5.07-.26,0-.5-.1-.73-.14-.34-.29-.67-.48-.98-.35-.56-.78-1.09-1.27-1.52-.5-.44-1.05-.82-1.66-1.08-.18-.08-.37-.16-.56-.21-.12-.03-.22-.05-.35-.07.12.01-.1-.01-.11-.01-.34-.06-.7-.1-.98.08-.02,0-.04,0-.06,0-.04,0-.07.01-.11.02-.16-.12-.39-.16-.59-.04-1.8,1.07-3.28,2.64-4.66,4.19-1.39,1.55-2.68,3.19-3.9,4.88-2.48,3.43-4.58,7.11-6.21,11.02-3.36,8.07-4.54,16.95-2.78,25.56.84,4.14,2.41,8.34,4.82,11.87-4.18-1.11-8.41-2.07-12.67-2.79-4.29-.72-8.66-1.15-13-.65-7.72.9-14.93,4.41-20.67,9.61-5.71,5.17-9.71,12-11.84,19.38-2.18,7.59-2.37,15.65-.89,23.39.76,3.98,1.94,7.85,3.35,11.64-1.12-1.07-2.92-1.64-4.27-2.22-1.9-.81-3.83-1.55-5.81-2.18-3.83-1.2-7.88-2.02-11.92-1.81-4.16.22-8.07,1.58-11.53,3.88-3.73,2.49-6.98,5.68-10.23,8.75-3.93,3.71-7.77,7.51-11.52,11.4-.32.33-.39.71-.3,1.05-.05.13-.07.27-.02.43.38,1.32,1.44,2.36,2.65,2.94.65.31,1.31.5,2.03.57.3.03.6.03.9,0,.27-.03.53-.05.78-.17.1-.05.19-.1.29-.16.22-.04.43-.16.62-.37,1.7-1.93,3.48-3.81,5.3-5.62,1.37,1.6,3,2.98,4.55,4.4,1.57,1.44,3.15,2.86,4.72,4.28,3.16,2.85,6.32,5.68,9.5,8.51,6.35,5.66,12.69,11.32,19.05,16.96,1.74,1.54,3.48,3.09,5.22,4.63,1.64,1.46,3.25,3.18,5.11,4.39-.12.16-.23.33-.35.49-1.11,1.53-2.28,3-3.49,4.46-.4.48-.34,1.04-.08,1.45-.05.09-.08.19-.09.3,0,.07-.01.15,0,.22,0,.08,0,.1,0,.04.02-.1,0-.04-.02.17,0,.13.02.27.04.4,0,.28.1.55.21.82.12.3.26.6.43.87.31.5.71.97,1.16,1.35.97.82,2.13,1.31,3.4,1.38.12,0,.24-.02.36-.07.36.11.76.05,1.09-.32ZM615.54,69.32c-.01.09-.01.18.03.28,1.21,3.2,2.91,6.16,3.96,9.44,1.03,3.23,1.71,6.57,1.94,9.95.12,1.8.11,3.61-.02,5.4-5.51-5.45-11.23-10.7-16.88-16.02-2.91-2.74-5.82-5.48-8.74-8.21-1.46-1.37-2.92-2.73-4.38-4.1-.78-.73-1.56-1.45-2.35-2.16-.36-.32-.73-.61-1.05-.94,6.52-.22,13.08,1.41,19.23,3.42,2.78.91,5.52,1.92,8.26,2.93ZM606.04,104.57c-3.13-2.78-6.25-5.57-9.38-8.35-6.15-5.48-12.33-10.94-18.5-16.4-1.74-1.54-3.49-3.08-5.25-4.61-.9-.79-1.81-1.57-2.72-2.34-.6-.51-1.18-1.1-1.89-1.42,3.69-3.61,8.22-6.31,13.26-7.58,0,.04,0,.09.02.14.23.68.73,1.1,1.22,1.61.63.64,1.26,1.29,1.91,1.92,1.24,1.22,2.48,2.43,3.73,3.64,2.49,2.42,5,4.83,7.54,7.2,5.08,4.74,10.23,9.41,15.45,14.01,2.92,2.57,5.82,5.37,9.03,7.57.05.04.11.05.16.07-.62,2.76-1.55,5.45-2.84,8-.82,1.62-1.77,3.17-2.83,4.64-2.8-2.86-5.93-5.43-8.91-8.09ZM569.4,78.22c1.49,1.42,2.99,2.84,4.49,4.25,3.05,2.87,6.13,5.7,9.21,8.54,6.05,5.59,12.14,11.15,18.21,16.72,3.33,3.05,6.59,6.36,10.27,9-1.82,1.88-3.83,3.57-6.04,4.98-2.09,1.34-4.31,2.4-6.62,3.19-.04-.06-.07-.11-.14-.16-5.51-4.28-11.15-8.36-16.54-12.79-5.34-4.39-10.51-8.99-15.54-13.75-2.73-2.59-5.33-5.35-8.16-7.83.91-5.05,2.79-9.89,5.75-14.17.42-.6.86-1.18,1.31-1.76,1.18,1.34,2.51,2.54,3.8,3.77ZM564.13,122.03c-3.6-7.37-6.09-15.19-6.25-23.47-.01-.62,0-1.23,0-1.85.95,1,2.03,1.9,3.02,2.81,1.47,1.35,2.96,2.69,4.45,4.02,3.08,2.76,6.17,5.51,9.27,8.24,3.1,2.74,6.2,5.47,9.3,8.21,2.47,2.18,4.9,4.51,7.48,6.58-1.54.17-3.09.25-4.64.24-7.87-.07-15.21-2.47-22.63-4.79ZM664.5,59.02c-2.1,1.33-4.33,2.48-6.69,3.45-2.04.83-4.13,1.49-6.26,1.99-.03-.14-.09-.27-.21-.38-5-4.22-10.06-8.37-14.92-12.75-4.86-4.38-9.59-8.91-14.21-13.54-2.63-2.64-5.14-5.45-8-7.85-.04-.04-.09-.06-.14-.08,1.19-4.61,3.37-8.95,5.99-12.98.85,1.38,2.02,2.64,3.03,3.86,1.3,1.58,2.66,3.11,4.02,4.64,2.72,3.05,5.53,6.03,8.41,8.94,5.71,5.77,11.73,11.24,18,16.4,3.54,2.92,7.19,5.68,10.97,8.29,0,0,0,0,0,0ZM621.6,61.26s-.01-.03-.02-.04c-2.29-3.7-4.55-7.34-6.08-11.44-1.47-3.96-2.38-8.13-2.4-12.37,0-.28.01-.55.02-.82,1.04,1.21,2.32,2.27,3.47,3.35,1.41,1.32,2.83,2.64,4.26,3.94,2.86,2.61,5.74,5.19,8.66,7.73,2.92,2.54,5.86,5.06,8.83,7.55,1.48,1.25,2.97,2.48,4.46,3.72.8.66,1.6,1.31,2.41,1.95.22.18.44.37.67.56-3.48.32-6.99.19-10.46-.4-4.71-.8-9.27-2.23-13.81-3.72ZM516.43,132.25c-.21-.15-.4-.24-.58-.3,0-.01-.01-.02-.02-.03-.05-.06-.1-.11-.16-.16-.11-.1-.21-.19-.33-.29-.14-.11-.28-.23-.41-.34.01-.01.03-.03.04-.04,3.17-2.87,6.51-5.62,10.31-7.63.56-.29,1.12-.56,1.69-.81,5.09,4.69,10.59,8.95,15.83,13.47,5.31,4.58,10.57,9.24,15.76,13.96,2.95,2.68,5.79,5.51,8.81,8.12.18.16.38.21.57.2-.66,5.45-2.91,10.57-5.79,15.25-.02-.02-.02-.05-.04-.07-1.39-1.51-3.05-2.8-4.6-4.14-1.56-1.35-3.13-2.7-4.69-4.06-3.12-2.71-6.22-5.44-9.31-8.19-6.17-5.5-12.25-11.1-18.28-16.75-1.65-1.55-3.29-3.1-4.94-4.65-.85-.79-1.69-1.6-2.55-2.38-.43-.39-.84-.82-1.31-1.16ZM550.99,135.97c-2.98-2.71-5.97-5.4-8.99-8.07-2.71-2.39-5.4-4.84-8.25-7.07,1.01-.11,2.03-.14,3.07-.11,3.71.14,7.34,1.17,10.77,2.53,3.77,1.49,7.24,3.59,10.96,5.18.7,1.51,1.41,3,2.13,4.5,2.89,6.03,6.16,12.12,7.14,18.69-5.56-5.27-11.16-10.49-16.83-15.64Z"/><path class="cls-1" d="M707.95,585.23c-.06-1.25-.28-2.5-.47-3.73-.26-1.69-.54-3.37-.8-5.05-.52-3.3-1.01-6.61-1.49-9.92-.48-3.37-.93-6.74-1.34-10.11-.21-1.69-.41-3.38-.6-5.08-.15-1.3-.22-2.66-.42-3.96,3.59,1.15,7.87-.82,9.88-3.87,2.48-3.75,1.8-9.1-1.29-12.29-3.02-3.11-7.95-4.1-11.93-2.38-3.92,1.7-6.72,5.91-5.91,10.23.33,1.76,1.27,3.34,2.5,4.62-4.93,3.78-9.84,7.59-14.75,11.38-2.53,1.96-5.07,3.91-7.59,5.88-1.26.98-2.53,1.96-3.78,2.95-1.29,1.03-2.68,2.04-3.84,3.23-.02-.03-.05-.05-.07-.07-.61-1.34-1.74-2.5-2.88-3.33-1.77-1.29-3.94-2-6.13-2.04-4.57-.08-8.31,3.1-9.55,7.4-1.25,4.33.19,9.03,3.98,11.56,3.64,2.43,8.95,2.55,12.53-.06,1.02-.74,1.87-1.66,2.55-2.69,2.55,1.72,5.38,3.11,8.13,4.46,3.04,1.49,6.12,2.9,9.23,4.22,5.93,2.51,11.99,4.7,18.14,6.6-.18.9-.26,1.81-.2,2.72.24,3.87,2.68,7.5,6.26,9.04,3.57,1.54,7.93.67,10.69-2.06,3.06-3.04,3.73-8.64,1.79-12.45-2.33-4.58-8.01-5.41-12.65-5.21ZM684.51,584.91c-3.13-1.32-6.23-2.71-9.29-4.18-2.67-1.29-5.31-2.72-8.04-3.9.53-1.08.89-2.25,1-3.47.17-1.82-.27-3.7-1.26-5.21,2.69-1.51,5.14-3.67,7.59-5.53,2.6-1.97,5.19-3.96,7.78-5.95,5.08-3.89,10.17-7.78,15.23-11.68,1.06.81,2.32,1.55,3.65,1.93.01,1.6.31,3.25.49,4.83.19,1.69.39,3.38.6,5.08.41,3.32.86,6.64,1.33,9.96.48,3.37,1.01,6.74,1.57,10.1.48,2.83.77,5.92,1.73,8.66-.17.2-.24.47-.19.71-1.9,1.19-3.34,3.07-4.15,5.19-6.12-1.87-12.16-4.03-18.06-6.52Z"/><path class="cls-1" d="M1353.44,198.9c.62,1.08,1.39,2.1,2.12,3.1,1,1.38,2.02,2.75,3.02,4.13,1.97,2.7,3.92,5.42,5.85,8.14,1.97,2.77,3.9,5.57,5.81,8.38.96,1.41,1.91,2.82,2.85,4.24.73,1.09,1.41,2.26,2.19,3.33-3.72.62-6.62,4.33-7.02,7.96-.49,4.47,2.55,8.92,6.76,10.34,4.11,1.38,8.95.02,11.7-3.33,2.71-3.3,3.28-8.33.58-11.8-1.09-1.41-2.65-2.39-4.33-2.97,2.65-5.62,5.28-11.24,7.92-16.86,1.36-2.9,2.72-5.79,4.07-8.69.67-1.45,1.36-2.9,2.01-4.35.68-1.5,1.45-3.04,1.94-4.63.03.01.07.02.1.03,1.16.91,2.69,1.43,4.08,1.65,2.16.34,4.42-.02,6.38-.98,4.1-2.02,5.97-6.55,5.11-10.95-.86-4.42-4.29-7.95-8.83-8.47-4.35-.5-9.12,1.82-11.12,5.78-.57,1.12-.91,2.33-1.04,3.56-3.05-.36-6.21-.31-9.27-.25-3.38.06-6.77.21-10.14.47-6.42.48-12.81,1.29-19.15,2.41-.25-.88-.6-1.73-1.06-2.51-1.98-3.33-5.81-5.45-9.7-5.19-3.87.26-7.36,3.02-8.56,6.72-1.33,4.1.63,9.39,4.09,11.89,4.17,3.01,9.59,1.16,13.63-1.15ZM1374.44,188.47c3.39-.26,6.78-.43,10.17-.52,2.97-.07,5.97-.01,8.93-.2.02,1.2.24,2.41.7,3.55.68,1.69,1.93,3.17,3.5,4.06-1.71,2.57-2.89,5.61-4.22,8.38-1.41,2.94-2.81,5.9-4.21,8.85-2.74,5.78-5.49,11.56-8.21,17.35-1.32-.23-2.77-.32-4.12-.05-.74-1.42-1.76-2.75-2.64-4.07-.94-1.42-1.9-2.83-2.86-4.24-1.88-2.77-3.8-5.52-5.73-8.25-1.97-2.78-3.97-5.53-6.01-8.26-1.72-2.3-3.39-4.91-5.5-6.91.06-.25,0-.53-.15-.71,1.14-1.93,1.57-4.26,1.32-6.52,6.3-1.13,12.66-1.97,19.04-2.45Z"/></g></g></g></svg>