<?xml version="1.0" encoding="UTF-8"?><svg xmlns="http://www.w3.org/2000/svg" viewBox="0 0 268.58 304.62"><defs><style>.cls-1,.cls-2,.cls-3{opacity:.3;}.cls-1,.cls-2,.cls-3,.cls-4{mix-blend-mode:multiply;}.cls-1,.cls-5{fill:#f6dd35;}.cls-2,.cls-6{fill:#c3bef1;}.cls-3,.cls-7{fill:#db1698;}.cls-8{isolation:isolate;}.cls-4{fill:#c0dffe;opacity:.7;}.cls-9{fill:#271857;}</style></defs><g class="cls-8"><g id="Capa_2"><g id="OBJECTS"><ellipse class="cls-4" cx="62.82" cy="284.01" rx="53.57" ry="17.79"/><ellipse class="cls-4" cx="215.01" cy="286.83" rx="53.57" ry="17.79"/><path class="cls-6" d="M240.18,81.51c.39,4.33.13,8.7-.73,12.96l-2.1.28c-1.02-.02-2.03-.05-3.06-.07-7.14-.15-14.26-.29-21.4-.44-.11-4.59-.23-9.19-.33-13.77,8.73.28,17.46.54,26.21.81l1.4.23Z"/><path class="cls-6" d="M234.26,95.96c-.39,37.09-.78,74.16-1.17,111.25-1.64.11-3.28.26-4.93.39.44-14.63.47-29.28.08-43.92-.05-1.45-.1-2.94-.81-4.2-.2-.34-.42-.65-.7-.93-.8-.83-1.87-1.43-2.94-1.9-2.98-1.3-6.24-1.92-9.5-1.87-.47-20.18-.94-40.37-1.4-60.55,7.14.15,14.26.29,21.4.44l-.03,1.28Z"/><path class="cls-6" d="M233.09,207.22c-.15,13.12-.28,26.26-.42,39.38-.08,8.02-.78,17.3-7.33,21.95-2.36,1.67-5.07,2.37-7.84,2.28-.18-3.51-.34-7.04-.52-10.57.76-.1,1.5-.29,2.23-.6,5.25-2.28,6.49-9.02,6.93-14.73.98-12.42,1.64-24.86,2.03-37.32,1.64-.13,3.28-.28,4.93-.39Z"/><path class="cls-5" d="M225.63,207.8c.85-.07,1.69-.13,2.54-.2-.39,12.46-1.06,24.89-2.03,37.32-.44,5.71-1.67,12.46-6.93,14.73-.73.31-1.46.5-2.23.6-.85-17.07-1.67-34.15-2.52-51.22l-.02-.68c3.74-.1,7.46-.28,11.19-.55Z"/><path class="cls-5" d="M225.85,159.48l.88-.91c.28.28.5.59.7.93.72,1.25.76,2.75.81,4.2.39,14.63.36,29.29-.08,43.92-.85.07-1.69.13-2.54.2-3.72.28-7.45.46-11.19.55-3.85.1-7.69.1-11.54-.02-.24-16.83-.49-33.66-.75-50.47l.88-.02c3.66,1.35,7.51,2.16,11.4,2.42,3.82.28,7.67.02,11.43-.8Z"/><path class="cls-5" d="M223.79,156.66c1.07.47,2.15,1.07,2.94,1.9l-.88.91c-3.76.81-7.61,1.07-11.43.8-.05-1.82-.08-3.66-.13-5.48,3.25-.05,6.52.57,9.5,1.87Z"/><path class="cls-6" d="M216.98,260.26c.18,3.53.34,7.06.52,10.57-6.31-.18-12.89-4.36-16.18-10.07-4.73-8.21-4.59-18.26-4.37-27.74.18-8.29.31-16.59.37-24.88,1.85.08,3.71.16,5.58.2.15,10.08.29,20.18.44,30.26.06,5.24.21,10.73,2.75,15.32,2.15,3.89,6.65,6.83,10.89,6.34Z"/><path class="cls-5" d="M214.46,209.04c.85,17.07,1.67,34.15,2.52,51.22-4.24.49-8.75-2.46-10.89-6.34-2.54-4.59-2.68-10.08-2.75-15.32-.15-10.08-.29-20.18-.44-30.26,3.85.11,7.69.11,11.54.02l.02.68Z"/><path class="cls-5" d="M214.29,154.79c.05,1.82.08,3.66.13,5.48-3.89-.26-7.74-1.07-11.4-2.42,3.4-1.97,7.33-3.01,11.27-3.06Z"/><path class="cls-6" d="M202.15,157.87c.26,16.81.5,33.64.75,50.47-1.87-.03-3.72-.11-5.58-.2.34-37.95-.5-75.9-2.55-113.81l.02-.47c6.03.13,12.08.26,18.11.37.46,20.18.93,40.37,1.4,60.55-3.93.05-7.87,1.09-11.27,3.06l-.88.02Z"/><path class="cls-6" d="M212.9,94.24c-6.03-.11-12.08-.24-18.11-.37-1.41-.02-2.85-.05-4.26-.08l-.49-.39c-2.81-3.85-2.55-9.66.6-13.24l.62-.36c7.11.21,14.21.44,21.32.67.1,4.59.21,9.19.33,13.77Z"/><path class="cls-6" d="M115.01,157.8c2.8,5.01,2.68,11.5-.28,16.39l-1.3-.73c-1.45.02-2.91.02-4.36.03-17.28.13-34.57.26-51.85.41-.16-5.25-.29-10.52-.41-15.79,18.88.11,37.76.23,56.63.34l1.56-.65Z"/><path class="cls-6" d="M58.55,205.75c-13.25-.2-26.52.68-39.63,2.63l-.41,1.37c-1.17,16.98-1.32,34.02-.42,51.03.28,5.51.83,11.41,4.34,15.69,4.44,5.41,12.2,6.5,19.19,6.93,13.24.78,26.54.52,39.72-.76,4.55-.46,9.46-1.2,12.63-4.47,3.22-3.33,3.79-8.34,4.11-12.96,1.15-16.73,1.37-33.53.65-50.29-.08-1.64-.23-3.43-1.37-4.6-.99-1.02-2.49-1.3-3.9-1.53-11.54-1.84-23.24-2.86-34.93-3.02ZM57.22,173.9c17.28-.15,34.57-.28,51.85-.41v.98c.93,34.81,1.04,69.66.36,104.49-.05,2.08-.11,4.26-1.14,6.08-1.93,3.45-6.42,4.31-10.36,4.73-24.49,2.73-49.25,3.07-73.81,1.02-4.63-.37-9.74-1.09-12.73-4.65-2.52-3.01-2.81-7.25-2.98-11.19-1.28-33.27-1.14-66.59.46-99.84v-.85c16.11-.13,32.23-.26,48.34-.37Z"/><path class="cls-7" d="M58.55,205.75c11.69.16,23.38,1.19,34.93,3.02,1.41.23,2.91.5,3.9,1.53,1.14,1.17,1.28,2.96,1.37,4.6.72,16.76.5,33.56-.65,50.29-.33,4.62-.89,9.63-4.11,12.96-3.17,3.27-8.08,4.02-12.63,4.47-13.19,1.28-26.49,1.54-39.72.76-6.99-.42-14.75-1.51-19.19-6.93-3.51-4.28-4.07-10.18-4.34-15.69-.89-17.01-.75-34.05.42-51.03l.41-1.37c13.11-1.95,26.37-2.83,39.63-2.63Z"/><path class="cls-6" d="M57.22,173.9c-16.11.11-32.23.24-48.34.37-2.18.02-4.36.03-6.54.05v-.54c-2.07-5.27-2.05-11.3.05-16.57l1.54.57c17.63.1,35.25.21,52.88.33.11,5.27.24,10.54.41,15.79Z"/><path class="cls-2" d="M240.18,81.51l-1.4-.23c-4.6-.15-9.19-.29-13.79-.43,5.54,3.2,4.77,11.94-1.33,13.61,3.54.07,7.08.15,10.63.22,1.02.02,2.03.05,3.06.07l2.1-.28c.86-4.26,1.12-8.63.73-12.96Z"/><path class="cls-2" d="M223.66,94.46c-.65.18-1.35.3-2.12.3-.99,0-1.98,0-2.97,0,.36,20.37,2,40.8,3.38,61.22.62.21,1.24.42,1.84.68,1.07.47,2.15,1.07,2.94,1.9.28.28.5.59.7.93.72,1.25.76,2.75.81,4.2.39,14.63.36,29.29-.08,43.92,1.64-.13,3.28-.28,4.93-.39.39-37.09.78-74.16,1.17-111.25l.03-1.28c-3.55-.07-7.09-.15-10.63-.22Z"/><path class="cls-2" d="M233.09,207.22c-.15,13.12-.28,26.26-.42,39.38-.08,8.02-.78,17.3-7.33,21.95-2.36,1.67-5.07,2.37-7.84,2.28-.18-3.51-.34-7.04-.52-10.57.76-.1,1.5-.29,2.23-.6,5.25-2.28,6.49-9.02,6.93-14.73.98-12.42,1.64-24.86,2.03-37.32,1.64-.13,3.28-.28,4.93-.39Z"/><path class="cls-1" d="M223.93,207.91c-.04,4.27-.13,8.54-.32,12.81-.45,10.05-1.27,21.99-6.79,30.72-.09.14-.18.24-.27.38.14,2.82.28,5.63.42,8.45.76-.1,1.5-.29,2.23-.6,5.25-2.28,6.49-9.02,6.93-14.73.98-12.42,1.64-24.86,2.03-37.32-.85.07-1.69.13-2.54.2-.56.04-1.13.07-1.69.1Z"/><path class="cls-1" d="M227.43,159.49c-.2-.34-.42-.65-.7-.93l-.88.91c-1.2.26-2.42.44-3.63.59,1.04,15.96,1.85,31.91,1.71,47.84.56-.04,1.13-.06,1.69-.1.85-.07,1.69-.13,2.54-.2.44-14.63.47-29.29.08-43.92-.05-1.45-.1-2.94-.81-4.2Z"/><path class="cls-2" d="M209.37,257.77c-3.11,1.08-6.45.8-9.7-.42.47,1.17,1.02,2.31,1.65,3.42,3.28,5.71,9.87,9.89,16.18,10.07-.18-3.51-.34-7.04-.52-10.57-2.65.3-5.4-.73-7.61-2.49Z"/><path class="cls-1" d="M209.37,257.77c2.21,1.76,4.96,2.79,7.61,2.49-.14-2.82-.28-5.63-.42-8.45-2.08,3.13-4.55,5.04-7.2,5.96Z"/><path class="cls-2" d="M115.01,157.8l-1.56.65-19.4-.12c5.17,3,5.52,12.58-1.46,13.67-1.04.16-2.05.38-3.07.62.05.34.1.68.15,1.02,6.47-.05,12.94-.1,19.4-.15,1.45-.02,2.91-.02,4.36-.03l1.3.73c2.96-4.89,3.07-11.38.28-16.39Z"/><path class="cls-2" d="M109.07,174.47v-.98c-6.47.05-12.94.1-19.4.15,1.73,11.66,3.16,23.37,3.82,35.13,1.41.23,2.91.5,3.9,1.53,1.14,1.17,1.28,2.96,1.37,4.6.72,16.76.5,33.56-.65,50.29-.33,4.62-.89,9.63-4.11,12.96-3.17,3.27-8.08,4.02-12.63,4.47-13.19,1.28-26.49,1.54-39.72.76-6.99-.42-14.75-1.51-19.19-6.93-1.65-2.01-2.64-4.4-3.26-6.92-3.73-.82-7.41-1.79-11.03-2.89.09,2.77.17,5.54.28,8.3.16,3.94.46,8.18,2.98,11.19,2.99,3.56,8.1,4.28,12.73,4.65,24.55,2.05,49.32,1.71,73.81-1.02,3.94-.42,8.42-1.28,10.36-4.73,1.02-1.82,1.09-4,1.14-6.08.68-34.83.57-69.68-.36-104.49Z"/><path class="cls-3" d="M98.75,214.91c-.08-1.64-.23-3.43-1.37-4.6-.99-1.02-2.48-1.3-3.9-1.53.05.91.11,1.82.15,2.73.66,14.75,1.04,32.41-6.57,45.66-7.88,13.73-25.46,16.19-39.87,15.85-9.3-.22-18.77-1.42-28.02-3.47.62,2.53,1.6,4.91,3.26,6.92,4.44,5.41,12.2,6.5,19.19,6.93,13.24.78,26.54.52,39.72-.76,4.55-.46,9.46-1.2,12.63-4.47,3.22-3.33,3.79-8.34,4.11-12.96,1.15-16.73,1.37-33.53.65-50.29Z"/><path class="cls-9" d="M1.78,174.69c3.65.12,7.31.04,10.97.02s7.31.1,10.97.12c7.23.04,14.46.06,21.68.04,14.54-.04,29.08-.09,43.62-.15,3.99-.02,7.98-.03,11.96-.05s8.34.18,12.46-.13c1.38-.1,1.39-2.07,0-2.16-3.63-.22-7.33,0-10.97.04s-7.31.08-10.97.12c-7.23.08-14.46.16-21.68.24-14.54.16-29.08.37-43.62.64-3.99.07-7.98.28-11.96.32s-8.32,0-12.46.21c-.47.02-.48.72,0,.74h0Z"/><path class="cls-9" d="M2.86,173.64c-.73-2.73-1.3-5.5-1.24-8.34.02-1.37.17-2.74.45-4.09s.89-2.7,1.05-4.09c.09-.76-.93-.82-1.28-.35-.87,1.16-1.16,2.88-1.42,4.28S0,163.97,0,165.44c0,2.97.51,5.95,1.86,8.61.28.56,1.15.17,1-.42h0Z"/><path class="cls-9" d="M3.93,158.46c7.11.42,14.29.28,21.4.34,7.13.06,14.27.13,21.4.21,14.19.16,28.37.25,42.56.37,8.05.07,16.09.15,24.14.18,1.43,0,1.43-2.21,0-2.23-28.46-.23-56.91-.21-85.37-.3-8.03-.03-16.12-.31-24.14.07-.88.04-.87,1.31,0,1.36h0Z"/><path class="cls-9" d="M114.96,174.6c.2-.25.42-.39.64-.62.25-.25.42-.6.59-.91.36-.67.67-1.39.92-2.11.51-1.48.77-3.04.84-4.61.13-3.14-.6-6.28-2.09-9.05-.59-1.09-2.27-.12-1.67.98,1.34,2.43,1.98,5.17,1.92,7.94-.03,1.36-.24,2.71-.58,4.03-.18.67-.39,1.34-.63,1.99-.12.32-.27.64-.37.97s-.07.58-.21.89c-.17.39.34.91.65.5h0Z"/><path class="cls-9" d="M8.1,175.11c-1.51,22.29-1.71,44.72-1.51,67.06.1,11.06.32,22.13.78,33.18.18,4.26.62,8.9,3.75,12.11,2.85,2.92,7.07,3.81,10.97,4.25,10.76,1.22,21.73,1.46,32.56,1.49,11.01.03,22.02-.42,32.99-1.33,2.78-.23,5.56-.49,8.34-.78,2.17-.23,4.37-.42,6.49-.96,4.01-1.02,7.19-3.46,7.84-7.73.37-2.44.28-4.96.32-7.42.05-2.82.11-5.64.14-8.46.08-5.64.13-11.28.16-16.92.07-11.11.05-22.23-.05-33.34s-.42-22.39-.71-33.59c-.07-2.74-.15-5.47-.23-8.21-.03-1.13-1.78-1.13-1.76,0,.51,21.55.63,43.13.56,64.69-.03,10.78-.16,21.56-.32,32.35-.04,2.63-.07,5.25-.14,7.88-.06,2.26-.22,4.67-1.92,6.35-2.93,2.91-8.04,2.92-11.87,3.32-21.25,2.19-42.68,2.55-63.99,1.14-4.48-.3-9.29-.3-13.6-1.74-1.96-.66-3.82-1.76-5.05-3.46s-1.82-3.93-2.08-6.05c-.63-4.99-.53-10.14-.68-15.16-.16-5.38-.29-10.76-.38-16.14-.36-21.53-.11-43.07.7-64.58.1-2.65.15-5.29.23-7.94.03-1-1.48-.98-1.55,0h0Z"/><path class="cls-9" d="M17.87,209.75c-1.02,10.53-1.33,21.12-1.27,31.7.03,5.29.15,10.57.38,15.86.19,4.39.26,8.92,1.43,13.18,1.04,3.78,3.09,7.1,6.3,9.4s7.06,3.34,10.87,3.91c4.51.68,9.11.81,13.67.95,5.23.16,10.47.16,15.71-.01s10.3-.48,15.43-.96c4.01-.37,8.26-.78,11.81-2.86s5.45-5.67,6.27-9.6c.94-4.56.99-9.36,1.24-14,.56-10.51.7-21.05.49-31.57-.05-2.63-.13-5.26-.23-7.89-.08-2.09.07-4.45-.66-6.44s-2.24-2.97-4.17-3.43c-2.37-.56-4.85-.8-7.26-1.12-20.44-2.75-41.23-2.86-61.7-.41-2.5.3-4.99.64-7.48,1.02-.78.12-.93,1.39-.23,1.72,17.62,8.34,37.55,9.25,56.7,8.42,5.57-.24,11.13-.63,16.68-1.03.93-.07.94-1.53,0-1.46-19.02,1.39-38.58,2.74-57.28-1.95-5.29-1.33-10.27-3.19-15.15-5.6l-.23,1.72c19.38-2.71,38.9-3.29,58.4-1.46,4.99.47,9.96,1.09,14.9,1.87,2.12.33,4.36.59,4.94,3.01.52,2.18.34,4.64.42,6.87.32,9.86.31,19.74-.03,29.6-.17,4.93-.41,9.86-.73,14.79-.26,3.93-.43,8.21-2.53,11.68s-6.01,4.84-9.84,5.49c-4.56.76-9.26.98-13.88,1.25-9.84.57-19.73.57-29.56-.04-7.33-.45-15.96-1.77-19.69-8.98-1.87-3.61-2.25-7.82-2.49-11.81-.29-4.88-.45-9.77-.55-14.66-.2-9.92.05-19.82.41-29.73.09-2.47.13-4.95.22-7.42.03-.84-1.21-.81-1.29,0h0Z"/><path class="cls-9" d="M190.39,94.28c1.81.42,3.76.35,5.61.4,1.99.05,3.98.11,5.98.16,3.9.1,7.8.28,11.71.41,7.88.25,15.77.37,23.66.54,1.34.03,1.34-2.06,0-2.09-7.89-.14-15.77-.35-23.66-.42-3.9-.04-7.8-.01-11.71-.07-1.99-.03-3.98-.06-5.98-.09-1.85-.03-3.79-.17-5.61.17-.5.09-.47.87,0,.98h0Z"/><path class="cls-9" d="M191.14,80.21c1.87.45,3.89.43,5.81.53s3.96.17,5.94.25c4.04.16,8.09.32,12.13.47s7.92.32,11.88.46c1.98.07,3.96.14,5.94.21s4.21.4,6.2.08c.96-.15.9-1.67,0-1.88-1.89-.42-4.02-.23-5.95-.28s-3.96-.1-5.94-.16c-4.04-.11-8.09-.2-12.13-.29-3.96-.09-7.92-.19-11.88-.28-1.98-.05-3.96-.11-5.94-.13s-4.09-.18-6.06.17c-.43.08-.4.74,0,.84h0Z"/><path class="cls-9" d="M190.7,93c-.21-.35-.37-.82-.65-1.38-.25-.49-.45-1.01-.6-1.54-.32-1.08-.45-2.2-.4-3.32.09-2.3.99-4.35,2.37-6.15.63-.82-.72-1.81-1.42-1.09-1.85,1.91-2.77,4.62-2.85,7.25-.04,1.28.12,2.59.49,3.82.2.65.45,1.29.76,1.89.14.28.29.6.49.84.13.16.36.2.48.33-.17-.19.1.24.13.28.58.66,1.63-.19,1.2-.92h0Z"/><path class="cls-9" d="M240.08,94.63c1.23-4.17,1.29-8.82.94-13.12-.09-1.05-1.74-1.06-1.65,0,.19,2.16.23,4.33.11,6.5s-.43,4.3-.66,6.45c-.08.74,1.07.84,1.27.17h0Z"/><path class="cls-9" d="M194.13,94.34c.32,13.25,1.03,26.49,1.44,39.74s.62,26.18.74,39.28.12,26.52-.02,39.78c-.07,6.55-.18,13.09-.33,19.64-.12,5.59-.23,11.2.61,16.75.77,5.13,2.45,10.32,5.74,14.41,2.76,3.42,6.64,6.04,10.87,7.25s8.52.91,12.13-1.38,5.95-6.33,7.06-10.52c1.26-4.78,1.29-9.77,1.34-14.67.07-6.65.12-13.3.18-19.95.11-13.14.22-26.27.34-39.41.24-26.52.54-53.04.86-79.56l.12-9.73c.01-1.22-1.89-1.22-1.9,0-.23,25.69-.51,51.38-.78,77.07-.14,12.89-.31,25.77-.47,38.66-.16,12.46-.07,24.94-.48,37.39-.27,8.24-2.26,19.75-12.44,20.68-4.3.39-8.62-1.29-12-3.88-3.91-2.99-6.28-7.27-7.62-11.95-1.54-5.39-1.72-11.06-1.67-16.63.06-6.15.25-12.3.34-18.44.19-12.84.26-25.69.16-38.54-.2-25.52-.9-51.06-2.32-76.55-.18-3.15-.41-6.29-.67-9.44-.07-.79-1.27-.82-1.25,0h0Z"/><path class="cls-9" d="M202.04,156.44c-.58,18.08.29,36.19.23,54.28-.03,9.05.14,18.09.21,27.14.06,6.97.13,15.29,5.87,20.24,2.25,1.94,5.2,3.3,8.22,3.12s5.37-1.74,7.04-4.04c1.77-2.45,2.56-5.52,3-8.47.57-3.78.72-7.63.98-11.44,1.22-17.98,1.77-35.98,1.71-54-.01-4.54-.07-9.09-.16-13.63-.05-2.2-.07-4.4-.17-6.6-.08-1.68-.34-3.38-1.46-4.71-2.15-2.54-6.24-3.57-9.39-4.01-3.56-.51-7.2-.21-10.63.87-1.67.53-3.27,1.25-4.79,2.12-.5.29-.35.98.15,1.16,7.41,2.64,15.44,3.15,23.14,1.53.69-.14.4-1.19-.29-1.05-7.53,1.58-15.3.97-22.52-1.7l.15,1.16c6.17-3.47,14.16-3.98,20.59-.85,1.9.92,3.19,2.22,3.44,4.39.24,2.04.15,4.15.19,6.2.08,4.13.12,8.26.13,12.39.04,16.69-.47,33.39-1.48,50.04-.25,4.21-.54,8.41-.86,12.61-.23,3.04-.48,6.1-1.39,9.04-.83,2.66-2.31,5.28-4.93,6.51-2.81,1.31-6.01.49-8.47-1.19-6.25-4.27-6.29-12.67-6.43-19.45-.17-8.38-.34-16.76-.51-25.15-.35-16.76-.53-33.54-1.09-50.29-.07-2.08-.19-4.15-.31-6.22,0-.12-.18-.12-.19,0h0Z"/><path class="cls-9" d="M184.79,207.67c.62,1,1.69,1.07,2.77,1.2,1.26.16,2.53.24,3.8.34,2.61.2,5.21.36,7.83.48,5.22.23,10.45.26,15.68.12,10.43-.28,20.79-1.79,31.22-1.35,1.9.08,1.83-2.73,0-2.92-5.16-.52-10.44-.04-15.59.38s-10.25.78-15.39.92-10.29.11-15.43-.08c-2.61-.1-5.22-.24-7.83-.42-1.3-.09-2.6-.23-3.91-.31-1.07-.07-2.23-.22-3.03.62-.25.26-.33.69-.13,1.01h0Z"/><path class="cls-9" d="M194.57,208.72c-.7,2.49-.94,5.16-1.32,7.72s-.76,5.01-1.15,7.52c-.8,5.09-1.63,10.18-2.49,15.26-1.71,10.08-3.57,20.14-5.57,30.17-1.14,5.7-2.33,11.38-3.56,17.06-.4,1.85,2.44,2.64,2.85.79,4.37-20.15,8.17-40.42,11.33-60.79.45-2.91.89-5.82,1.32-8.74s1.01-5.77,1.03-8.64c0-1.4-2.05-1.68-2.43-.33h0Z"/><path class="cls-9" d="M234.82,208.62c1.34,5.15,3.58,10.07,5.45,15.04s3.69,10.03,5.44,15.08c3.44,9.95,6.59,20.01,9.45,30.14,1.65,5.84,3.19,11.7,4.65,17.59.46,1.84,3.3,1.06,2.85-.79-5.12-20.76-11.43-41.23-18.98-61.24-2.1-5.57-4.03-11.43-7.04-16.59-.57-.97-2.09-.33-1.81.76h0Z"/><path class="cls-9" d="M213.44,209.05c-.2,5.15.06,10.3.32,15.45s.5,10.3.76,15.45c.5,10.3,1.01,20.6,1.51,30.89.29,5.81.57,11.63.86,17.44.09,1.89,3.05,1.9,2.95,0-1.02-20.68-2.05-41.36-3.08-62.04-.29-5.83-.53-11.68-1.33-17.46-.16-1.17-1.95-.82-1.99.27h0Z"/><path class="cls-9" d="M59.63,211.93c-.3-13.22-.89-26.43-1.27-39.64-.38-13.22-.59-26.45-.62-39.67-.03-12.25.09-24.61,2.4-36.68,1.12-5.86,2.7-11.78,5.21-17.21,2.26-4.89,5.47-9.53,10.32-12.12s10.33-2.62,14.77.63,7.38,8.44,7.87,13.72c.46,4.91-1.5,9.87-5.7,12.64-3.99,2.62-8.77,2.18-12.52-.65s-6.25-7.36-7.84-11.73c-1.7-4.69-2.8-9.62-3.27-14.59-.94-10.02.53-20.21,4.34-29.53,3.75-9.17,9.87-17.4,17.84-23.32,7.8-5.79,17.13-9.52,26.76-10.76,9.71-1.25,19.87,0,28.75,4.23,8.79,4.18,16.87,11.45,19.43,21.14,2.18,8.22-.42,18.35-7.51,23.48-1.87,1.35-4.41,2.81-6.79,2.57-2.56-.25-4.03-3.51-4.9-5.6-1.88-4.5-2.09-9.57-1.12-14.3,4.18-20.47,28.36-34.02,47.56-24.48,4.44,2.2,8.4,5.46,11.15,9.6,3.11,4.67,4.58,10.2,5.25,15.73.71,5.9.69,11.88.83,17.82.16,6.65.32,13.31.48,19.96.64,26.37,1.31,52.74,1.96,79.11.16,6.41.36,12.81.5,19.22.03,1.49,2.35,1.5,2.32,0-.66-28.45-1.18-56.9-1.81-85.35-.31-13.96-.48-27.93-.94-41.89-.38-11.6-2.14-23.71-11.32-31.8-8.13-7.17-19.41-9.82-29.92-7.37-10.68,2.5-20.4,9.91-25.44,19.68-4.65,9.03-6.06,21.74.92,30.06,3.81,4.54,10.22,1.43,13.92-1.65s6.1-7.34,7.32-11.87c2.72-10.04-.94-20.16-8.04-27.46S142.94,1.87,132.55.49c-20.83-2.77-42.53,6.39-54.83,23.45-6.3,8.74-10.01,19.16-11.2,29.83s.08,21.81,4.53,31.44c2.03,4.39,5.09,8.74,9.4,11.12s9.81,2.21,13.94-.74c4.21-3.02,6.65-7.87,6.65-13.04,0-5.69-2.66-11.27-6.6-15.29s-9.33-5.99-14.97-4.81-10.16,4.94-13.35,9.57c-3.47,5.03-5.51,11.06-7.06,16.93-1.64,6.22-2.59,12.62-3.14,19.02-1.15,13.56-.72,27.28-.5,40.87s.66,28.45,1.34,42.66c.32,6.83.77,13.63,1.38,20.44.08.95,1.52.98,1.5,0h0Z"/></g></g></g></svg>