<?xml version="1.0" encoding="UTF-8"?><svg xmlns="http://www.w3.org/2000/svg" viewBox="0 0 267.19 87.31"><defs><style>.cls-1,.cls-2,.cls-3,.cls-4,.cls-5{mix-blend-mode:multiply;}.cls-1,.cls-2,.cls-3,.cls-5{opacity:.3;}.cls-1,.cls-6{fill:#f6dd35;}.cls-2,.cls-7{fill:#c3bef1;}.cls-3,.cls-8{fill:#db1698;}.cls-9{isolation:isolate;}.cls-4{fill:#c0dffe;opacity:.7;}.cls-5,.cls-10{fill:#e38021;}.cls-11{fill:#271857;}</style></defs><g class="cls-9"><g id="Capa_2"><g id="OBJECTS"><ellipse class="cls-4" cx="211.99" cy="49.82" rx="63.98" ry="11.18" transform="translate(4.5 115.93) rotate(-30.9)"/><path class="cls-8" d="M256.92,16.55c1.72,2.24,2.21,5.41,1.11,8.02-1.26,3.02-4.28,4.88-7.1,6.52-5.48,3.21-10.98,6.42-16.46,9.63l-1.91,1.05c-2.72-4.97-5.45-9.93-8.17-14.9l.98-.54c5.11-3.74,10.45-7.19,15.97-10.3,2.54-1.43,5.25-2.84,8.15-2.92,2.83-.08,5.7,1.19,7.43,3.43Z"/><path class="cls-8" d="M235.36,46.22c-1.11,2.36-3.77,3.92-6.37,3.73l-1.11-.55c-.75-1.3-1.51-2.6-2.28-3.9-2.84-4.84-5.73-9.63-8.7-14.4-.91-1.48-1.82-2.94-2.75-4.41l.46-.64c1.44-1.93,3.83-3.11,6.23-3.11l1.14-.43c.8,1.45,1.6,2.91,2.4,4.36,2.72,4.97,5.45,9.93,8.17,14.9.73,1.31,1.44,2.63,2.17,3.95l.63.5Z"/><path class="cls-7" d="M225.61,45.51l-.94.55c-8.17,4.97-16.33,9.94-24.5,14.9-3.79,2.31-7.72,4.66-12.12,5.19-2.09.25-4.21.07-6.27.41-4.52.72-8.26,3.73-12.37,5.72-1.13.55-2.37,1.04-3.62.88-1.25-.14-2.48-1.14-2.48-2.41.01-1.14.97-2.05,1.86-2.77,2.47-1.95,5.09-3.7,7.86-5.19,2.05-1.12,4.37-2.32,5.08-4.54.37-1.18.21-2.47.64-3.62.6-1.63,2.21-2.63,3.71-3.52,11.46-6.7,22.96-13.37,34.46-20,2.97,4.77,5.86,9.56,8.7,14.4Z"/><path class="cls-3" d="M256.92,16.55c-.35-.45-.75-.85-1.18-1.22-1.02,7.05-9.82,11.85-15.58,14.44-4.37,1.96-8.55,3.25-12.44,3.2,1.61,2.93,3.22,5.87,4.83,8.81l1.91-1.05c5.48-3.21,10.98-6.43,16.46-9.63,2.82-1.65,5.84-3.5,7.1-6.52,1.1-2.61.61-5.78-1.11-8.02Z"/><path class="cls-3" d="M232.56,41.78c-1.61-2.94-3.22-5.87-4.83-8.81-4.74-.06-9.04-2.12-12.67-7.44-.16.17-.31.34-.45.53l-.46.64c.93,1.47,1.85,2.93,2.75,4.41,2.97,4.77,5.86,9.56,8.7,14.4.76,1.3,1.53,2.6,2.28,3.9l1.11.55c2.6.19,5.26-1.37,6.37-3.73l-.63-.5c-.73-1.31-1.44-2.63-2.17-3.95Z"/><path class="cls-2" d="M216.91,31.11c-.58.34-1.16.67-1.75,1.01,1.06,1.85,1.45,4.03.79,6.44-1.3,4.8-6.07,8.15-9.96,10.78-4.32,2.92-9,5.24-13.57,7.73-7.72,4.21-15.02,8.9-23.43,11.65-1.68.55-3.11.3-4.21-.42-.76.66-1.47,1.47-1.48,2.45,0,1.26,1.23,2.26,2.48,2.41,1.25.16,2.49-.33,3.62-.88,4.11-1.99,7.86-5.01,12.37-5.72,2.06-.33,4.18-.16,6.27-.41,4.4-.52,8.33-2.87,12.12-5.19,8.17-4.96,16.33-9.93,24.5-14.9l.94-.55c-2.84-4.84-5.73-9.63-8.7-14.4Z"/><path class="cls-11" d="M213.6,26.85c.71,1.98,2,3.75,3.08,5.54,1.18,1.95,2.36,3.91,3.53,5.87,2.31,3.86,4.58,7.74,6.81,11.64.64,1.12,2.39.1,1.73-1.01-2.28-3.88-4.59-7.74-6.94-11.57-1.16-1.89-2.33-3.76-3.51-5.63s-2.22-3.86-3.75-5.4c-.38-.39-1.16,0-.96.56h0Z"/><path class="cls-11" d="M221.5,22.51c.04,1.04.59,1.93,1.05,2.85s.98,1.89,1.48,2.83c1.08,2.01,2.16,4.02,3.24,6.03,2.16,4.02,4.35,8.03,6.53,12.04.65,1.2,2.49.13,1.83-1.07-2.21-3.99-4.4-7.99-6.63-11.98-1.11-1.99-2.23-3.98-3.34-5.98-.52-.93-1.04-1.86-1.59-2.77s-.98-1.79-1.83-2.38c-.31-.21-.76.07-.75.43h0Z"/><path class="cls-11" d="M215.3,26.45c1.35-1.77,3.59-2.75,5.77-2.69,1.06.03,1.06-1.63,0-1.65-2.8-.05-5.46,1.31-7.13,3.54-.26.34-.06.88.28,1.08.41.24.82.06,1.08-.28h0Z"/><path class="cls-11" d="M228.81,50.61c.09.02.18.03.27.05v-.03c.11.07.24.1.38.1.15.01.31.02.46.01.38,0,.77-.08,1.13-.16.72-.16,1.42-.43,2.06-.8,1.26-.73,2.34-1.83,2.97-3.14.2-.41.11-.91-.3-1.15-.37-.21-.96-.11-1.15.3-.51,1.07-1.26,1.89-2.23,2.48-.52.32-.95.51-1.5.67-.15.04-.3.08-.45.11-.08.02-.15.03-.23.04-.02,0-.19.03-.11.02-.41.06-.7.04-1.11.22l.37-.1c-.12.01-.25.02-.37.03-.34.02-.63.24-.67.59-.04.31.15.68.49.75h0Z"/><path class="cls-11" d="M225.51,26.87c2.1-.85,3.97-2.31,5.85-3.56,2-1.32,4.03-2.6,6.08-3.83s4.19-2.5,6.35-3.6c2.05-1.04,4.32-1.9,6.66-1.7,4.36.37,7.93,4.38,6.98,8.83-.9,4.22-5.57,6.33-8.93,8.31-2.46,1.45-4.92,2.89-7.38,4.34-1.27.74-2.53,1.49-3.8,2.23-1.17.68-2.52,1.26-3.4,2.31-.48.58-.03,1.37.72,1.23,1.35-.25,2.52-1.15,3.69-1.83,1.27-.74,2.54-1.48,3.81-2.21,2.54-1.48,5.07-2.95,7.61-4.43,3.79-2.21,8.49-4.58,9.64-9.22,1.09-4.4-1.34-8.95-5.43-10.75-4.81-2.13-9.52.07-13.74,2.49-2.68,1.54-5.32,3.17-7.9,4.87s-5.43,3.29-7.34,5.59c-.31.37-.03,1.15.54.92h0Z"/><path class="cls-11" d="M216.77,30.33c-4.69,2.22-9.14,5.01-13.63,7.6s-8.87,5.12-13.29,7.69c-2.21,1.29-4.43,2.57-6.64,3.86-1.72,1-3.69,1.96-4.85,3.66s-.58,3.82-1.57,5.52-3.04,2.55-4.68,3.45c-2.03,1.12-3.99,2.38-5.85,3.75-1.48,1.09-3.47,2.3-3.9,4.23-.37,1.7.82,3.25,2.37,3.83,1.9.71,3.87-.11,5.57-.96,3.94-1.98,7.6-4.94,12.09-5.51,2.41-.3,4.84-.09,7.23-.56,2.17-.44,4.25-1.3,6.22-2.3,4.94-2.51,9.61-5.67,14.34-8.54,5-3.04,10.03-6.03,14.99-9.13,1.08-.68.1-2.38-1.01-1.72-8.23,4.86-16.33,9.93-24.5,14.89-3.67,2.23-7.51,4.59-11.86,5.08-2.23.25-4.48.06-6.7.49-1.9.36-3.72,1.14-5.43,2.02s-3.51,2-5.29,2.96c-1.42.77-4.55,2.67-5.82.72-1.08-1.66,2.93-3.88,4.01-4.63,1.7-1.17,3.47-2.23,5.28-3.22,1.46-.79,2.98-1.63,4.07-2.91,1.27-1.5,1.26-3.07,1.61-4.91.4-2.1,2.4-3.08,4.08-4.07,2.06-1.21,4.13-2.42,6.2-3.63,4.56-2.67,9.12-5.34,13.69-7.99s9.56-5.3,14.04-8.38c.79-.55.12-1.7-.75-1.29h0Z"/><ellipse class="cls-4" cx="68.12" cy="52.76" rx="63.98" ry="31.88" transform="translate(-10.67 17.88) rotate(-13.88)"/><path class="cls-7" d="M5.08,47.41c3.6,3.17,8.21,5.29,12.78,6.91,26.24,9.31,56.68,5.83,80.14-9.17,5.66-3.62,11.25-8.36,12.87-14.88.48-1.94.56-3.92.31-5.86,0-.06-.01-.11-.01-.17l.24-.04c1.2,6.97,2.19,13.98,2.97,21.02l.17.11c-5.73,9.37-15.07,16.18-25.24,20.38-10.24,4.23-21.34,6.01-32.39,6.94-18.44,1.55-38.68.26-52.72-11.78l-.67-.88c-.83-5.61-1.6-11.24-2.29-16.88h.07c1.05,1.61,2.32,3.04,3.77,4.29Z"/><path class="cls-10" d="M111.15,24.41h.02c.25,1.94.17,3.92-.31,5.86-1.62,6.52-7.21,11.25-12.87,14.88-23.46,15-53.9,18.48-80.14,9.17-4.57-1.62-9.18-3.74-12.78-6.91-1.36-1.55-2.38-3.41-3.06-5.44,1.39-4.1,4.52-7.39,7.76-10.28,13.64-12.06,31.3-19.5,49.46-20.81,18.17-1.3,36.71,3.53,51.92,13.53ZM89.82,38.94c1.14-3.39-.33-7.26-2.9-9.75-2.56-2.5-6.02-3.85-9.48-4.78-6.14-1.66-12.53-2.18-18.88-2.13-12.13.11-25.21,2.84-33.28,11.9-1.51,1.7-2.86,3.75-2.86,6.02.01,3.66,3.71,6.46,7.35,6.82,3.65.36,7.2-1.07,10.59-2.49,3.39-1.41,6.94-2.85,10.59-2.52,4.49.41,8.28,3.41,12.49,5.05,5.71,2.23,12.39,1.81,17.79-1.06,3.72-1.41,7.35-3.4,8.59-7.06Z"/><path class="cls-7" d="M111.17,24.25c0,.06.01.11.01.17h-.02c-15.21-10-33.76-14.83-51.92-13.53-18.15,1.31-35.82,8.75-49.46,20.81-3.24,2.88-6.37,6.17-7.76,10.28-1.66-4.85-1.36-10.62.94-15.27,4.18-8.44,12.89-13.65,21.59-17.24C42.6,2.04,62.7-.38,82.01,2.56c7.45,1.14,15.02,3.17,20.91,7.86,4.29,3.41,7.51,8.49,8.25,13.83Z"/><path class="cls-6" d="M81.22,46c-5.4,2.87-12.08,3.29-17.79,1.06-4.21-1.65-8-4.65-12.49-5.05-3.65-.33-7.2,1.11-10.59,2.52-3.39,1.42-6.94,2.85-10.59,2.49-3.65-.36-7.34-3.16-7.35-6.82,0-2.26,1.35-4.32,2.86-6.02,8.07-9.06,21.15-11.79,33.28-11.9,6.35-.05,12.74.48,18.88,2.13,3.46.93,6.91,2.28,9.48,4.78,2.56,2.49,4.04,6.37,2.9,9.75-1.24,3.66-4.88,5.65-8.59,7.06ZM73.03,43.69c2.21.04,4.46-.14,6.44-1.12,2.25-1.11,4.04-3.49,3.72-5.98-.2-1.55-1.18-2.91-2.31-3.98-2.98-2.79-7.1-3.98-11.16-4.64-.27-.04-.54-.08-.81-.12-9.44-1.36-19.17-.64-28.31,2.06-3.3.98-6.7,2.34-8.81,5.07-.77.99-1.34,2.4-.67,3.46.77,1.23,2.57,1.13,3.99.79,6.23-1.48,12.52-4.57,18.76-3.09,4.16.98,7.58,3.85,11.47,5.63,1.94.87,3.99,1.47,6.1,1.76.52.08,1.05.14,1.59.17Z"/><path class="cls-8" d="M73.03,43.69c-.54-.02-1.06-.08-1.59-.17l.39-3.06c.7.1,1.42.05,2.1-.13.81-.23,1.6-.66,2.12-1.32,1.05-1.36.74-3.43-.33-4.77-1.08-1.35-2.74-2.07-4.4-2.54-.52-.14-1.12-.24-1.7-.25l.1-3.48c4.05.66,8.18,1.85,11.16,4.64,1.13,1.07,2.11,2.43,2.31,3.98.32,2.49-1.47,4.88-3.72,5.98-1.98.98-4.23,1.16-6.44,1.12Z"/><path class="cls-6" d="M67.8,31.79c.52-.25,1.17-.36,1.82-.35.58.01,1.18.11,1.7.25,1.66.46,3.31,1.19,4.4,2.54,1.07,1.33,1.38,3.41.33,4.77-.52.67-1.31,1.1-2.12,1.32-.68.18-1.39.23-2.1.13-1.64-.2-3.22-1.12-4.11-2.53-1.17-1.82-1.12-4.34.07-6.14Z"/><path class="cls-8" d="M68.91,27.85c.27.04.54.08.81.12l-.1,3.48c-.66-.01-1.3.1-1.82.35-1.19,1.8-1.24,4.32-.07,6.14.89,1.41,2.47,2.32,4.11,2.53l-.39,3.06c-2.11-.3-4.16-.89-6.1-1.76-3.89-1.78-7.31-4.65-11.47-5.63-6.25-1.48-12.53,1.61-18.76,3.09-1.42.35-3.22.44-3.99-.79-.67-1.06-.11-2.47.67-3.46,2.11-2.73,5.51-4.09,8.81-5.07,9.14-2.71,18.87-3.42,28.31-2.06Z"/><path class="cls-2" d="M5.08,47.41c3.6,3.17,8.21,5.29,12.78,6.91,26.24,9.31,56.68,5.83,80.14-9.17,5.66-3.62,11.25-8.36,12.87-14.88.48-1.94.56-3.92.31-5.86,0-.06-.01-.11-.01-.17l.24-.04c1.2,6.97,2.19,13.98,2.97,21.02l.17.11c-5.73,9.37-15.07,16.18-25.24,20.38-10.24,4.23-21.34,6.01-32.39,6.94-18.44,1.55-38.68.26-52.72-11.78l-.67-.88c-.83-5.61-1.6-11.24-2.29-16.88h.07c1.05,1.61,2.32,3.04,3.77,4.29Z"/><path class="cls-5" d="M111.18,24.41h-.02c-6.51-4.28-13.62-7.6-21.06-9.91,1.96,3.81,2.32,8.21.26,12.43-.63,1.29-1.41,2.47-2.31,3.56,1.83,2.43,2.74,5.61,1.78,8.46-1.24,3.66-4.88,5.65-8.59,7.06-5.4,2.87-12.08,3.29-17.79,1.06-3.17-1.24-6.11-3.25-9.29-4.34-2.99.14-6,.14-9,.02-1.63.49-3.23,1.14-4.79,1.78-3.39,1.42-6.94,2.85-10.59,2.49-3.65-.36-7.34-3.16-7.35-6.82,0-.08.01-.15.02-.23-5.82-1.07-11.6-2.31-17.28-3.53-1.34,1.68-2.45,3.51-3.14,5.54.68,2.03,1.7,3.89,3.06,5.44,3.6,3.17,8.21,5.29,12.78,6.91,26.24,9.31,56.68,5.83,80.14-9.17,5.66-3.62,11.25-8.36,12.87-14.88.48-1.94.56-3.92.31-5.86Z"/><path class="cls-2" d="M.98,35.55c0,2.2.34,4.39,1.03,6.42.69-2.03,1.8-3.86,3.14-5.54-1.4-.3-2.79-.59-4.17-.88Z"/><path class="cls-2" d="M111.17,24.25c-.74-5.34-3.96-10.42-8.25-13.83-5.89-4.68-13.46-6.71-20.91-7.86-3.31-.51-6.65-.84-10-1.03,5.29,1.67,10.15,4.24,14.17,7.9,1.63,1.48,2.96,3.21,3.92,5.07,7.44,2.31,14.55,5.63,21.06,9.91h.02c0-.06-.01-.11-.01-.17Z"/><path class="cls-1" d="M22.44,39.96c0,.08-.02.15-.02.23.01,3.66,3.71,6.46,7.35,6.82,3.65.36,7.2-1.07,10.59-2.49,1.56-.65,3.16-1.3,4.79-1.78-7.58-.32-15.18-1.39-22.71-2.77Z"/><path class="cls-1" d="M82.74,35.1c.22.47.38.97.45,1.49.32,2.49-1.47,4.88-3.72,5.98-1.98.98-4.23,1.16-6.44,1.12-.54-.02-1.06-.08-1.59-.17-2.11-.3-4.16-.89-6.1-1.76-.17-.08-.34-.17-.51-.25-3.54.65-7.11,1.04-10.69,1.22,3.18,1.09,6.11,3.1,9.29,4.34,5.71,2.23,12.39,1.81,17.79-1.06,3.72-1.41,7.35-3.4,8.59-7.06.96-2.85.06-6.03-1.78-8.46-1.49,1.79-3.31,3.32-5.3,4.61Z"/><path class="cls-3" d="M82.74,35.1c-1.97,1.28-4.11,2.33-6.29,3.19-.1.25-.22.49-.39.71-.52.67-1.31,1.1-2.12,1.32-.68.18-1.39.23-2.1.13l-.39,3.06c.52.08,1.05.14,1.59.17,2.21.04,4.46-.14,6.44-1.12,2.25-1.11,4.04-3.49,3.72-5.98-.07-.52-.23-1.02-.45-1.49Z"/><path class="cls-1" d="M72.44,39.68c-.59.18-1.18.34-1.77.5.38.13.77.22,1.17.27.7.1,1.42.05,2.1-.13.81-.23,1.6-.66,2.12-1.32.17-.22.29-.46.39-.71-1.34.53-2.69,1-4.01,1.4Z"/><path class="cls-3" d="M64.84,41.51c.17.08.33.17.51.25,1.94.87,3.99,1.47,6.1,1.76l.39-3.06c-.4-.05-.79-.14-1.17-.27-1.94.53-3.88.96-5.83,1.32Z"/><path class="cls-11" d="M10.12,50.54c-6.67-3.3-9.19-11.15-7.92-18.16,1.52-8.42,8.38-14.42,15.53-18.37,8.48-4.69,18.08-7.62,27.57-9.44,9.98-1.91,20.29-2.35,30.41-1.42,9.2.84,19.59,2.52,26.87,8.71,3.34,2.84,5.91,6.64,6.97,10.92s.22,8.42-2.09,12.05-6.04,6.65-9.74,9.06-7.86,4.65-12.02,6.5c-8.38,3.73-17.4,6.17-26.51,7.24s-18.37.83-27.38-.81c-4.49-.82-8.93-1.96-13.25-3.44s-8.52-3.14-12-5.85c-1.77-1.37-3.38-2.92-4.7-4.73-.46-.63-1.5-.07-1.07.63,4.96,8.19,14.83,11.75,23.61,14.14,9.41,2.57,19.35,3.49,29.08,2.95,9.84-.54,19.61-2.58,28.81-6.1,4.55-1.74,8.97-3.83,13.19-6.28,4.07-2.36,8.12-5,11.39-8.42s5.43-7.42,5.75-12.06-1.26-9.13-3.81-12.84c-5.75-8.37-15.79-11.81-25.4-13.39-21.1-3.48-43.66-.6-63.02,8.6C12.43,13.81,4.35,19.56,1.2,28.16-1.26,34.89.03,43.67,5.42,48.68c1.28,1.19,2.74,2.03,4.37,2.63.45.16.75-.56.33-.77h0Z"/><path class="cls-11" d="M.22,35.72c-.42,1.82-.02,3.91.13,5.76.18,2.14.42,4.28.64,6.42.44,4.13.99,8.25,1.6,12.36.18,1.21,2.02.7,1.84-.51-.61-4.1-1.22-8.21-1.84-12.31-.31-2.05-.59-4.1-.91-6.14-.28-1.82-.36-3.94-1.16-5.62-.06-.13-.28-.1-.31.04H.22Z"/><path class="cls-11" d="M110.05,18.25c0,2.14.39,4.32.69,6.43.32,2.25.64,4.51.96,6.77.66,4.58,1.24,9.18,1.75,13.78.13,1.16,1.96,1.17,1.83,0-.51-4.52-1.11-9.02-1.8-13.51-.35-2.24-.74-4.48-1.17-6.71s-.84-4.67-1.69-6.83c-.11-.29-.56-.27-.56.08h0Z"/><path class="cls-11" d="M3.73,61.34c5.33,5.33,12.55,8.51,19.76,10.42s15.4,2.64,23.17,2.55c8.51-.09,17.11-.89,25.49-2.44,8.53-1.58,16.96-4.16,24.56-8.41s14.73-10.17,18.92-17.83c.67-1.22-1.08-2.22-1.85-1.08-4.31,6.34-9.67,11.62-16.22,15.63-7.09,4.34-15,7.07-23.1,8.81s-16.64,2.65-25.02,2.96c-7.53.28-15.15-.02-22.54-1.58-8.22-1.72-15.57-5.18-22.37-10.07-.62-.44-1.31.52-.8,1.03h0Z"/><path class="cls-11" d="M2.33,42.17c1.53-3.67,4.19-6.71,7.1-9.35s5.99-5.02,9.23-7.18c6.47-4.32,13.55-7.8,20.97-10.15,15.01-4.76,31.18-5.12,46.41-1.15,8.74,2.27,17.08,5.96,24.66,10.86.98.63,1.88-.92.91-1.56-13.79-9.09-30.27-13.99-46.8-13.84-15.94.14-31.86,5.04-45.24,13.7-3.71,2.4-7.25,5.1-10.53,8.07s-6.23,6.17-7.42,10.42c-.13.46.53.61.7.19h0Z"/><path class="cls-11" d="M82.07,44.77c-4.79,1.99-10.01,3.07-15.15,1.92-5-1.11-9-4.68-13.99-5.8-5.81-1.3-10.89,1.65-16.16,3.56-2.51.91-5.34,1.69-8,1.01-2.04-.52-4.11-1.91-4.84-3.96-.88-2.5.83-4.99,2.44-6.76s3.35-3.24,5.3-4.52c3.97-2.62,8.46-4.28,13.09-5.33s9.49-1.45,14.28-1.47c6.09-.02,12.21.49,18.1,2.09,5.21,1.41,11.65,4.46,12.09,10.65.4,5.62-6.05,8.53-10.41,10.12-.63.23-.38,1.21.28,1.02,4.51-1.33,9.67-2.95,11.51-7.77,2-5.23-1.31-10.61-5.7-13.32-5.18-3.19-11.81-4.18-17.77-4.73-5.94-.55-11.99-.47-17.91.32-5.3.71-10.54,2.05-15.35,4.45-4.46,2.23-9.41,5.73-11.74,10.28-2.56,5,.68,10.04,5.75,11.49,6.32,1.81,12.21-2.41,18.05-4.04,3.49-.97,6.66-.58,9.91.96,2.91,1.37,5.67,3.07,8.77,3.98,6.04,1.79,13.13,1.01,18.12-3.02.51-.41-.04-1.39-.66-1.14h0Z"/><path class="cls-11" d="M77.9,43.34c-4.04.29-8.49-.57-12.17-2.24-3.27-1.49-6.15-3.7-9.5-5.03-3.57-1.42-7.35-1.28-11.05-.46-2.04.45-4.04,1.08-6.04,1.68-1.77.53-3.76,1.36-5.63,1.37-.84,0-1.83-.22-1.9-1.25s.82-2.05,1.49-2.73c1.27-1.29,2.87-2.2,4.53-2.89,3.68-1.53,7.72-2.39,11.64-3.01,7.87-1.24,16.6-1.36,24.3.91,1.97.58,3.88,1.4,5.53,2.65s3.31,2.97,3.15,5.13c-.36,4.93-6.35,5.6-10.14,5.58-.81,0-.79,1.19,0,1.24,3.89.25,8.28-.1,10.79-3.5s.8-7.25-2.26-9.61c-3.24-2.51-7.33-3.54-11.32-4.1-4.78-.67-9.63-.88-14.45-.54s-9.62,1.18-14.26,2.55c-3.57,1.05-7.58,2.56-9.74,5.8-.91,1.37-1.31,3.35.07,4.56,1.14,1.01,2.83.87,4.22.57,4.78-1.01,9.31-3.2,14.24-3.47,2.72-.15,5.28.41,7.73,1.6,2.18,1.06,4.2,2.41,6.34,3.53,2.26,1.19,4.65,2.08,7.18,2.43s4.84.11,7.3-.37c.22-.04.17-.41-.05-.39h0Z"/><path class="cls-11" d="M67.93,31.06c-1.92,1.62-2.15,4.53-1.12,6.7s3.5,3.57,5.9,3.53c1.29-.02,2.61-.45,3.57-1.33s1.36-2.21,1.21-3.48c-.32-2.78-2.66-4.52-5.16-5.33-2-.65-5.69-1.01-6.31,1.73-.2.9,1.04,1.21,1.36.37.55-1.42,2.77-1.07,3.88-.73,1.8.55,3.87,1.49,4.48,3.44.26.83.25,1.8-.29,2.53s-1.53,1.12-2.41,1.22c-1.77.2-3.7-.63-4.68-2.14-1.2-1.85-.93-4.25.09-6.11.19-.34-.24-.63-.52-.4h0Z"/></g></g></g></svg>