<?xml version="1.0" encoding="UTF-8"?>
<svg xmlns="http://www.w3.org/2000/svg" viewBox="0 0 314.48 141.71">
  <defs>
    <style>
      .cls-1, .cls-2, .cls-3, .cls-4, .cls-5 {
        mix-blend-mode: multiply;
      }

      .cls-1, .cls-2, .cls-3, .cls-5 {
        opacity: .3;
      }

      .cls-1, .cls-6 {
        fill: #c3bef1;
      }

      .cls-2, .cls-7 {
        fill: #7caffb;
      }

      .cls-3, .cls-8 {
        fill: #db1698;
      }

      .cls-9, .cls-4 {
        fill: #c0dffe;
      }

      .cls-10 {
        isolation: isolate;
      }

      .cls-4 {
        opacity: .7;
      }

      .cls-11, .cls-5 {
        fill: #4723b4;
      }

      .cls-12 {
        fill: #271857;
      }
    </style>
  </defs>
  <g class="cls-10">
    <g id="Capa_2">
      <g id="OBJECTS">
        <g>
          <path class="cls-11" d="M313.71,125.8c.06,4.38.11,8.74.17,13.12l-1.79.09c-56.57,2.25-113.21,2.03-169.83,1.81-13.31-.05-26.63-.1-39.95-.17-33.6-.12-67.21-.26-100.81-.39v-.59c-.79-4.93-1.05-9.94-.75-14.91h.38c104.2.34,208.38.68,312.58,1.04Z"/>
          <path class="cls-5" d="M270.21,132.44c-21.87,1.48-43.67.66-65.58.29-24.27-.41-48.55-.71-72.83-.74-23.74-.03-47.36.28-71.05,1.74-19.99,1.24-39.97,2.27-59.89.36.15,1.86.34,3.72.64,5.57v.59c33.6.14,67.2.27,100.81.39,13.32.06,26.64.11,39.95.17,56.62.22,113.25.44,169.83-1.81l1.79-.09-.11-8.3c-14.51-.68-29.33.84-43.56,1.81Z"/>
          <path class="cls-12" d="M1.34,140.52c20.24.31,40.46.66,60.71.73s40.37.15,60.55.23c40.44.16,80.89.43,121.33-.04,22.73-.26,45.45-.78,68.16-1.7.94-.04.94-1.5,0-1.46-40.47,1.56-80.97,1.92-121.47,1.91-40.38-.01-80.76-.25-121.14-.42-11.36-.05-22.71-.1-34.07-.11s-22.71.25-34.07.33c-.34,0-.34.52,0,.53h0Z"/>
          <path class="cls-12" d="M1.12,125.17c10.28.38,20.6.29,30.89.34s20.54.11,30.81.14c20.27.08,40.55.15,60.82.22,40.51.14,81.03.29,121.54.43,22.84.08,45.69.16,68.53.24.94,0,.94-1.46,0-1.46-40.84-.13-81.68-.26-122.52-.39s-81.03-.26-121.54-.38c-11.41-.03-22.81-.06-34.22-.08-11.43-.02-22.89-.22-34.32.13-.52.02-.52.79,0,.81h0Z"/>
          <path class="cls-12" d="M.6,124.63c-.06.26-.25.54-.32.81-.06.24-.13.46-.16.71-.08.68-.1,1.38-.11,2.06-.02,1.28,0,2.56.06,3.83.12,2.59.3,5.25.83,7.8.14.68,1.31.54,1.23-.17-.29-2.55-.66-5.06-.8-7.63-.07-1.28-.1-2.56-.09-3.83,0-.59,0-1.18-.01-1.77,0-.24-.02-.48-.05-.73-.04-.3-.25-.76-.28-1.04-.02-.16-.26-.22-.3-.04h0Z"/>
          <path class="cls-12" d="M314.45,138.92c.05-2.22,0-4.45-.02-6.67s0-4.45-.08-6.67c-.03-.84-1.3-.85-1.31,0-.03,2.22.06,4.45.1,6.67s.04,4.45.16,6.67c.04.74,1.13.75,1.15,0h0Z"/>
        </g>
        <g>
          <path class="cls-7" d="M228.78,120.43c-10.31.37-20.77-5.15-26.95-13.6-7.43-10.15-9.21-23.67-6.86-36.02,1.13-5.97,3.31-11.97,7.64-16.23,4.33-4.26,11.2-6.33,16.69-3.74,6.94,3.27,9.64,12.48,16.72,15.44,9.04,3.77,19.65-4.79,28.83-1.36,6.97,2.6,9.88,11.07,9.7,18.51-.25,11.28-5.75,22.32-14.59,29.34-8.65,6.85-20.33,9.72-31.18,7.66Z"/>
          <path class="cls-6" d="M252.77,2.27c1.63,1.92.61,5.09-1.42,6.57-1.22.88-2.66,1.32-4.15,1.57-1.01.17-2.03.24-3.04.32-9.62.61-19.27.82-28.9.94-1.46.02-2.9.03-4.36.05v-.67c-.68-2.07-1-4.24-.96-6.41,0-.53.04-1.1.39-1.51.39-.47,1.06-.57,1.65-.65,11.77-1.46,23.62-2.09,35.48-1.86,1.92.03,4.07.2,5.32,1.65Z"/>
          <path class="cls-6" d="M247.22,10.6c-.91,8.41-.5,16.95,1.23,25.22,15.08,4.43,27,17.57,30.96,32.78,3.96,15.2.24,31.99-8.92,44.77-3.89,5.41-8.89,10.27-15.12,12.66-4.12,1.58-8.6,2-13,2.3-15,1.06-31.29.65-43.29-8.41-9.06-6.86-14.3-17.92-15.93-29.18-1.63-11.34.18-23.26,5.64-33.34,5.47-10.08,14.65-18.21,25.52-21.88.32-7.62.65-15.25.97-22.87l-.02-.98c9.63-.12,19.29-.33,28.9-.94,1.01-.07,2.03-.14,3.04-.32l.02.19ZM274.56,83.43c.18-7.44-2.73-15.91-9.7-18.51-9.18-3.43-19.79,5.13-28.83,1.36-7.08-2.95-9.77-12.16-16.72-15.44-5.49-2.6-12.36-.53-16.69,3.74-4.33,4.25-6.51,10.26-7.64,16.23-2.35,12.35-.57,25.88,6.86,36.02,6.18,8.45,16.64,13.97,26.95,13.6,10.85,2.06,22.53-.81,31.18-7.66,8.84-7.02,14.34-18.06,14.59-29.34Z"/>
          <path class="cls-2" d="M266.02,65.43c4.6,13.09-1.18,26.98-11.18,36.11-14.06,12.84-33.84,13.66-51.28,7.44,6.29,7.22,15.81,11.8,25.22,11.46,10.85,2.06,22.53-.81,31.18-7.66,8.84-7.02,14.34-18.06,14.59-29.34.17-7.01-2.41-14.93-8.54-18Z"/>
          <path class="cls-1" d="M239.43,9.45c-.47.45-.89.99-1.26,1.6,2-.09,3.99-.19,5.99-.32,1.01-.07,2.03-.14,3.04-.32,1.49-.25,2.93-.69,4.15-1.57,2.03-1.48,3.05-4.65,1.42-6.57-1.25-1.45-3.4-1.61-5.32-1.65-2.61-.05-5.22-.05-7.82-.02,3.03,2.27,2.21,6.55-.2,8.85Z"/>
          <path class="cls-1" d="M279.41,68.6c-3.96-15.2-15.87-28.34-30.96-32.78-1.73-8.27-2.14-16.82-1.23-25.22l-.02-.19c-1.01.17-2.03.24-3.04.32-1.99.13-3.99.23-5.99.32-2.58,4.23-2.96,11.84-3.35,15.97-.53,5.63-1.16,11.6,3.64,15.45,9.22,7.39,21.11,8.6,26.56,20.49.38.82.71,1.65,1,2.48,6.13,3.07,8.71,10.99,8.54,18-.25,11.28-5.75,22.32-14.59,29.34-8.65,6.85-20.33,9.72-31.18,7.66-9.41.34-18.93-4.24-25.22-11.46-6.68-2.39-13-5.81-18.54-9.99,2.58,8.22,7.24,15.77,14.06,20.93,11.99,9.06,28.29,9.47,43.29,8.41,4.4-.31,8.88-.73,13-2.3,6.23-2.39,11.23-7.24,15.12-12.66,9.16-12.78,12.88-29.56,8.92-44.77Z"/>
          <path class="cls-12" d="M210.69,12.04c3.9.31,7.91.08,11.82.02s7.55-.14,11.32-.27,7.7-.23,11.52-.56c2.63-.23,5.59-.75,7.38-2.88,1.42-1.69,2.05-4.35.65-6.24C251.73-.15,248.46.04,245.97.01c-7.74-.08-15.47.16-23.19.77-2.13.17-4.26.37-6.39.59-1.15.12-2.29.25-3.43.39-.72.09-1.54.11-2.22.38-1.28.51-1.42,1.74-1.41,2.96.02,2.05.32,4.17,1.07,6.08.23.59,1.11.38.97-.27-.36-1.62-.73-3.22-.82-4.88-.03-.62-.14-1.35.02-1.96.32-1.18,1.9-1.06,2.88-1.18,3.27-.39,6.55-.71,9.83-.97,6.4-.51,12.82-.77,19.24-.78,1.65,0,3.29,0,4.94.05,1.31.04,2.75.07,3.93.72,2.75,1.52,1.51,5.21-.65,6.63-2.4,1.57-5.54,1.52-8.29,1.7-3.19.21-6.39.36-9.59.49-3.61.14-7.22.24-10.83.32s-7.59-.05-11.33.33c-.42.04-.43.63,0,.66h0Z"/>
          <path class="cls-12" d="M214.89,12.64c-.64,7.6-.87,15.26-1.2,22.88l.45-.59c-17.78,6.06-29.6,22.69-31.81,41.03-2.15,17.96,4.44,38.51,21.12,47.51,8.08,4.37,17.41,5.72,26.49,5.89,4.75.09,9.52-.14,14.25-.53,4.98-.41,9.95-1.2,14.41-3.58,8.06-4.32,13.93-12.45,17.72-20.59s5.85-17.88,5.2-27.2c-1.19-17.01-11.66-32.99-27.3-40.12-1.82-.83-3.69-1.53-5.6-2.09l.42.42c-1.72-8.22-2.2-16.72-1.34-25.07.06-.6-.87-.59-.94,0-.93,8.5-.58,17,1.12,25.38.04.2.23.36.42.42,15.72,4.73,27.65,18.62,31,34.56,1.86,8.84,1.14,18.13-1.62,26.7s-7.55,16.79-14.33,22.7c-3.55,3.1-7.69,5.24-12.3,6.24s-9.58,1.2-14.36,1.39c-8.79.33-17.83-.05-26.23-2.88s-15.56-8.41-20.22-16.08c-4.64-7.62-6.87-16.58-7.02-25.46-.3-18.33,8.85-36.31,25.37-44.95,1.89-.99,3.86-1.82,5.88-2.52.27-.09.44-.31.45-.59.32-7.62.73-15.26.73-22.88,0-.49-.71-.48-.75,0h0Z"/>
          <path class="cls-12" d="M234.85,119.18c-7.81,1.86-16.19-.01-22.96-4.18-7.22-4.45-12.31-11.45-14.9-19.49s-2.84-17.39-.98-25.89,6.27-16.98,15.26-18.85c4.02-.84,7.91.26,10.96,2.98,2.66,2.37,4.62,5.39,6.93,8.08s4.82,4.82,8.15,5.72c3.54.96,7.25.36,10.76-.45,3.83-.88,7.66-2.17,11.62-2.22s7.38,1.39,9.85,4.38c4.97,6.01,4.93,14.94,3.15,22.13-2.06,8.32-6.93,15.99-13.77,21.19s-15.48,7.98-24.06,7.85c-2.23-.03-4.46-.21-6.66-.59-.6-.1-.88.79-.26.94,8.84,2.08,18.27.72,26.33-3.41s14.25-11.05,17.78-19.23c3.24-7.5,4.63-16.57,1.73-24.41-1.25-3.39-3.34-6.55-6.47-8.47-3.39-2.09-7.39-2.22-11.22-1.6-4.22.68-8.28,2.2-12.54,2.68s-7.92-.43-11.04-3.25c-5.55-5.03-8.73-13.23-17.1-14.1-8.95-.93-15.91,6.09-19.01,13.78-3.41,8.45-4.03,18.36-2.44,27.28s5.66,17.09,12.43,22.91c6.21,5.34,14.47,8.69,22.74,7.98,1.99-.17,3.95-.56,5.85-1.16.38-.12.22-.69-.16-.6h0Z"/>
        </g>
        <g>
          <path class="cls-8" d="M117.55,119.16c-2.81,3.71-6.76,7.7-11.32,6.81-4.06-.78-6.45-5.38-6.19-9.49s2.45-7.83,4.65-11.32c6.44-10.24,13.37-20.16,20.73-29.76l.3-.4c1.14.86,2.3,1.74,3.44,2.6,2.57,1.96,5.16,3.92,7.74,5.87l1.17,2.16c-5.68,11.83-12.57,23.08-20.52,33.53Z"/>
          <path class="cls-7" d="M142.51,65.8l.12-.17c10.32,6.88,25.41,5.43,34.24-3.3s10.47-23.77,3.72-34.19c-6.74-10.42-21.16-15.09-32.72-10.6-9.64,3.75-16.69,13.37-17.38,23.68-.64,9.52,4.17,19.19,12.02,24.58ZM184.51,60.86c-8.77,13.34-27.49,18.9-42.23,12.95-.52-.21-1.03-.43-1.54-.68-1.99-1.37-3.91-2.85-5.72-4.45-3.14-2.77-5.94-5.9-8.11-9.48-7.88-12.96-5.59-31.24,5.26-41.86,11.94-11.68,32.85-12.46,45.67-1.77,12.83,10.68,15.83,31.34,6.67,45.28Z"/>
          <path class="cls-9" d="M176.87,62.33c-8.83,8.72-23.92,10.17-34.24,3.3l-.12.17c-7.85-5.39-12.66-15.06-12.02-24.58.69-10.32,7.74-19.93,17.38-23.68,11.57-4.48,25.98.18,32.72,10.6,6.75,10.42,5.11,25.47-3.72,34.19Z"/>
          <path class="cls-7" d="M136.7,83.1l.2.37c-2.58-1.95-5.17-3.91-7.74-5.87l.18-.23c1.55-2.5,3.11-5.01,4.67-7.52l1.01-1.16c1.81,1.6,3.73,3.08,5.72,4.45.51.24,1.02.47,1.54.68l-.27.62c-1.22,3.18-3.04,6.14-5.32,8.66Z"/>
          <path class="cls-3" d="M117.55,119.16c-2.81,3.71-6.76,7.7-11.32,6.81-4.06-.78-6.45-5.38-6.19-9.49s2.45-7.83,4.65-11.32c6.44-10.24,13.37-20.16,20.73-29.76l.3-.4c1.14.86,2.3,1.74,3.44,2.6,2.57,1.96,5.16,3.92,7.74,5.87l1.17,2.16c-5.68,11.83-12.57,23.08-20.52,33.53Z"/>
          <path class="cls-2" d="M184.51,60.86c6.05-9.21,6.79-21.34,2.91-31.59-.59,2.9-1.71,5.52-3.24,7.87,1.78,8.91-.81,18.77-7.31,25.19-8.83,8.72-23.92,10.17-34.24,3.3l-.12.17c-6.72-4.62-11.2-12.37-11.95-20.49-3.17-2.41-5.84-5.4-7.88-8.88-1.2,7.81.12,16.02,4.23,22.78,2.17,3.58,4.97,6.71,8.11,9.48,1.81,1.6,3.73,3.08,5.72,4.45.51.24,1.02.47,1.54.68,14.74,5.95,33.46.38,42.23-12.95Z"/>
          <path class="cls-4" d="M176.87,62.33c6.5-6.42,9.09-16.28,7.31-25.19-6.63,10.19-20.88,15.16-32.52,15.02-8.23-.09-15.47-2.56-21.1-6.85.75,8.11,5.23,15.87,11.95,20.49l.12-.17c10.32,6.88,25.41,5.43,34.24-3.3Z"/>
          <path class="cls-2" d="M136.7,83.1l.2.37c-2.58-1.95-5.17-3.91-7.74-5.87l.18-.23c1.55-2.5,3.11-5.01,4.67-7.52l1.01-1.16c1.81,1.6,3.73,3.08,5.72,4.45.51.24,1.02.47,1.54.68l-.27.62c-1.22,3.18-3.04,6.14-5.32,8.66Z"/>
          <path class="cls-12" d="M144.75,66.64c-4.75-3.41-8.72-7.34-11.16-12.74s-3.06-11.18-1.71-16.78c2.61-10.86,12.11-19.65,23.39-20.44,10.61-.75,21.56,4.9,26.21,14.63s2.69,22.48-4.92,30.23c-8.68,8.83-23.23,9.98-33.58,3.5-.77-.48-1.44.7-.71,1.21,9.59,6.56,23.4,5.81,32.59-1.14,9.22-6.98,12.76-19.85,9.42-30.78s-13.86-18.41-25.21-19.18-22.77,6.53-27.3,17.43c-2.63,6.32-2.75,13.41-.41,19.84s6.77,12.39,12.88,15.09c.58.26,1.02-.48.5-.86h0Z"/>
          <path class="cls-12" d="M141.79,73.16c-6.18-5.08-12.37-10.06-15.8-17.51-2.89-6.28-3.58-13.54-2.3-20.3s4.52-13.16,9.57-17.89,11.4-7.4,18.06-8.28,13.77.09,19.88,3.08,10.85,7.83,13.92,13.81c6.09,11.87,5.19,27.4-3.73,37.63s-23.39,14.12-36.03,10.43c-1.63-.47-3.2-1.08-4.73-1.81-.82-.39-1.54.83-.72,1.23,12.59,6.13,28.3,3.69,38.96-5.21s14.3-24.82,9.73-38.18c-2.27-6.63-6.41-12.56-12.13-16.65s-12.85-6.17-19.89-6.27-14.3,1.81-20.25,5.73-10.42,9.88-12.82,16.64-2.81,14.52-.93,21.57c2.09,7.84,7.11,14.29,13.31,19.38,1.64,1.34,3.34,2.51,5.19,3.55.57.32,1.26-.49.72-.93h0Z"/>
          <path class="cls-12" d="M124.89,74.91c2.1,1.79,4.3,3.46,6.49,5.14s4.4,3.5,6.69,5.1c.58.4,1.32-.53.76-.99-2.13-1.75-4.42-3.35-6.63-5s-4.47-3.36-6.79-4.92c-.4-.27-.9.36-.52.68h0Z"/>
          <path class="cls-12" d="M125.1,75.08c-5.53,6.4-10.34,13.49-15.05,20.51-2.36,3.51-4.69,7.05-6.89,10.66-1.87,3.07-3.55,6.37-3.84,10-.25,3.11.62,6.41,2.99,8.55s5.45,2.57,8.27,1.44c3.05-1.23,5.37-3.78,7.34-6.32,2.43-3.14,4.72-6.4,6.92-9.7,5.13-7.69,10.02-15.8,13.79-24.26.33-.74-.73-1.41-1.12-.65-3.46,6.65-6.9,13.24-10.93,19.58-2.05,3.22-4.19,6.38-6.42,9.48-1.99,2.77-3.97,5.68-6.49,8.01s-5.72,3.94-8.95,2.3c-2.87-1.46-4.06-4.72-3.97-7.78.1-3.6,1.83-6.88,3.66-9.9,2.03-3.34,4.18-6.62,6.35-9.87,4.85-7.28,10.15-14.24,15.06-21.47.3-.44-.39-.98-.74-.57h0Z"/>
          <path class="cls-12" d="M136.89,83.3c2.46-2.5,4.26-5.49,5.55-8.75.2-.51-.63-.74-.83-.23-1.21,3.11-3.01,6-5.11,8.58-.22.27.14.65.39.39h0Z"/>
          <path class="cls-12" d="M129.5,77.47c.89-1.2,1.77-2.37,2.58-3.62s1.64-2.47,2.36-3.75c.32-.56-.5-1.02-.86-.5-.83,1.21-1.58,2.51-2.32,3.77s-1.42,2.59-2.09,3.91c-.11.22.18.39.33.19h0Z"/>
        </g>
      </g>
    </g>
  </g>
</svg>