<?xml version="1.0" encoding="UTF-8"?>
<svg xmlns="http://www.w3.org/2000/svg" viewBox="0 0 314.48 130.97">
  <defs>
    <style>
      .cls-1, .cls-2, .cls-3, .cls-4, .cls-5, .cls-6 {
        mix-blend-mode: multiply;
      }

      .cls-1, .cls-2, .cls-3, .cls-4, .cls-6 {
        opacity: .3;
      }

      .cls-1, .cls-7 {
        fill: #f6dd35;
      }

      .cls-2, .cls-8 {
        fill: #c3bef1;
      }

      .cls-9, .cls-3 {
        fill: #426ffb;
      }

      .cls-4, .cls-10 {
        fill: #db1698;
      }

      .cls-11, .cls-5 {
        fill: #c0dffe;
      }

      .cls-12 {
        isolation: isolate;
      }

      .cls-5 {
        opacity: .7;
      }

      .cls-13, .cls-6 {
        fill: #4723b4;
      }

      .cls-14 {
        fill: #271857;
      }
    </style>
  </defs>
  <g class="cls-12">
    <g id="Capa_2">
      <g id="OBJECTS">
        <g>
          <path class="cls-13" d="M313.71,115.06c.06,4.38.11,8.74.17,13.12l-1.79.09c-56.57,2.25-113.21,2.03-169.83,1.81-13.31-.05-26.63-.1-39.95-.17-33.6-.12-67.21-.26-100.81-.39v-.59c-.79-4.93-1.05-9.94-.75-14.91h.38c104.2.34,208.38.68,312.58,1.04Z"/>
          <path class="cls-6" d="M270.21,121.7c-21.87,1.48-43.67.66-65.58.29-24.27-.41-48.55-.71-72.83-.74-23.74-.03-47.36.28-71.05,1.74-20,1.24-39.97,2.27-59.89.36.15,1.86.34,3.72.64,5.57v.59c33.6.14,67.2.27,100.81.39,13.32.06,26.64.11,39.95.17,56.62.22,113.25.44,169.83-1.81l1.79-.09-.11-8.3c-14.51-.68-29.33.84-43.56,1.81Z"/>
          <path class="cls-14" d="M1.34,129.78c20.24.31,40.46.66,60.71.73,20.18.08,40.37.15,60.55.23,40.44.16,80.89.43,121.33-.04,22.73-.26,45.45-.78,68.16-1.7.94-.04.94-1.5,0-1.46-40.47,1.56-80.97,1.92-121.47,1.91-40.38-.01-80.76-.25-121.14-.42-11.36-.05-22.71-.1-34.07-.11s-22.71.25-34.07.33c-.34,0-.34.52,0,.53h0Z"/>
          <path class="cls-14" d="M1.12,114.43c10.28.38,20.6.29,30.89.34s20.54.11,30.81.14c20.27.08,40.55.15,60.82.22,40.51.14,81.03.29,121.54.43,22.84.08,45.69.16,68.53.24.94,0,.94-1.46,0-1.46-40.84-.13-81.68-.26-122.52-.39-40.51-.13-81.03-.26-121.54-.38-11.41-.03-22.81-.06-34.22-.08s-22.89-.22-34.32.13c-.52.02-.52.79,0,.81h0Z"/>
          <path class="cls-14" d="M.6,113.89c-.06.26-.25.54-.32.81-.06.24-.13.46-.16.71-.08.68-.1,1.38-.11,2.06-.02,1.28,0,2.56.06,3.83.12,2.59.3,5.25.83,7.8.14.68,1.31.54,1.23-.17-.29-2.55-.66-5.06-.8-7.63-.07-1.28-.1-2.56-.09-3.83,0-.59,0-1.18-.01-1.77,0-.24-.02-.48-.05-.73-.04-.3-.25-.76-.28-1.04-.02-.16-.26-.22-.3-.04h0Z"/>
          <path class="cls-14" d="M314.45,128.18c.05-2.22,0-4.45-.02-6.67s0-4.45-.08-6.67c-.03-.84-1.3-.85-1.31,0-.03,2.22.06,4.45.1,6.67s.04,4.45.16,6.67c.04.74,1.13.75,1.15,0h0Z"/>
        </g>
        <g>
          <path class="cls-10" d="M204.68,107.24c-9.19.23-18.45-4.8-23.88-12.39-6.52-9.12-7.97-21.19-5.75-32.17,1.07-5.31,3.07-10.64,6.97-14.38,3.9-3.76,10.04-5.53,14.91-3.16,6.15,2.99,8.46,11.22,14.74,13.92,8.02,3.45,17.56-4.07,25.7-.92,6.18,2.39,8.69,9.96,8.45,16.59-.34,10.05-5.35,19.83-13.3,25.99-7.78,6.02-18.21,8.46-27.86,6.51Z"/>
          <path class="cls-8" d="M227.25,2.2c1.43,1.73.49,4.55-1.33,5.84-1.09.77-2.38,1.15-3.71,1.36-.9.14-1.81.2-2.71.25-8.57.44-17.18.54-25.76.54-1.3,0-2.59,0-3.89,0v-.59c-.58-1.85-.84-3.79-.79-5.72.01-.47.05-.98.36-1.34.35-.41.95-.5,1.48-.56,10.5-1.18,21.07-1.62,31.63-1.3,1.71.05,3.62.22,4.72,1.52Z"/>
          <path class="cls-8" d="M222.22,9.56c-.9,7.48-.61,15.1.84,22.49,13.39,4.1,23.88,15.93,27.25,29.52,3.37,13.59-.11,28.51-8.4,39.8-3.52,4.79-8.02,9.06-13.6,11.13-3.69,1.37-7.68,1.69-11.61,1.92-13.37.79-27.89.26-38.48-7.93-8-6.2-12.56-16.11-13.9-26.16-1.34-10.12.39-20.72,5.36-29.65,4.98-8.93,13.23-16.08,22.96-19.24.37-6.79.73-13.58,1.1-20.37v-.87c8.58,0,17.18-.1,25.76-.54.9-.05,1.81-.11,2.71-.25l.02.17ZM245.84,74.73c.24-6.63-2.27-14.2-8.45-16.59-8.15-3.15-17.69,4.37-25.7.92-6.28-2.7-8.59-10.94-14.74-13.92-4.87-2.37-11.01-.59-14.91,3.16-3.9,3.74-5.9,9.07-6.97,14.38-2.22,10.98-.77,23.05,5.75,32.17,5.42,7.59,14.68,12.62,23.88,12.39,9.65,1.95,20.09-.5,27.86-6.51,7.95-6.16,12.96-15.95,13.3-25.99Z"/>
          <path class="cls-4" d="M238.41,58.61c3.97,11.71-1.33,24.03-10.32,32.06-12.65,11.29-30.29,11.83-45.77,6.11,5.53,6.5,13.97,10.67,22.36,10.46,9.65,1.95,20.09-.5,27.86-6.51,7.95-6.16,12.96-15.95,13.3-25.99.23-6.25-1.99-13.33-7.43-16.12Z"/>
          <path class="cls-2" d="M215.29,8.46c-.42.39-.8.87-1.14,1.41,1.78-.06,3.56-.13,5.34-.23.9-.05,1.81-.11,2.71-.25,1.33-.21,2.62-.59,3.71-1.36,1.83-1.3,2.76-4.11,1.33-5.84-1.1-1.3-3.01-1.47-4.72-1.52-2.32-.07-4.65-.1-6.97-.1,2.68,2.06,1.91,5.86-.27,7.88Z"/>
          <path class="cls-2" d="M250.32,61.57c-3.37-13.59-13.86-25.41-27.25-29.52-1.46-7.39-1.74-15-.84-22.49l-.02-.17c-.9.14-1.81.2-2.71.25-1.78.09-3.56.16-5.34.23-2.34,3.74-2.76,10.52-3.14,14.19-.53,5.01-1.15,10.33,3.08,13.8,8.14,6.68,18.72,7.88,23.46,18.52.33.74.61,1.48.86,2.22,5.43,2.79,7.65,9.88,7.43,16.12-.34,10.05-5.35,19.83-13.3,25.99-7.77,6.02-18.21,8.46-27.86,6.51-8.39.21-16.82-3.97-22.36-10.46-5.93-2.19-11.53-5.3-16.41-9.09,2.22,7.35,6.29,14.12,12.31,18.79,10.6,8.2,25.11,8.72,38.48,7.93,3.93-.23,7.92-.56,11.61-1.92,5.58-2.06,10.08-6.34,13.6-11.13,8.29-11.29,11.77-26.21,8.4-39.8Z"/>
          <path class="cls-14" d="M189.66,10.52c3.52.36,7.16.17,10.69.15s6.96-.05,10.44-.14,6.88-.09,10.29-.41c2.29-.22,4.8-.77,6.29-2.68,1.22-1.55,1.69-3.9.39-5.55-1.55-1.97-4.48-1.8-6.72-1.85-6.93-.14-13.86,0-20.78.48-1.98.14-3.95.3-5.92.49-1.46.14-3.37,0-4.71.64-1.22.59-1.21,1.93-1.18,3.11.05,1.68.29,3.4.9,4.96.23.6,1.1.38.97-.27-.27-1.34-.57-2.66-.65-4.03-.03-.57-.19-1.59.03-2.12.37-.87,1.67-.8,2.43-.88,2.87-.31,5.75-.56,8.63-.76,5.76-.4,11.54-.57,17.31-.52,1.32.01,2.64.04,3.96.08s2.65.03,3.8.61c2.58,1.31,1.43,4.63-.54,5.89-2.1,1.35-4.89,1.27-7.29,1.4-2.9.16-5.8.27-8.7.35-3.23.09-6.46.14-9.7.17s-6.67-.14-9.95.2c-.42.04-.43.62,0,.66h0Z"/>
          <path class="cls-14" d="M193.35,11.06c-.68,6.76-.96,13.59-1.33,20.38l.45-.59c-15.85,5.21-26.6,19.84-28.77,36.12-2.14,15.98,3.42,34.36,18.14,42.68,7.15,4.04,15.48,5.38,23.59,5.63,4.21.13,8.43-.02,12.64-.3,4.45-.3,8.9-.92,12.93-2.95,7.27-3.68,12.61-10.83,16.11-18.01,3.65-7.48,5.51-15.88,5.08-24.21-.79-15.28-9.94-29.78-23.9-36.36-1.64-.77-3.33-1.43-5.06-1.96l.42.42c-1.44-7.33-1.8-14.91-.95-22.33.07-.6-.86-.59-.94,0-.91,7.58-.7,15.15.73,22.65.04.2.23.36.42.42,14.02,4.41,24.5,16.99,27.26,31.3,1.54,7.96.73,16.28-1.9,23.92s-6.93,14.67-12.99,19.77c-3.21,2.7-6.94,4.52-11.06,5.33s-8.63.95-12.93,1.05c-7.77.19-15.72-.28-23.11-2.89s-13.69-7.69-17.74-14.55-5.9-14.81-5.93-22.7c-.06-16.26,8.24-32.1,22.96-39.62,1.72-.88,3.49-1.61,5.32-2.22.27-.09.43-.31.45-.59.36-6.78.82-13.59.86-20.38,0-.49-.7-.47-.75,0h0Z"/>
          <path class="cls-14" d="M210.09,106.15c-6.98,1.54-14.44-.24-20.42-4.03-6.39-4.06-10.81-10.37-13.02-17.56s-2.3-15.52-.53-23.06,5.86-15.04,13.93-16.46c3.53-.62,6.87.45,9.49,2.86,2.31,2.13,4.01,4.81,6.02,7.2s4.27,4.35,7.24,5.2c3.12.88,6.43.4,9.54-.27,6.45-1.4,14.08-4.01,19.04,2.01,4.44,5.39,4.29,13.44,2.62,19.83-1.92,7.3-6.27,14.01-12.34,18.54s-13.94,7.03-21.64,6.81c-1.96-.06-3.91-.23-5.84-.57-.6-.11-.87.78-.26.94,7.82,1.96,16.19.86,23.4-2.68s12.89-9.66,16.15-16.91c3.02-6.7,4.39-14.86,1.86-21.94-1.08-3.03-2.91-5.86-5.66-7.62-3-1.92-6.57-2.1-10-1.6-3.75.54-7.36,1.85-11.14,2.26s-7.2-.44-10-3.08c-4.8-4.53-7.56-11.72-14.9-12.63-8-.99-14.39,5.18-17.26,12.06-3.13,7.49-3.81,16.26-2.51,24.23s4.84,15.38,10.82,20.68c5.53,4.9,12.96,8,20.42,7.39,1.75-.14,3.46-.48,5.14-1,.38-.12.22-.68-.16-.6h0Z"/>
        </g>
        <g>
          <path class="cls-14" d="M114.32,74.5c1.69-2.62.94-6.43-1.19-8.57-.57-.57-1.46.31-.89.89,1.86,1.9,2.13,4.72,1.1,7.1-.28.65.57,1.2.98.57h0Z"/>
          <g>
            <path class="cls-7" d="M112.65,73.95c-31.34.61-62.7.86-94.04.75-.47,0-.95,0-1.42-.01v-.48c-2.11-.94-1.84-4.33-.04-5.79.6-.49,1.27-.82,1.99-1.04,1.46-.46,3.09-.49,4.63-.5,2.06,0,4.12-.02,6.18-.03,24.29-.1,48.59-.18,72.87-.28,3.01,0,6-.03,9.01-.03l.46-.32c.06.1.13.19.2.29l.54.22c1.71,2.02,2.08,5.13.8,7.48l-1.01.17-.17-.43Z"/>
            <path class="cls-7" d="M112.28,66.22l-.46.32c-3.01,0-6,.03-9.01.03v-1.32c-4.08-8.18-8.16-16.35-12.25-24.52-.64-1.29-1.5-2.74-2.93-2.89-1.59-.18-2.78,1.32-4.04,2.3-1.25.99-3.69,1.11-3.91-.47-.1-.68.32-1.32.73-1.87,2.12-2.98,5.18-6.33,8.72-5.42,1.77.45,3.09,1.9,4.23,3.33,7.44,9.38,11.86,20.84,18.92,30.52Z"/>
            <path class="cls-11" d="M112.65,73.95l.17.43c.29,11.26.09,23.86-7.79,31.91-4.49,4.59-11.17,6.94-17.55,6.17-6.38-.77-12.31-4.63-15.59-10.15-1.14-1.9-1.98-4.01-3.47-5.64-1.49-1.63-3.92-2.7-5.95-1.81-1.84.81-2.71,2.89-3.59,4.72-2.77,5.69-7.55,10.5-13.48,12.73-5.91,2.24-12.95,1.69-18.14-1.92-5.2-3.61-8.09-9.83-9.08-16.06-.99-6.25-.28-12.62.43-18.91v-.71c31.35.11,62.71-.14,94.04-.75Z"/>
            <path class="cls-7" d="M18.84,66.52c7.23-6.69,13.69-14.22,19.19-22.38,1.75-2.59,3.42-5.26,5.71-7.4,2.28-2.12,5.3-3.68,8.4-3.47,2.31.17,4.44,1.28,6.38,2.53.52.35,1.06.73,1.3,1.31.62,1.48-1.2,2.94-2.81,2.95-1.6,0-3.12-.81-4.73-.85-2.88-.08-5.24,2.18-7.1,4.38-5.9,6.94-10.58,14.79-15.24,22.61v.65c-2.06,0-4.12.02-6.18.03-1.54.01-3.17.04-4.63.5l-.29-.86Z"/>
            <path class="cls-1" d="M113.02,66.74l-.54-.22c-.08-.1-.14-.19-.2-.29l-.46.32c-3.01,0-6,.03-9.01.03-24.29.1-48.59.18-72.87.28-2.06,0-4.12.02-6.18.03-1.54.01-3.17.04-4.63.5-.72.23-1.39.56-1.99,1.04-1.8,1.46-2.07,4.85.04,5.79v.09c4.67-.83,9.28-.3,13.88.41,9.23,0,18.46-.02,27.69-.08,2.38-.1,4.77-.21,7.15-.34,4.75-.26,9.86-.49,14.77.14,10.66-.12,21.32-.27,31.98-.48l.17.43,1-.17c1.28-2.35.91-5.46-.8-7.48Z"/>
            <path class="cls-1" d="M112.28,66.22l-.46.32c-3.01,0-6,.03-9.01.03v-1.32c-4.08-8.18-8.16-16.35-12.25-24.52-.64-1.29-1.5-2.74-2.93-2.89-1.59-.18-2.78,1.32-4.04,2.3-1.25.99-3.69,1.11-3.91-.47-.1-.68.32-1.32.73-1.87,2.12-2.98,5.18-6.33,8.72-5.42,1.77.45,3.09,1.9,4.23,3.33,7.44,9.38,11.86,20.84,18.92,30.52Z"/>
            <path class="cls-5" d="M31.06,74.71c2.3.36,4.59.75,6.9,1.03.13-.01.27-.03.4-.04,6.77-.54,13.59-.78,20.4-1.07-9.23.06-18.46.08-27.69.08Z"/>
            <path class="cls-5" d="M112.65,73.95c-10.66.21-21.32.36-31.98.48,3.41.44,6.72,1.3,9.75,2.87,4.39,2.28,8.75,6.91,6.98,12.28-4.84,14.66-29.31.56-38.51.33-9.93-.25-14.14,8.43-20.86,13.94-4.2,3.44-8.64,4.95-13.15,4.52.74.73,1.53,1.41,2.39,2.01,5.2,3.61,12.23,4.16,18.14,1.92,5.92-2.23,10.7-7.04,13.48-12.73.88-1.82,1.75-3.91,3.59-4.72,2.03-.89,4.45.18,5.95,1.81,1.49,1.63,2.33,3.74,3.47,5.64,3.28,5.52,9.21,9.38,15.59,10.15,6.38.77,13.06-1.58,17.55-6.17,7.88-8.05,8.08-20.64,7.79-31.91l-.17-.43Z"/>
            <path class="cls-1" d="M18.84,66.52c7.23-6.69,13.69-14.22,19.19-22.38,1.75-2.59,3.42-5.26,5.71-7.4,2.28-2.12,5.3-3.68,8.4-3.47,2.31.17,4.44,1.28,6.38,2.53.52.35,1.06.73,1.3,1.31.62,1.48-1.2,2.94-2.81,2.95-1.6,0-3.12-.81-4.73-.85-2.88-.08-5.24,2.18-7.1,4.38-5.9,6.94-10.58,14.79-15.24,22.61v.65c-2.06,0-4.12.02-6.18.03-1.54.01-3.17.04-4.63.5l-.29-.86Z"/>
            <path class="cls-14" d="M16.8,75.11c6.23.3,12.49.15,18.72.15s12.48.01,18.72.02c12.48.01,24.96-.15,37.44-.32,6.99-.1,13.98-.21,20.97-.36.83-.02.83-1.31,0-1.29-24.96.43-49.92.86-74.88.89-6.98.01-13.99-.19-20.97.09-.53.02-.53.8,0,.82h0Z"/>
            <path class="cls-14" d="M17.42,73.81c-1.14-.6-1.41-1.84-1.14-3.04.35-1.53,1.56-2.45,2.99-2.91,2.78-.89,6.09-.47,8.96-.47,6.8,0,13.6.01,20.4.02,13.44.01,26.87,0,40.31-.05,7.62-.03,15.27.12,22.89-.12.89-.03.89-1.36,0-1.39-7.45-.18-14.94.03-22.39.05s-14.76.07-22.14.11c-14.77.08-29.55.03-44.32.36-2.51.06-5.7.39-7.1,2.8-1.04,1.78-.93,4.41,1.07,5.45.53.28,1.01-.53.47-.81h0Z"/>
            <path class="cls-14" d="M19.14,66.82c5.14-4.34,9.73-9.26,13.9-14.54,1.98-2.51,3.87-5.09,5.67-7.74s3.56-5.5,6.04-7.64,5.97-3.55,9.33-2.56c1.51.45,2.99,1.22,4.29,2.11,1.04.72,1.41,1.71.25,2.56-.83.61-1.79.6-2.77.41-1.45-.28-2.81-.84-4.31-.69-1.19.12-2.31.61-3.3,1.27-2.48,1.66-4.33,4.24-6.13,6.57-4.7,6.11-8.75,12.72-12.62,19.38-.34.58.55,1.09.89.52,3.94-6.46,7.74-13,12.33-19.02,2.05-2.68,4.49-6.44,7.89-7.5,2.92-.91,6.13,1.9,8.78-.27.73-.6,1.25-1.46,1.07-2.43-.26-1.42-1.97-2.27-3.1-2.92-2.76-1.59-5.89-2.31-8.99-1.32-6.55,2.09-9.83,9.23-13.57,14.39-4.87,6.71-10.45,12.88-16.25,18.81-.38.39.19.93.59.59h0Z"/>
            <path class="cls-14" d="M112.73,66.36c-1.67-3.06-3.66-5.95-5.4-8.98s-3.4-6.13-5.12-9.18-3.48-6.06-5.45-8.95c-1.62-2.38-3.39-5.3-5.89-6.83s-5.14-.78-7.25.87c-1.07.84-1.98,1.84-2.82,2.91-.78.99-1.97,2.26-1.72,3.63.39,2.12,3.22,1.88,4.61,1,1.07-.68,1.86-1.97,3.13-2.31,1.85-.5,2.78,1.64,3.45,2.97,4.02,8.02,8.01,16.06,12.01,24.08.35.7,1.41.09,1.06-.62-3.19-6.39-6.39-12.78-9.58-19.17-.82-1.63-1.63-3.27-2.45-4.9-.54-1.08-1.1-2.25-2.08-2.99-1.9-1.43-3.74-.16-5.25,1.15-.75.65-2.27,1.82-3.35,1.04-1.13-.82,1.51-3.53,2.12-4.2,1.9-2.08,4.66-4.03,7.47-2.34,1.39.84,2.42,2.26,3.39,3.53s1.89,2.58,2.77,3.92c1.69,2.55,3.24,5.19,4.74,7.85,1.73,3.05,3.39,6.13,5.17,9.15s3.57,6.19,5.99,8.71c.23.24.61-.07.45-.35h0Z"/>
            <path class="cls-14" d="M18.06,75.27c-1.71,11.38-2.45,25.66,6.9,34.16,4.06,3.69,9.62,5.31,15.05,4.81s10.27-3.02,14.07-6.78c1.84-1.82,3.43-3.93,4.69-6.19s2.27-6.18,5.45-6.03,4.91,3.48,6.24,5.97,2.91,4.67,4.99,6.53c8.23,7.33,20.87,7.42,29.14.06,9.14-8.13,9.54-22.1,8.91-33.41-.05-.88-1.38-.89-1.38,0-.03,10,.43,21.39-6.17,29.68-7.02,8.82-20.17,10.26-28.9,3.13-2.03-1.66-3.7-3.68-4.98-5.97s-2.36-4.76-4.59-6.26c-1.89-1.27-4.37-1.61-6.26-.18s-2.56,3.82-3.65,5.77c-5.3,9.51-17.09,15.66-27.59,10.61-5.57-2.68-8.97-8.18-10.51-14-1.89-7.16-.85-14.51-.31-21.76.05-.62-1-.77-1.1-.15h0Z"/>
          </g>
        </g>
        <g>
          <path class="cls-9" d="M179.01,107.25c.37,1.25.74,2.61.25,3.82-.84,2.12-3.62,2.53-5.9,2.6-9.97.32-19.95.63-29.93.96-5.66.18-11.36.36-16.96-.58-.89-.14-1.85-.35-2.5-.99-1.31-1.28-.75-3.46-.11-5.18,4.73-12.5,9.46-25.01,14.19-37.51l.5.14c3.2-.43,6.19,1.85,9.42,1.93,5.08.13,9.66-5.12,14.51-3.59,3.14,1,4.73,4.41,5.92,7.48,3.95,10.16,7.48,20.48,10.6,30.92Z"/>
          <path class="cls-8" d="M139.67,26.74c-1.18-.01-2.36-.04-3.54-.05h-.13c-2.29-2.13-2.55-6.07-.58-8.5l.71-.19c9.7.02,19.4.05,29.09.07l.45.39c1.9,2.45,1.95,6.18.09,8.67l-.55-.02c-.75,0-1.49-.02-2.24-.04-7.77-.11-15.54-.22-23.31-.34Z"/>
          <path class="cls-8" d="M147.97,72.43c-3.23-.09-6.22-2.37-9.42-1.93l-.5-.14c-4.73,12.5-9.45,25.01-14.19,37.51-.64,1.72-1.21,3.9.11,5.18.65.63,1.6.84,2.5.99,5.59.95,11.3.76,16.96.58,9.98-.32,19.96-.64,29.93-.96,2.28-.07,5.07-.48,5.9-2.6.48-1.21.12-2.58-.25-3.82-3.12-10.44-6.65-20.76-10.6-30.92-1.19-3.07-2.79-6.49-5.92-7.48-4.85-1.53-9.43,3.72-14.51,3.59ZM162.98,52.63c8.67,21.88,17.33,43.76,26,65.65l-.75.45c-25.02.84-50.08.97-75.11.37v-.6c9.4-21.68,18.08-43.67,26.03-65.94l-.3-.11c.6-8.56.87-17.12.82-25.7,7.77.12,15.54.23,23.31.34v25.54Z"/>
          <path class="cls-3" d="M179.01,107.25c-3.12-10.44-6.65-20.76-10.6-30.92-1.19-3.07-2.79-6.49-5.92-7.48-.81-.25-1.61-.31-2.4-.24.54,1.73,1.08,3.46,1.6,5.19,2.58,8.49,7.42,17.05,7.84,26.03.33,7.28-5.48,9.3-11.65,10.19-8.39,1.21-17.03.92-25.46.31-2.92-.21-6-.38-9.07-.71-.28,1.28-.26,2.57.64,3.45.65.64,1.6.84,2.5.99,5.59.95,11.3.76,16.96.58,9.98-.32,19.96-.64,29.93-.96,2.28-.07,5.07-.48,5.9-2.6.48-1.21.12-2.58-.25-3.82Z"/>
          <path class="cls-2" d="M159.25,20.55c1.1,3.32-1.24,5.34-3.96,6.36,0,.02,0,.04,0,.06,2.57.04,5.13.08,7.7.11.75.01,1.49.03,2.24.04l.55.02c1.85-2.5,1.81-6.23-.09-8.67l-.45-.39c-2.52,0-5.05-.01-7.57-.02.72.72,1.29,1.55,1.6,2.49Z"/>
          <path class="cls-2" d="M162.98,52.63v-25.54c-2.57-.04-5.13-.07-7.7-.11-.92,7.48-.97,15.21.08,22.65.91,6.47,2.79,12.74,4.72,18.98.8-.07,1.6-.01,2.4.24,3.14,1,4.73,4.41,5.92,7.48,3.95,10.16,7.48,20.48,10.6,30.92.37,1.25.74,2.61.25,3.82-.84,2.12-3.62,2.53-5.9,2.6-9.97.32-19.95.63-29.93.96-5.66.18-11.36.36-16.96-.58-.89-.14-1.85-.35-2.5-.99-.9-.88-.92-2.17-.64-3.45-2.04-.22-4.07-.51-6.04-.93-1.38,3.28-2.78,6.55-4.2,9.81v.6c25.05.6,50.1.48,75.12-.37l.75-.45c-8.67-21.89-17.33-43.77-26-65.65Z"/>
          <path class="cls-14" d="M136.04,27.01c2.25.4,4.7.25,6.99.33,2.55.08,5.09.13,7.64.18s4.93.08,7.4.13l3.7.08c1.19.02,2.43.18,3.6-.07.53-.11.51-.93,0-1.05-1.16-.28-2.41-.16-3.6-.17l-3.45-.03c-2.55-.02-5.09-.06-7.64-.09s-4.93-.05-7.4-.05-4.89-.22-7.24.12c-.31.05-.3.57,0,.62h0Z"/>
          <path class="cls-14" d="M136.32,26.51s-.02.04-.02,0c0-.04,0-.08-.02-.11-.04-.12-.07-.21-.15-.31-.11-.15-.23-.29-.33-.43-.22-.31-.42-.64-.58-.99-.3-.65-.48-1.38-.52-2.09s.03-1.47.24-2.18c.1-.35.24-.69.42-1.02.19-.35.45-.65.58-1.02.15-.45-.4-.85-.8-.61-.71.43-1.12,1.52-1.35,2.28-.26.84-.35,1.74-.28,2.61s.29,1.72.65,2.52c.18.38.39.75.64,1.09.14.19.29.38.47.55.16.16.43.21.52.27.31.2.75-.21.52-.52h0Z"/>
          <path class="cls-14" d="M136.12,18.47c2.42.3,4.96.14,7.4.15s4.77.02,7.15.02,4.77,0,7.15.03,4.95.18,7.4.03c.79-.05.79-1.18,0-1.23-2.45-.17-4.94-.02-7.4-.01s-4.77,0-7.15,0-4.77,0-7.15-.01-4.97-.18-7.4.11c-.6.07-.6.85,0,.93h0Z"/>
          <path class="cls-14" d="M166.12,27.49c1.27-1.07,1.68-3.13,1.67-4.7-.01-1.73-.56-3.44-1.65-4.79-.47-.58-1.48.19-1.04.8.87,1.2,1.36,2.57,1.38,4.05,0,.71-.09,1.41-.3,2.09-.22.73-.59,1.38-.88,2.07-.21.5.49.76.82.48h0Z"/>
          <path class="cls-14" d="M139.37,26.48c-.37.95-.27,2.06-.29,3.07-.02,1.16-.03,2.32-.05,3.49-.04,2.16-.08,4.32-.15,6.47s-.16,4.31-.27,6.47c-.06,1.16-.13,2.32-.2,3.48-.06,1.03-.28,2.11-.01,3.11.13.49.74.4.91,0,.39-.95.32-2.09.38-3.11.07-1.16.14-2.32.19-3.48.11-2.16.2-4.31.26-6.47s.12-4.32.13-6.47c0-1.16.01-2.33,0-3.49-.02-1.02.08-2.12-.3-3.07-.12-.29-.48-.3-.6,0h0Z"/>
          <path class="cls-14" d="M162.6,27.2c-.51,4.2-.27,8.56-.3,12.79s-.04,8.52-.04,12.79c0,.92,1.43.92,1.43,0,0-4.26-.02-8.52-.04-12.79s.21-8.59-.3-12.79c-.06-.49-.71-.49-.77,0h0Z"/>
          <path class="cls-14" d="M113.11,119.41c4.85.5,9.8.41,14.67.55s9.79.18,14.68.21c9.7.05,19.4-.01,29.1-.21,2.74-.06,5.47-.12,8.21-.2s5.66-.03,8.45-.31c.92-.09.95-1.42,0-1.46-4.87-.16-9.8.25-14.67.36s-9.78.2-14.67.27c-9.7.13-19.4.17-29.1.14-5.53-.02-11.15-.3-16.66.01-.41.02-.4.59,0,.63h0Z"/>
          <path class="cls-14" d="M113.59,118.78c3.91-8.22,7.24-16.78,10.66-25.21s6.88-17.31,10.14-26.04c1.84-4.93,3.62-9.89,5.39-14.84.28-.77-.95-1.11-1.23-.34-6.18,17.31-12.84,34.46-19.88,51.44-2.01,4.86-4.19,9.66-6.11,14.55-.23.6.76,1.02,1.04.44h0Z"/>
          <path class="cls-14" d="M162.47,52.61c1.38,4.35,3.16,8.56,4.83,12.8s3.42,8.65,5.12,12.98c3.36,8.5,6.7,17,10.07,25.49,1.93,4.87,3.83,9.74,5.81,14.59.33.82,1.67.48,1.35-.37-6.6-17.3-13.62-34.45-20.46-51.66-1.89-4.75-3.65-9.57-5.86-14.18-.23-.48-1.02-.14-.86.36h0Z"/>
          <path class="cls-14" d="M137.72,70.27c-5.14,12.24-9.72,24.77-14.38,37.2-.68,1.82-1.44,4.29.07,5.92.76.82,1.83,1.1,2.9,1.29,1.57.28,3.16.45,4.75.56,6.51.48,13.1.03,19.62-.18s13.3-.43,19.95-.64c2.37-.08,5.14.13,7.31-1.02s2.49-3.28,1.94-5.47c-.78-3.12-2.08-6.12-3.05-9.18s-2-6.19-3.03-9.27-2.16-6.13-3.26-9.19c-.91-2.55-1.71-5.21-2.98-7.61-1.12-2.09-2.81-4.02-5.19-4.64s-4.88.27-7.1,1.26c-2.42,1.08-4.94,2.55-7.68,2.4-3.1-.18-5.85-2.09-9.02-1.77-.72.07-.73,1.2,0,1.13,2.67-.26,4.94,1.14,7.45,1.78,2.07.53,4.09.31,6.08-.44,3.78-1.42,8.46-5.03,12.24-1.66,1.68,1.5,2.63,3.72,3.47,5.76,1.11,2.72,2.19,5.44,3.2,8.19,2.08,5.65,4.09,11.32,5.9,17.07.41,1.32.66,2.68,1.03,4.02.4,1.45,1.22,3.18.84,4.71-.6,2.42-3.92,2.47-5.9,2.54-5.99.2-11.97.38-17.96.57s-12.19.52-18.28.52c-3.01,0-6.04-.12-9.02-.55-1.24-.18-2.98-.27-3.57-1.58-.51-1.13-.05-2.52.34-3.62,4.47-12.71,9.71-25.15,14.01-37.92.15-.44-.5-.59-.67-.19h0Z"/>
        </g>
      </g>
    </g>
  </g>
</svg>